<svg width="1400" height="700" viewBox="0 0 1400 700" fill="none" xmlns="http://www.w3.org/2000/svg">
<rect width="1400" height="700" fill="url(#paint0_linear_108_134)"/>
<g clip-path="url(#clip0_108_134)">
<g filter="url(#filter0_i_108_134)">
<path d="M568.736 195.704L564.256 219.444C564.116 220.187 563.827 220.894 563.406 221.522C562.985 222.151 562.442 222.687 561.808 223.1L542.728 235.52C541.891 236.065 541.203 236.81 540.726 237.688C540.25 238.566 540 239.549 540 240.548V263.82C540.001 264.696 540.289 265.547 540.82 266.244L566.312 299.7C567.256 300.94 568.728 301.672 570.288 301.672H630.06C631.52 301.672 632.943 301.216 634.13 300.368C635.318 299.519 636.211 298.321 636.684 296.94L650.768 255.812C651.363 254.074 651.251 252.172 650.456 250.516C649.662 248.86 648.248 247.583 646.52 246.96L632.552 241.924C632.222 241.805 631.922 241.616 631.674 241.369C631.425 241.123 631.233 240.825 631.112 240.496L616.712 201.404C616.36 200.452 615.773 199.605 615.005 198.942C614.237 198.278 613.313 197.821 612.32 197.612L577.064 190.152C576.152 189.959 575.21 189.95 574.295 190.126C573.379 190.302 572.508 190.659 571.732 191.176C570.956 191.693 570.292 192.36 569.777 193.138C569.263 193.915 568.909 194.788 568.736 195.704Z" fill="url(#paint1_linear_108_134)"/>
</g>
<path d="M568.736 195.704L564.256 219.444C564.116 220.187 563.827 220.894 563.406 221.522C562.985 222.151 562.442 222.687 561.808 223.1L542.728 235.52C541.891 236.065 541.203 236.81 540.726 237.688C540.25 238.566 540 239.549 540 240.548V263.82C540.001 264.696 540.289 265.547 540.82 266.244L566.312 299.7C567.256 300.94 568.728 301.672 570.288 301.672H630.06C631.52 301.672 632.943 301.216 634.13 300.368C635.318 299.519 636.211 298.321 636.684 296.94L650.768 255.812C651.363 254.074 651.251 252.172 650.456 250.516C649.662 248.86 648.248 247.583 646.52 246.96L632.552 241.924C632.222 241.805 631.922 241.616 631.674 241.369C631.425 241.123 631.233 240.825 631.112 240.496L616.712 201.404C616.36 200.452 615.773 199.605 615.005 198.942C614.237 198.278 613.313 197.821 612.32 197.612L577.064 190.152C576.152 189.959 575.21 189.95 574.295 190.126C573.379 190.302 572.508 190.659 571.732 191.176C570.956 191.693 570.292 192.36 569.777 193.138C569.263 193.915 568.909 194.788 568.736 195.704Z" fill="url(#paint2_linear_108_134)"/>
<path d="M568.736 195.704L564.256 219.444C564.116 220.187 563.827 220.894 563.406 221.522C562.985 222.151 562.442 222.687 561.808 223.1L542.728 235.52C541.891 236.065 541.203 236.81 540.726 237.688C540.25 238.566 540 239.549 540 240.548V263.82C540.001 264.696 540.289 265.547 540.82 266.244L566.312 299.7C567.256 300.94 568.728 301.672 570.288 301.672H630.06C631.52 301.672 632.943 301.216 634.13 300.368C635.318 299.519 636.211 298.321 636.684 296.94L650.768 255.812C651.363 254.074 651.251 252.172 650.456 250.516C649.662 248.86 648.248 247.583 646.52 246.96L632.552 241.924C632.222 241.805 631.922 241.616 631.674 241.369C631.425 241.123 631.233 240.825 631.112 240.496L616.712 201.404C616.36 200.452 615.773 199.605 615.005 198.942C614.237 198.278 613.313 197.821 612.32 197.612L577.064 190.152C576.152 189.959 575.21 189.95 574.295 190.126C573.379 190.302 572.508 190.659 571.732 191.176C570.956 191.693 570.292 192.36 569.777 193.138C569.263 193.915 568.909 194.788 568.736 195.704Z" fill="url(#paint3_linear_108_134)"/>
<path d="M568.28 301.251L572.592 289.951L567.624 265.543L563.592 250.231C563.232 250.483 552.54 257.719 540.548 265.839C540.63 265.979 540.721 266.114 540.82 266.243L566.312 299.699C566.832 300.383 567.512 300.911 568.28 301.251Z" fill="url(#paint4_radial_108_134)"/>
<path d="M568.28 301.251L572.592 289.951L567.624 265.543L563.592 250.231C563.232 250.483 552.54 257.719 540.548 265.839C540.63 265.979 540.721 266.114 540.82 266.243L566.312 299.699C566.832 300.383 567.512 300.911 568.28 301.251Z" fill="url(#paint5_linear_108_134)"/>
<g filter="url(#filter1_f_108_134)">
<path d="M563.624 250.296V222.536C563.624 222.402 563.651 222.27 563.702 222.147C563.754 222.024 563.83 221.913 563.925 221.82C564.021 221.727 564.134 221.654 564.258 221.605C564.382 221.556 564.515 221.532 564.648 221.536L591.688 222.108L603.876 241.92L567.748 266.172L563.624 250.296Z" fill="url(#paint6_linear_108_134)"/>
</g>
<g filter="url(#filter2_f_108_134)">
<path d="M615.892 200.535L591.688 222.171L603.876 241.919H632.124C631.797 241.8 631.5 241.611 631.254 241.365C631.007 241.119 630.817 240.822 630.696 240.495L616.296 201.403C616.185 201.104 616.05 200.814 615.892 200.535Z" fill="url(#paint7_linear_108_134)"/>
<path d="M615.892 200.535L591.688 222.171L603.876 241.919H632.124C631.797 241.8 631.5 241.611 631.254 241.365C631.007 241.119 630.817 240.822 630.696 240.495L616.296 201.403C616.185 201.104 616.05 200.814 615.892 200.535Z" fill="url(#paint8_linear_108_134)"/>
<path d="M615.892 200.535L591.688 222.171L603.876 241.919H632.124C631.797 241.8 631.5 241.611 631.254 241.365C631.007 241.119 630.817 240.822 630.696 240.495L616.296 201.403C616.185 201.104 616.05 200.814 615.892 200.535Z" fill="url(#paint9_linear_108_134)"/>
</g>
<path fill-rule="evenodd" clip-rule="evenodd" d="M632.643 241.955C632.511 241.992 632.388 242.056 632.281 242.143C632.175 242.229 632.087 242.337 632.025 242.459C631.961 242.581 631.924 242.715 631.915 242.852C631.906 242.989 631.925 243.126 631.971 243.255L639.999 265.919L646.683 267.731L650.767 255.811C651.362 254.073 651.25 252.171 650.456 250.516C649.661 248.86 648.247 247.582 646.519 246.959L632.643 241.955Z" fill="url(#paint10_radial_108_134)"/>
<path fill-rule="evenodd" clip-rule="evenodd" d="M632.643 241.955C632.511 241.992 632.388 242.056 632.281 242.143C632.175 242.229 632.087 242.337 632.025 242.459C631.961 242.581 631.924 242.715 631.915 242.852C631.906 242.989 631.925 243.126 631.971 243.255L639.999 265.919L646.683 267.731L650.767 255.811C651.362 254.073 651.25 252.171 650.456 250.516C649.661 248.86 648.247 247.582 646.519 246.959L632.643 241.955Z" fill="url(#paint11_linear_108_134)"/>
<path d="M639.98 265.859L631.412 289.943L634.664 299.943C635.568 299.155 636.276 298.127 636.684 296.939L646.684 267.731L640 265.919L639.98 265.859Z" fill="url(#paint12_linear_108_134)"/>
<g filter="url(#filter3_f_108_134)">
<path d="M634.68 299.571L631.76 290.047H572.5L568.264 300.835C568.896 301.103 569.584 301.247 570.288 301.247H630.06C631.804 301.247 633.432 300.631 634.68 299.571Z" fill="url(#paint13_linear_108_134)"/>
</g>
<g filter="url(#filter4_f_108_134)">
<path d="M591.624 221.919L614 201.043" stroke="url(#paint14_linear_108_134)" stroke-width="0.2" stroke-linecap="round"/>
</g>
<g filter="url(#filter5_f_108_134)">
<path d="M572.564 290.046L567.752 266.23L603.752 241.918H631.376L640 265.794L631.376 290.046H572.564Z" fill="url(#paint15_linear_108_134)"/>
</g>
<g filter="url(#filter6_iiii_108_134)">
<path d="M721.504 239.172C720.754 238.422 719.737 238.001 718.676 238H665.6C664.115 238 662.69 238.59 661.64 239.641C660.59 240.691 660 242.115 660 243.6V344.056C660 345.541 660.59 346.966 661.64 348.016C662.69 349.066 664.115 349.656 665.6 349.656H742.088C743.573 349.656 744.998 349.066 746.048 348.016C747.098 346.966 747.688 345.541 747.688 344.056V267.016C747.688 266.49 747.585 265.969 747.384 265.483C747.183 264.997 746.888 264.556 746.516 264.184L721.504 239.172Z" fill="url(#paint16_linear_108_134)"/>
</g>
<g filter="url(#filter7_f_108_134)">
<path d="M718.848 239.656C718.848 238.852 719.08 238.336 718.64 238.248C719.056 238.276 719.664 238.428 720.048 238.58C720.54 238.772 719.928 239.2 720.316 239.576L720.352 239.608L745.364 264.62C745.736 264.992 746.03 265.433 746.232 265.919C746.433 266.405 746.536 266.926 746.536 267.452V267.704C746.536 266.776 745.864 266.22 745.364 266.22H723.648C722.375 266.22 721.154 265.715 720.254 264.814C719.353 263.914 718.848 262.693 718.848 261.42V239.656Z" fill="#D2C5DF"/>
</g>
<g filter="url(#filter8_ii_108_134)">
<path d="M720.003 239.22C720.003 238.412 719.367 238.096 718.927 238.008C719.899 238.069 720.815 238.481 721.503 239.168L746.515 264.184C746.963 264.633 747.297 265.181 747.491 265.784C747.621 266.181 747.687 266.595 747.688 267.012V267.264C747.688 266.336 747.015 265.784 746.515 265.784H724.799C724.169 265.784 723.545 265.66 722.963 265.419C722.38 265.178 721.851 264.824 721.405 264.378C720.96 263.933 720.606 263.404 720.365 262.821C720.124 262.239 719.999 261.614 719.999 260.984L720.003 239.22Z" fill="url(#paint17_linear_108_134)"/>
</g>
<path d="M720.003 239.22C720.003 238.412 719.367 238.096 718.927 238.008C719.899 238.069 720.815 238.481 721.503 239.168L746.515 264.184C746.963 264.633 747.297 265.181 747.491 265.784C747.621 266.181 747.687 266.595 747.688 267.012V267.264C747.688 266.336 747.015 265.784 746.515 265.784H724.799C724.169 265.784 723.545 265.66 722.963 265.419C722.38 265.178 721.851 264.824 721.405 264.378C720.96 263.933 720.606 263.404 720.365 262.821C720.124 262.239 719.999 261.614 719.999 260.984L720.003 239.22Z" fill="url(#paint18_linear_108_134)"/>
<path d="M729.672 277.813H677.984C676.888 277.813 676 278.701 676 279.797C676 280.893 676.888 281.781 677.984 281.781H729.672C730.768 281.781 731.656 280.893 731.656 279.797C731.656 278.701 730.768 277.813 729.672 277.813Z" fill="url(#paint19_linear_108_134)"/>
<path d="M729.672 289.812H677.984C676.888 289.812 676 290.701 676 291.797C676 292.893 676.888 293.781 677.984 293.781H729.672C730.768 293.781 731.656 292.893 731.656 291.797C731.656 290.701 730.768 289.812 729.672 289.812Z" fill="url(#paint20_linear_108_134)"/>
<path d="M729.672 301.812H677.984C676.888 301.812 676 302.701 676 303.797C676 304.893 676.888 305.781 677.984 305.781H729.672C730.768 305.781 731.656 304.893 731.656 303.797C731.656 302.701 730.768 301.812 729.672 301.812Z" fill="url(#paint21_linear_108_134)"/>
<path d="M709.952 313.813H677.984C676.888 313.813 676 314.701 676 315.797C676 316.893 676.888 317.781 677.984 317.781H709.952C711.048 317.781 711.936 316.893 711.936 315.797C711.936 314.701 711.048 313.813 709.952 313.813Z" fill="url(#paint22_linear_108_134)"/>
<g filter="url(#filter9_i_108_134)">
<path d="M762.393 300.641L825.448 237.477L812.729 224.737L759.493 278.023C756.885 280.638 755.42 284.183 755.42 287.879C755.42 291.576 756.885 295.121 759.493 297.736L762.393 300.641Z" fill="url(#paint23_linear_108_134)"/>
<path d="M762.393 300.641L825.448 237.477L812.729 224.737L759.493 278.023C756.885 280.638 755.42 284.183 755.42 287.879C755.42 291.576 756.885 295.121 759.493 297.736L762.393 300.641Z" fill="url(#paint24_linear_108_134)"/>
</g>
<g filter="url(#filter10_i_108_134)">
<path d="M802.878 234.04C802.722 234.194 802.598 234.377 802.514 234.579C802.429 234.781 802.384 234.998 802.384 235.217C802.383 235.437 802.426 235.653 802.509 235.856C802.592 236.059 802.715 236.243 802.87 236.398L814.507 248.055C814.662 248.21 814.846 248.332 815.048 248.415C815.251 248.499 815.468 248.541 815.686 248.54C815.905 248.539 816.122 248.494 816.323 248.409C816.524 248.323 816.707 248.199 816.86 248.043L821.562 243.241C821.811 242.995 822.127 242.829 822.471 242.765C822.814 242.701 823.169 242.743 823.489 242.884C840.214 249.997 860 234.609 860 217.058C860 202.118 847.986 190 833.072 190C818.157 190 806.06 202.118 806.06 217.058C806.06 220.781 806.731 224.143 808.094 227.309C808.235 227.628 808.277 227.982 808.215 228.325C808.153 228.669 807.99 228.985 807.746 229.235L802.878 234.04ZM820.477 217.058C820.477 210.128 826.111 204.484 833.03 204.484C839.949 204.484 845.583 210.128 845.583 217.058C845.583 223.989 839.949 229.633 833.03 229.633C826.111 229.633 820.477 224.031 820.477 217.058Z" fill="url(#paint25_linear_108_134)"/>
</g>
<g filter="url(#filter11_ii_108_134)">
<path d="M841.688 300.64L778.634 237.476L791.062 224.487L844.257 277.773C849.726 283.251 849.767 292.589 844.34 298.025L841.688 300.64Z" fill="url(#paint26_linear_108_134)"/>
</g>
<g filter="url(#filter12_d_108_134)">
<path d="M801.917 252.667C803.093 252.667 804.22 252.199 805.052 251.366C805.883 250.533 806.35 249.403 806.35 248.226C806.35 247.048 805.883 245.919 805.052 245.086C804.22 244.253 803.093 243.785 801.917 243.785C800.742 243.785 799.614 244.253 798.783 245.086C797.952 245.919 797.484 247.048 797.484 248.226C797.484 249.403 797.952 250.533 798.783 251.366C799.614 252.199 800.742 252.667 801.917 252.667Z" fill="#A79AAC"/>
<path d="M801.917 252.667C803.093 252.667 804.22 252.199 805.052 251.366C805.883 250.533 806.35 249.403 806.35 248.226C806.35 247.048 805.883 245.919 805.052 245.086C804.22 244.253 803.093 243.785 801.917 243.785C800.742 243.785 799.614 244.253 798.783 245.086C797.952 245.919 797.484 247.048 797.484 248.226C797.484 249.403 797.952 250.533 798.783 251.366C799.614 252.199 800.742 252.667 801.917 252.667Z" fill="url(#paint27_radial_108_134)"/>
<path d="M801.917 252.667C803.093 252.667 804.22 252.199 805.052 251.366C805.883 250.533 806.35 249.403 806.35 248.226C806.35 247.048 805.883 245.919 805.052 245.086C804.22 244.253 803.093 243.785 801.917 243.785C800.742 243.785 799.614 244.253 798.783 245.086C797.952 245.919 797.484 247.048 797.484 248.226C797.484 249.403 797.952 250.533 798.783 251.366C799.614 252.199 800.742 252.667 801.917 252.667Z" fill="url(#paint28_radial_108_134)"/>
<path d="M801.917 252.667C803.093 252.667 804.22 252.199 805.052 251.366C805.883 250.533 806.35 249.403 806.35 248.226C806.35 247.048 805.883 245.919 805.052 245.086C804.22 244.253 803.093 243.785 801.917 243.785C800.742 243.785 799.614 244.253 798.783 245.086C797.952 245.919 797.484 247.048 797.484 248.226C797.484 249.403 797.952 250.533 798.783 251.366C799.614 252.199 800.742 252.667 801.917 252.667Z" fill="url(#paint29_radial_108_134)"/>
<path d="M801.917 252.667C803.093 252.667 804.22 252.199 805.052 251.366C805.883 250.533 806.35 249.403 806.35 248.226C806.35 247.048 805.883 245.919 805.052 245.086C804.22 244.253 803.093 243.785 801.917 243.785C800.742 243.785 799.614 244.253 798.783 245.086C797.952 245.919 797.484 247.048 797.484 248.226C797.484 249.403 797.952 250.533 798.783 251.366C799.614 252.199 800.742 252.667 801.917 252.667Z" fill="url(#paint30_radial_108_134)"/>
</g>
<g filter="url(#filter13_i_108_134)">
<path d="M797.058 228.72C796.828 228.48 796.671 228.179 796.606 227.852C796.542 227.526 796.572 227.187 796.693 226.877C804.42 207.032 788.552 190 770.929 190C756.014 190 744 202.118 744 217.058C744 231.999 756.014 244.117 770.929 244.117C774.641 244.117 777.321 244.1 780.337 242.872C780.655 242.739 781.005 242.701 781.344 242.763C781.683 242.824 781.996 242.983 782.247 243.22L787.169 248.084C787.48 248.391 787.899 248.563 788.336 248.563C788.773 248.562 789.192 248.389 789.501 248.08L801.802 235.825C801.956 235.671 802.079 235.487 802.163 235.285C802.246 235.083 802.29 234.867 802.29 234.648C802.29 234.43 802.246 234.213 802.163 234.011C802.079 233.809 801.956 233.626 801.802 233.472L797.058 228.72ZM770.97 229.633C764.052 229.633 758.417 223.989 758.417 217.058C758.417 210.128 764.052 204.484 770.97 204.484C777.889 204.484 783.523 210.128 783.523 217.058C783.523 224.031 777.889 229.633 770.97 229.633Z" fill="url(#paint31_linear_108_134)"/>
</g>
<g filter="url(#filter14_f_108_134)">
<path d="M774.773 236.317C786.06 236.317 795.21 227.152 795.21 215.845C795.21 204.539 786.06 195.373 774.773 195.373C763.486 195.373 754.336 204.539 754.336 215.845C754.336 227.152 763.486 236.317 774.773 236.317Z" stroke="url(#paint32_linear_108_134)" stroke-width="0.75"/>
<path d="M774.773 236.317C786.06 236.317 795.21 227.152 795.21 215.845C795.21 204.539 786.06 195.373 774.773 195.373C763.486 195.373 754.336 204.539 754.336 215.845C754.336 227.152 763.486 236.317 774.773 236.317Z" stroke="url(#paint33_linear_108_134)" stroke-width="0.75"/>
</g>
<g filter="url(#filter15_f_108_134)">
<path d="M837.214 236.681C848.579 235.794 857.075 225.846 856.189 214.462C855.303 203.078 845.373 194.568 834.008 195.455C822.644 196.342 814.149 206.29 815.034 217.674C815.919 229.058 825.85 237.568 837.214 236.681Z" stroke="url(#paint34_linear_108_134)" stroke-width="0.75"/>
<path d="M837.214 236.681C848.579 235.794 857.075 225.846 856.189 214.462C855.303 203.078 845.373 194.568 834.008 195.455C822.644 196.342 814.149 206.29 815.034 217.674C815.919 229.058 825.85 237.568 837.214 236.681Z" stroke="url(#paint35_linear_108_134)" stroke-width="0.75"/>
</g>
<g filter="url(#filter16_f_108_134)">
<path d="M782.615 239.102C784.678 237.745 789.716 233.894 793.354 229.354" stroke="#FF683C" stroke-width="0.75"/>
</g>
<g filter="url(#filter17_f_108_134)">
<path d="M821.489 240.223C819.504 238.75 814.698 234.617 811.326 229.877" stroke="url(#paint36_linear_108_134)" stroke-width="0.75"/>
</g>
</g>
<path d="M340.888 415V368.28H355.352C358.125 368.28 360.557 368.856 362.648 370.008C364.739 371.117 366.36 372.675 367.512 374.68C368.664 376.685 369.24 379.032 369.24 381.72C369.24 384.877 368.408 387.587 366.744 389.848C365.123 392.109 362.904 393.667 360.088 394.52L369.88 415H363.096L354.136 395.16H346.648V415H340.888ZM346.648 389.976H355.352C357.741 389.976 359.661 389.229 361.112 387.736C362.563 386.2 363.288 384.195 363.288 381.72C363.288 379.203 362.563 377.197 361.112 375.704C359.661 374.211 357.741 373.464 355.352 373.464H346.648V389.976ZM392.575 415.512C389.759 415.512 387.327 414.979 385.279 413.912C383.231 412.845 381.631 411.309 380.479 409.304C379.37 407.256 378.815 404.845 378.815 402.072V392.728C378.815 389.912 379.37 387.501 380.479 385.496C381.631 383.491 383.231 381.955 385.279 380.888C387.327 379.821 389.759 379.288 392.575 379.288C395.391 379.288 397.823 379.821 399.871 380.888C401.919 381.955 403.498 383.491 404.607 385.496C405.759 387.501 406.335 389.891 406.335 392.664V402.072C406.335 404.845 405.759 407.256 404.607 409.304C403.498 411.309 401.919 412.845 399.871 413.912C397.823 414.979 395.391 415.512 392.575 415.512ZM392.575 410.392C395.092 410.392 397.055 409.688 398.463 408.28C399.871 406.872 400.575 404.803 400.575 402.072V392.728C400.575 389.997 399.871 387.928 398.463 386.52C397.055 385.112 395.092 384.408 392.575 384.408C390.1 384.408 388.138 385.112 386.687 386.52C385.279 387.928 384.575 389.997 384.575 392.728V402.072C384.575 404.803 385.279 406.872 386.687 408.28C388.138 409.688 390.1 410.392 392.575 410.392ZM431.206 415.64C428.39 415.64 425.915 415.107 423.782 414.04C421.691 412.973 420.07 411.437 418.918 409.432C417.766 407.384 417.19 404.973 417.19 402.2V392.6C417.19 389.784 417.766 387.373 418.918 385.368C420.07 383.363 421.691 381.827 423.782 380.76C425.915 379.693 428.39 379.16 431.206 379.16C435.259 379.16 438.523 380.248 440.998 382.424C443.473 384.6 444.774 387.565 444.902 391.32H439.142C439.014 389.059 438.246 387.331 436.838 386.136C435.473 384.899 433.595 384.28 431.206 384.28C428.689 384.28 426.683 385.005 425.19 386.456C423.697 387.864 422.95 389.891 422.95 392.536V402.2C422.95 404.845 423.697 406.893 425.19 408.344C426.683 409.795 428.689 410.52 431.206 410.52C433.595 410.52 435.473 409.901 436.838 408.664C438.246 407.427 439.014 405.699 439.142 403.48H444.902C444.774 407.235 443.473 410.2 440.998 412.376C438.523 414.552 435.259 415.64 431.206 415.64ZM456.205 415V368.28H461.965V394.328H468.749L478.989 379.8H485.581L473.741 396.568L485.773 415H479.053L468.813 399.32H461.965V415H456.205ZM497.46 396.44V391.32H517.94V396.44H497.46ZM532.763 415V368.28H547.803C550.704 368.28 553.222 368.856 555.355 370.008C557.488 371.117 559.131 372.696 560.283 374.744C561.478 376.792 562.075 379.224 562.075 382.04C562.075 384.813 561.478 387.245 560.283 389.336C559.131 391.384 557.488 392.984 555.355 394.136C553.222 395.245 550.704 395.8 547.803 395.8H538.523V415H532.763ZM538.523 390.616H547.803C550.32 390.616 552.326 389.848 553.819 388.312C555.355 386.733 556.123 384.643 556.123 382.04C556.123 379.395 555.355 377.304 553.819 375.768C552.326 374.232 550.32 373.464 547.803 373.464H538.523V390.616ZM581.378 415.64C577.666 415.64 574.743 414.701 572.61 412.824C570.477 410.904 569.41 408.323 569.41 405.08C569.41 401.795 570.477 399.213 572.61 397.336C574.743 395.459 577.623 394.52 581.25 394.52H592.13V391C592.13 388.824 591.469 387.16 590.146 386.008C588.866 384.813 587.031 384.216 584.642 384.216C582.551 384.216 580.802 384.664 579.394 385.56C577.986 386.413 577.175 387.587 576.962 389.08H571.202C571.586 386.051 573.015 383.64 575.49 381.848C577.965 380.056 581.058 379.16 584.77 379.16C588.823 379.16 592.023 380.205 594.37 382.296C596.717 384.387 597.89 387.224 597.89 390.808V415H592.258V408.28H591.298L592.258 407.32C592.258 409.88 591.255 411.907 589.25 413.4C587.287 414.893 584.663 415.64 581.378 415.64ZM582.786 411.096C585.517 411.096 587.757 410.413 589.506 409.048C591.255 407.683 592.13 405.933 592.13 403.8V398.808H581.378C579.458 398.808 577.943 399.341 576.834 400.408C575.725 401.475 575.17 402.925 575.17 404.76C575.17 406.723 575.831 408.28 577.154 409.432C578.519 410.541 580.397 411.096 582.786 411.096ZM609.513 426.52V379.8H615.273V386.52H616.425L615.273 387.864C615.273 385.176 616.148 383.064 617.897 381.528C619.689 379.949 622.036 379.16 624.937 379.16C628.478 379.16 631.294 380.333 633.385 382.68C635.518 384.984 636.585 388.163 636.585 392.216V402.52C636.585 405.208 636.094 407.533 635.113 409.496C634.174 411.459 632.83 412.973 631.081 414.04C629.374 415.107 627.326 415.64 624.937 415.64C622.078 415.64 619.753 414.851 617.961 413.272C616.169 411.693 615.273 409.581 615.273 406.936L616.425 408.28H615.145L615.273 416.28V426.52H609.513ZM623.017 410.648C625.449 410.648 627.348 409.923 628.713 408.472C630.121 407.021 630.825 404.931 630.825 402.2V392.6C630.825 389.869 630.121 387.779 628.713 386.328C627.348 384.877 625.449 384.152 623.017 384.152C620.67 384.152 618.793 384.899 617.385 386.392C615.977 387.885 615.273 389.955 615.273 392.6V402.2C615.273 404.845 615.977 406.915 617.385 408.408C618.793 409.901 620.67 410.648 623.017 410.648ZM661.2 415.64C658.427 415.64 655.995 415.085 653.904 413.976C651.856 412.867 650.256 411.309 649.104 409.304C647.995 407.256 647.44 404.888 647.44 402.2V392.6C647.44 389.869 647.995 387.501 649.104 385.496C650.256 383.491 651.856 381.933 653.904 380.824C655.995 379.715 658.427 379.16 661.2 379.16C663.973 379.16 666.384 379.715 668.432 380.824C670.523 381.933 672.123 383.491 673.232 385.496C674.384 387.501 674.96 389.869 674.96 392.6V398.808H653.072V402.2C653.072 404.973 653.776 407.107 655.184 408.6C656.592 410.051 658.597 410.776 661.2 410.776C663.419 410.776 665.211 410.392 666.576 409.624C667.941 408.813 668.773 407.619 669.072 406.04H674.832C674.448 408.984 672.997 411.331 670.48 413.08C668.005 414.787 664.912 415.64 661.2 415.64ZM669.328 394.968V392.6C669.328 389.827 668.624 387.693 667.216 386.2C665.851 384.707 663.845 383.96 661.2 383.96C658.597 383.96 656.592 384.707 655.184 386.2C653.776 387.693 653.072 389.827 653.072 392.6V394.456H669.776L669.328 394.968ZM687.479 415V379.8H693.111V386.52H694.455L692.599 390.68C692.599 386.883 693.41 384.024 695.031 382.104C696.695 380.141 699.148 379.16 702.391 379.16C706.103 379.16 709.047 380.333 711.223 382.68C713.442 384.984 714.551 388.12 714.551 392.088V394.2H708.791V392.6C708.791 389.827 708.108 387.715 706.743 386.264C705.42 384.771 703.522 384.024 701.047 384.024C698.615 384.024 696.695 384.771 695.287 386.264C693.922 387.757 693.239 389.869 693.239 392.6V415H687.479ZM727.71 396.44V391.32H748.19V396.44H727.71ZM776.581 415.64C773.509 415.64 770.864 415.128 768.645 414.104C766.469 413.08 764.784 411.608 763.589 409.688C762.394 407.768 761.776 405.485 761.733 402.84H767.493C767.493 405.187 768.282 407.043 769.861 408.408C771.482 409.773 773.722 410.456 776.581 410.456C779.269 410.456 781.36 409.795 782.853 408.472C784.389 407.149 785.157 405.315 785.157 402.968C785.157 401.091 784.645 399.448 783.621 398.04C782.64 396.632 781.21 395.651 779.333 395.096L772.997 393.112C769.797 392.131 767.322 390.488 765.573 388.184C763.866 385.88 763.013 383.171 763.013 380.056C763.013 377.539 763.568 375.363 764.677 373.528C765.829 371.651 767.429 370.2 769.477 369.176C771.525 368.109 773.936 367.576 776.709 367.576C780.805 367.576 784.09 368.728 786.565 371.032C789.04 373.293 790.298 376.323 790.341 380.12H784.581C784.581 377.816 783.877 376.024 782.469 374.744C781.104 373.421 779.162 372.76 776.645 372.76C774.17 372.76 772.229 373.357 770.821 374.552C769.456 375.747 768.773 377.411 768.773 379.544C768.773 381.464 769.285 383.128 770.309 384.536C771.333 385.944 772.805 386.947 774.725 387.544L781.125 389.592C784.24 390.573 786.65 392.237 788.357 394.584C790.064 396.931 790.917 399.683 790.917 402.84C790.917 405.4 790.32 407.64 789.125 409.56C787.93 411.48 786.245 412.973 784.069 414.04C781.936 415.107 779.44 415.64 776.581 415.64ZM814.956 415.64C812.14 415.64 809.665 415.107 807.532 414.04C805.441 412.973 803.82 411.437 802.668 409.432C801.516 407.384 800.94 404.973 800.94 402.2V392.6C800.94 389.784 801.516 387.373 802.668 385.368C803.82 383.363 805.441 381.827 807.532 380.76C809.665 379.693 812.14 379.16 814.956 379.16C819.009 379.16 822.273 380.248 824.748 382.424C827.223 384.6 828.524 387.565 828.652 391.32H822.892C822.764 389.059 821.996 387.331 820.588 386.136C819.223 384.899 817.345 384.28 814.956 384.28C812.439 384.28 810.433 385.005 808.94 386.456C807.447 387.864 806.7 389.891 806.7 392.536V402.2C806.7 404.845 807.447 406.893 808.94 408.344C810.433 409.795 812.439 410.52 814.956 410.52C817.345 410.52 819.223 409.901 820.588 408.664C821.996 407.427 822.764 405.699 822.892 403.48H828.652C828.524 407.235 827.223 410.2 824.748 412.376C822.273 414.552 819.009 415.64 814.956 415.64ZM839.315 415V409.752H851.795V385.048H840.915V379.8H857.555V409.752H869.395V415H839.315ZM854.035 373.464C852.627 373.464 851.518 373.101 850.707 372.376C849.896 371.651 849.491 370.669 849.491 369.432C849.491 368.152 849.896 367.149 850.707 366.424C851.518 365.656 852.627 365.272 854.035 365.272C855.443 365.272 856.552 365.656 857.363 366.424C858.174 367.149 858.579 368.152 858.579 369.432C858.579 370.669 858.174 371.651 857.363 372.376C856.552 373.101 855.443 373.464 854.035 373.464ZM890.362 415.512C887.973 415.512 885.882 415.149 884.09 414.424C882.341 413.656 880.933 412.589 879.866 411.224C878.842 409.859 878.223 408.237 878.01 406.36H883.77C884.026 407.597 884.709 408.579 885.818 409.304C886.97 410.029 888.485 410.392 890.362 410.392H893.05C895.311 410.392 896.997 409.944 898.106 409.048C899.215 408.109 899.77 406.872 899.77 405.336C899.77 403.843 899.258 402.669 898.234 401.816C897.253 400.92 895.781 400.323 893.818 400.024L889.082 399.256C885.626 398.659 883.045 397.592 881.338 396.056C879.674 394.477 878.842 392.195 878.842 389.208C878.842 386.051 879.845 383.619 881.85 381.912C883.855 380.163 886.863 379.288 890.874 379.288H893.306C896.677 379.288 899.386 380.077 901.434 381.656C903.482 383.235 904.719 385.368 905.146 388.056H899.386C899.13 386.947 898.49 386.072 897.466 385.432C896.442 384.749 895.055 384.408 893.306 384.408H890.874C888.698 384.408 887.098 384.813 886.074 385.624C885.093 386.435 884.602 387.651 884.602 389.272C884.602 390.723 885.029 391.789 885.882 392.472C886.735 393.155 888.079 393.645 889.914 393.944L894.65 394.712C898.447 395.309 901.199 396.419 902.906 398.04C904.655 399.661 905.53 402.008 905.53 405.08C905.53 408.323 904.485 410.883 902.394 412.76C900.346 414.595 897.231 415.512 893.05 415.512H890.362ZM928.737 415.512C926.348 415.512 924.257 415.149 922.465 414.424C920.716 413.656 919.308 412.589 918.241 411.224C917.217 409.859 916.598 408.237 916.385 406.36H922.145C922.401 407.597 923.084 408.579 924.193 409.304C925.345 410.029 926.86 410.392 928.737 410.392H931.425C933.686 410.392 935.372 409.944 936.481 409.048C937.59 408.109 938.145 406.872 938.145 405.336C938.145 403.843 937.633 402.669 936.609 401.816C935.628 400.92 934.156 400.323 932.193 400.024L927.457 399.256C924.001 398.659 921.42 397.592 919.713 396.056C918.049 394.477 917.217 392.195 917.217 389.208C917.217 386.051 918.22 383.619 920.225 381.912C922.23 380.163 925.238 379.288 929.249 379.288H931.681C935.052 379.288 937.761 380.077 939.809 381.656C941.857 383.235 943.094 385.368 943.521 388.056H937.761C937.505 386.947 936.865 386.072 935.841 385.432C934.817 384.749 933.43 384.408 931.681 384.408H929.249C927.073 384.408 925.473 384.813 924.449 385.624C923.468 386.435 922.977 387.651 922.977 389.272C922.977 390.723 923.404 391.789 924.257 392.472C925.11 393.155 926.454 393.645 928.289 393.944L933.025 394.712C936.822 395.309 939.574 396.419 941.281 398.04C943.03 399.661 943.905 402.008 943.905 405.08C943.905 408.323 942.86 410.883 940.769 412.76C938.721 414.595 935.606 415.512 931.425 415.512H928.737ZM968.2 415.512C965.384 415.512 962.952 414.979 960.904 413.912C958.856 412.845 957.256 411.309 956.104 409.304C954.995 407.256 954.44 404.845 954.44 402.072V392.728C954.44 389.912 954.995 387.501 956.104 385.496C957.256 383.491 958.856 381.955 960.904 380.888C962.952 379.821 965.384 379.288 968.2 379.288C971.016 379.288 973.448 379.821 975.496 380.888C977.544 381.955 979.123 383.491 980.232 385.496C981.384 387.501 981.96 389.891 981.96 392.664V402.072C981.96 404.845 981.384 407.256 980.232 409.304C979.123 411.309 977.544 412.845 975.496 413.912C973.448 414.979 971.016 415.512 968.2 415.512ZM968.2 410.392C970.717 410.392 972.68 409.688 974.088 408.28C975.496 406.872 976.2 404.803 976.2 402.072V392.728C976.2 389.997 975.496 387.928 974.088 386.52C972.68 385.112 970.717 384.408 968.2 384.408C965.725 384.408 963.763 385.112 962.312 386.52C960.904 387.928 960.2 389.997 960.2 392.728V402.072C960.2 404.803 960.904 406.872 962.312 408.28C963.763 409.688 965.725 410.392 968.2 410.392ZM994.479 415V379.8H1000.11V386.52H1001.46L999.599 390.68C999.599 386.883 1000.41 384.024 1002.03 382.104C1003.7 380.141 1006.15 379.16 1009.39 379.16C1013.1 379.16 1016.05 380.333 1018.22 382.68C1020.44 384.984 1021.55 388.12 1021.55 392.088V394.2H1015.79V392.6C1015.79 389.827 1015.11 387.715 1013.74 386.264C1012.42 384.771 1010.52 384.024 1008.05 384.024C1005.62 384.024 1003.7 384.771 1002.29 386.264C1000.92 387.757 1000.24 389.869 1000.24 392.6V415H994.479ZM1043.86 415.512C1041.47 415.512 1039.38 415.149 1037.59 414.424C1035.84 413.656 1034.43 412.589 1033.37 411.224C1032.34 409.859 1031.72 408.237 1031.51 406.36H1037.27C1037.53 407.597 1038.21 408.579 1039.32 409.304C1040.47 410.029 1041.98 410.392 1043.86 410.392H1046.55C1048.81 410.392 1050.5 409.944 1051.61 409.048C1052.72 408.109 1053.27 406.872 1053.27 405.336C1053.27 403.843 1052.76 402.669 1051.73 401.816C1050.75 400.92 1049.28 400.323 1047.32 400.024L1042.58 399.256C1039.13 398.659 1036.54 397.592 1034.84 396.056C1033.17 394.477 1032.34 392.195 1032.34 389.208C1032.34 386.051 1033.34 383.619 1035.35 381.912C1037.36 380.163 1040.36 379.288 1044.37 379.288H1046.81C1050.18 379.288 1052.89 380.077 1054.93 381.656C1056.98 383.235 1058.22 385.368 1058.65 388.056H1052.89C1052.63 386.947 1051.99 386.072 1050.97 385.432C1049.94 384.749 1048.56 384.408 1046.81 384.408H1044.37C1042.2 384.408 1040.6 384.813 1039.57 385.624C1038.59 386.435 1038.1 387.651 1038.1 389.272C1038.1 390.723 1038.53 391.789 1039.38 392.472C1040.24 393.155 1041.58 393.645 1043.41 393.944L1048.15 394.712C1051.95 395.309 1054.7 396.419 1056.41 398.04C1058.16 399.661 1059.03 402.008 1059.03 405.08C1059.03 408.323 1057.98 410.883 1055.89 412.76C1053.85 414.595 1050.73 415.512 1046.55 415.512H1043.86Z" fill="white"/>
<path d="M527.296 459.24C526.24 459.24 525.312 459.04 524.512 458.64C523.728 458.24 523.12 457.664 522.688 456.912C522.256 456.144 522.04 455.24 522.04 454.2V450.6C522.04 449.544 522.256 448.64 522.688 447.888C523.12 447.136 523.728 446.56 524.512 446.16C525.312 445.76 526.24 445.56 527.296 445.56C528.816 445.56 530.04 445.968 530.968 446.784C531.896 447.6 532.384 448.712 532.432 450.12H530.272C530.224 449.272 529.936 448.624 529.408 448.176C528.896 447.712 528.192 447.48 527.296 447.48C526.352 447.48 525.6 447.752 525.04 448.296C524.48 448.824 524.2 449.584 524.2 450.576V454.2C524.2 455.192 524.48 455.96 525.04 456.504C525.6 457.048 526.352 457.32 527.296 457.32C528.192 457.32 528.896 457.088 529.408 456.624C529.936 456.16 530.224 455.512 530.272 454.68H532.432C532.384 456.088 531.896 457.2 530.968 458.016C530.04 458.832 528.816 459.24 527.296 459.24ZM543.391 459C542.623 459 541.951 458.848 541.375 458.544C540.799 458.24 540.351 457.808 540.031 457.248C539.711 456.688 539.551 456.032 539.551 455.28V443.448H535.111V441.48H541.711V455.28C541.711 455.824 541.863 456.256 542.167 456.576C542.471 456.88 542.879 457.032 543.391 457.032H547.591V459H543.391ZM550.821 459V457.032H555.501V447.768H551.421V445.8H557.661V457.032H562.101V459H550.821ZM556.341 443.424C555.813 443.424 555.397 443.288 555.093 443.016C554.789 442.744 554.637 442.376 554.637 441.912C554.637 441.432 554.789 441.056 555.093 440.784C555.397 440.496 555.813 440.352 556.341 440.352C556.869 440.352 557.285 440.496 557.589 440.784C557.893 441.056 558.045 441.432 558.045 441.912C558.045 442.376 557.893 442.744 557.589 443.016C557.285 443.288 556.869 443.424 556.341 443.424ZM570.372 459.24C569.332 459.24 568.42 459.032 567.636 458.616C566.868 458.2 566.268 457.616 565.836 456.864C565.42 456.096 565.212 455.208 565.212 454.2V450.6C565.212 449.576 565.42 448.688 565.836 447.936C566.268 447.184 566.868 446.6 567.636 446.184C568.42 445.768 569.332 445.56 570.372 445.56C571.412 445.56 572.316 445.768 573.084 446.184C573.868 446.6 574.468 447.184 574.884 447.936C575.316 448.688 575.532 449.576 575.532 450.6V452.928H567.324V454.2C567.324 455.24 567.588 456.04 568.116 456.6C568.644 457.144 569.396 457.416 570.372 457.416C571.204 457.416 571.876 457.272 572.388 456.984C572.9 456.68 573.212 456.232 573.324 455.64H575.484C575.34 456.744 574.796 457.624 573.852 458.28C572.924 458.92 571.764 459.24 570.372 459.24ZM573.42 451.488V450.6C573.42 449.56 573.156 448.76 572.628 448.2C572.116 447.64 571.364 447.36 570.372 447.36C569.396 447.36 568.644 447.64 568.116 448.2C567.588 448.76 567.324 449.56 567.324 450.6V451.296H573.588L573.42 451.488ZM579.771 459V445.8H581.931V448.32H582.387L581.931 448.824C581.931 447.784 582.243 446.984 582.867 446.424C583.491 445.848 584.355 445.56 585.459 445.56C586.787 445.56 587.843 445.968 588.627 446.784C589.411 447.6 589.803 448.712 589.803 450.12V459H587.643V450.36C587.643 449.416 587.387 448.696 586.875 448.2C586.379 447.688 585.699 447.432 584.835 447.432C583.939 447.432 583.227 447.704 582.699 448.248C582.187 448.792 581.931 449.576 581.931 450.6V459H579.771ZM600.593 459C599.457 459 598.569 458.696 597.929 458.088C597.305 457.48 596.993 456.624 596.993 455.52V447.768H593.273V445.8H596.993V442.08H599.153V445.8H604.433V447.768H599.153V455.52C599.153 456.528 599.633 457.032 600.593 457.032H604.193V459H600.593ZM609.704 452.04V450.12H617.384V452.04H609.704ZM627.526 459.192C626.63 459.192 625.846 459.056 625.174 458.784C624.518 458.496 623.99 458.096 623.59 457.584C623.206 457.072 622.974 456.464 622.894 455.76H625.054C625.15 456.224 625.406 456.592 625.822 456.864C626.254 457.136 626.822 457.272 627.526 457.272H628.534C629.382 457.272 630.014 457.104 630.43 456.768C630.846 456.416 631.054 455.952 631.054 455.376C631.054 454.816 630.862 454.376 630.478 454.056C630.11 453.72 629.558 453.496 628.822 453.384L627.046 453.096C625.75 452.872 624.782 452.472 624.142 451.896C623.518 451.304 623.206 450.448 623.206 449.328C623.206 448.144 623.582 447.232 624.334 446.592C625.086 445.936 626.214 445.608 627.718 445.608H628.63C629.894 445.608 630.91 445.904 631.678 446.496C632.446 447.088 632.91 447.888 633.07 448.896H630.91C630.814 448.48 630.574 448.152 630.19 447.912C629.806 447.656 629.286 447.528 628.63 447.528H627.718C626.902 447.528 626.302 447.68 625.918 447.984C625.55 448.288 625.366 448.744 625.366 449.352C625.366 449.896 625.526 450.296 625.846 450.552C626.166 450.808 626.67 450.992 627.358 451.104L629.134 451.392C630.558 451.616 631.59 452.032 632.23 452.64C632.886 453.248 633.214 454.128 633.214 455.28C633.214 456.496 632.822 457.456 632.038 458.16C631.27 458.848 630.102 459.192 628.534 459.192H627.526ZM642.325 459.24C641.285 459.24 640.373 459.032 639.589 458.616C638.821 458.2 638.221 457.616 637.789 456.864C637.373 456.096 637.165 455.208 637.165 454.2V450.6C637.165 449.576 637.373 448.688 637.789 447.936C638.221 447.184 638.821 446.6 639.589 446.184C640.373 445.768 641.285 445.56 642.325 445.56C643.365 445.56 644.269 445.768 645.037 446.184C645.821 446.6 646.421 447.184 646.837 447.936C647.269 448.688 647.485 449.576 647.485 450.6V452.928H639.277V454.2C639.277 455.24 639.541 456.04 640.069 456.6C640.597 457.144 641.349 457.416 642.325 457.416C643.157 457.416 643.829 457.272 644.341 456.984C644.853 456.68 645.165 456.232 645.277 455.64H647.437C647.293 456.744 646.749 457.624 645.805 458.28C644.877 458.92 643.717 459.24 642.325 459.24ZM645.373 451.488V450.6C645.373 449.56 645.109 448.76 644.581 448.2C644.069 447.64 643.317 447.36 642.325 447.36C641.349 447.36 640.597 447.64 640.069 448.2C639.541 448.76 639.277 449.56 639.277 450.6V451.296H645.541L645.373 451.488ZM652.18 459V445.8H654.292V448.32H654.796L654.1 449.88C654.1 448.456 654.404 447.384 655.012 446.664C655.636 445.928 656.556 445.56 657.772 445.56C659.164 445.56 660.268 446 661.084 446.88C661.916 447.744 662.332 448.92 662.332 450.408V451.2H660.172V450.6C660.172 449.56 659.916 448.768 659.404 448.224C658.908 447.664 658.196 447.384 657.268 447.384C656.356 447.384 655.636 447.664 655.108 448.224C654.596 448.784 654.34 449.576 654.34 450.6V459H652.18ZM669.642 459L665.226 445.8H667.434L670.362 454.68C670.538 455.208 670.698 455.72 670.842 456.216C670.986 456.696 671.09 457.072 671.154 457.344C671.234 457.072 671.346 456.696 671.49 456.216C671.634 455.72 671.786 455.208 671.946 454.68L674.802 445.8H676.986L672.57 459H669.642ZM685.497 459.24C684.457 459.24 683.545 459.032 682.761 458.616C681.993 458.2 681.393 457.616 680.961 456.864C680.545 456.096 680.337 455.208 680.337 454.2V450.6C680.337 449.576 680.545 448.688 680.961 447.936C681.393 447.184 681.993 446.6 682.761 446.184C683.545 445.768 684.457 445.56 685.497 445.56C686.537 445.56 687.441 445.768 688.209 446.184C688.993 446.6 689.593 447.184 690.009 447.936C690.441 448.688 690.657 449.576 690.657 450.6V452.928H682.449V454.2C682.449 455.24 682.713 456.04 683.241 456.6C683.769 457.144 684.521 457.416 685.497 457.416C686.329 457.416 687.001 457.272 687.513 456.984C688.025 456.68 688.337 456.232 688.449 455.64H690.609C690.465 456.744 689.921 457.624 688.977 458.28C688.049 458.92 686.889 459.24 685.497 459.24ZM688.545 451.488V450.6C688.545 449.56 688.281 448.76 687.753 448.2C687.241 447.64 686.489 447.36 685.497 447.36C684.521 447.36 683.769 447.64 683.241 448.2C682.713 448.76 682.449 449.56 682.449 450.6V451.296H688.713L688.545 451.488ZM695.352 459V445.8H697.464V448.32H697.968L697.272 449.88C697.272 448.456 697.576 447.384 698.184 446.664C698.808 445.928 699.728 445.56 700.944 445.56C702.336 445.56 703.44 446 704.256 446.88C705.088 447.744 705.504 448.92 705.504 450.408V451.2H703.344V450.6C703.344 449.56 703.088 448.768 702.576 448.224C702.08 447.664 701.368 447.384 700.44 447.384C699.528 447.384 698.808 447.664 698.28 448.224C697.768 448.784 697.512 449.576 697.512 450.6V459H695.352ZM727.517 459.24C726.125 459.24 725.029 458.888 724.229 458.184C723.429 457.464 723.029 456.496 723.029 455.28C723.029 454.048 723.429 453.08 724.229 452.376C725.029 451.672 726.109 451.32 727.469 451.32H731.549V450C731.549 449.184 731.301 448.56 730.805 448.128C730.325 447.68 729.637 447.456 728.741 447.456C727.957 447.456 727.301 447.624 726.773 447.96C726.245 448.28 725.941 448.72 725.861 449.28H723.701C723.845 448.144 724.381 447.24 725.309 446.568C726.237 445.896 727.397 445.56 728.789 445.56C730.309 445.56 731.509 445.952 732.389 446.736C733.269 447.52 733.709 448.584 733.709 449.928V459H731.597V456.48H731.237L731.597 456.12C731.597 457.08 731.221 457.84 730.469 458.4C729.733 458.96 728.749 459.24 727.517 459.24ZM728.045 457.536C729.069 457.536 729.909 457.28 730.565 456.768C731.221 456.256 731.549 455.6 731.549 454.8V452.928H727.517C726.797 452.928 726.229 453.128 725.813 453.528C725.397 453.928 725.189 454.472 725.189 455.16C725.189 455.896 725.437 456.48 725.933 456.912C726.445 457.328 727.149 457.536 728.045 457.536ZM738.067 463.32V445.8H740.227V448.32H740.659L740.227 448.824C740.227 447.816 740.555 447.024 741.211 446.448C741.883 445.856 742.763 445.56 743.851 445.56C745.179 445.56 746.235 446 747.019 446.88C747.819 447.744 748.219 448.936 748.219 450.456V454.32C748.219 455.328 748.035 456.2 747.667 456.936C747.315 457.672 746.811 458.24 746.155 458.64C745.515 459.04 744.747 459.24 743.851 459.24C742.779 459.24 741.907 458.944 741.235 458.352C740.563 457.76 740.227 456.968 740.227 455.976L740.659 456.48H740.179L740.227 459.48V463.32H738.067ZM743.131 457.368C744.043 457.368 744.755 457.096 745.267 456.552C745.795 456.008 746.059 455.224 746.059 454.2V450.6C746.059 449.576 745.795 448.792 745.267 448.248C744.755 447.704 744.043 447.432 743.131 447.432C742.251 447.432 741.547 447.712 741.019 448.272C740.491 448.832 740.227 449.608 740.227 450.6V454.2C740.227 455.192 740.491 455.968 741.019 456.528C741.547 457.088 742.251 457.368 743.131 457.368ZM752.458 463.32V445.8H754.618V448.32H755.05L754.618 448.824C754.618 447.816 754.946 447.024 755.602 446.448C756.274 445.856 757.154 445.56 758.242 445.56C759.57 445.56 760.626 446 761.41 446.88C762.21 447.744 762.61 448.936 762.61 450.456V454.32C762.61 455.328 762.426 456.2 762.058 456.936C761.706 457.672 761.202 458.24 760.546 458.64C759.906 459.04 759.138 459.24 758.242 459.24C757.17 459.24 756.298 458.944 755.626 458.352C754.954 457.76 754.618 456.968 754.618 455.976L755.05 456.48H754.57L754.618 459.48V463.32H752.458ZM757.522 457.368C758.434 457.368 759.146 457.096 759.658 456.552C760.186 456.008 760.45 455.224 760.45 454.2V450.6C760.45 449.576 760.186 448.792 759.658 448.248C759.146 447.704 758.434 447.432 757.522 447.432C756.642 447.432 755.938 447.712 755.41 448.272C754.882 448.832 754.618 449.608 754.618 450.6V454.2C754.618 455.192 754.882 455.968 755.41 456.528C755.938 457.088 756.642 457.368 757.522 457.368ZM773.641 459C772.873 459 772.201 458.848 771.625 458.544C771.049 458.24 770.601 457.808 770.281 457.248C769.961 456.688 769.801 456.032 769.801 455.28V443.448H765.361V441.48H771.961V455.28C771.961 455.824 772.113 456.256 772.417 456.576C772.721 456.88 773.129 457.032 773.641 457.032H777.841V459H773.641ZM781.071 459V457.032H785.751V447.768H781.671V445.8H787.911V457.032H792.351V459H781.071ZM786.591 443.424C786.063 443.424 785.647 443.288 785.343 443.016C785.039 442.744 784.887 442.376 784.887 441.912C784.887 441.432 785.039 441.056 785.343 440.784C785.647 440.496 786.063 440.352 786.591 440.352C787.119 440.352 787.535 440.496 787.839 440.784C788.143 441.056 788.295 441.432 788.295 441.912C788.295 442.376 788.143 442.744 787.839 443.016C787.535 443.288 787.119 443.424 786.591 443.424ZM800.718 459.24C799.662 459.24 798.734 459.04 797.934 458.64C797.15 458.24 796.542 457.664 796.11 456.912C795.678 456.144 795.462 455.24 795.462 454.2V450.6C795.462 449.544 795.678 448.64 796.11 447.888C796.542 447.136 797.15 446.56 797.934 446.16C798.734 445.76 799.662 445.56 800.718 445.56C802.238 445.56 803.462 445.968 804.39 446.784C805.318 447.6 805.806 448.712 805.854 450.12H803.694C803.646 449.272 803.358 448.624 802.83 448.176C802.318 447.712 801.614 447.48 800.718 447.48C799.774 447.48 799.022 447.752 798.462 448.296C797.902 448.824 797.622 449.584 797.622 450.576V454.2C797.622 455.192 797.902 455.96 798.462 456.504C799.022 457.048 799.774 457.32 800.718 457.32C801.614 457.32 802.318 457.088 802.83 456.624C803.358 456.16 803.646 455.512 803.694 454.68H805.854C805.806 456.088 805.318 457.2 804.39 458.016C803.462 458.832 802.238 459.24 800.718 459.24ZM813.861 459.24C812.469 459.24 811.373 458.888 810.573 458.184C809.773 457.464 809.373 456.496 809.373 455.28C809.373 454.048 809.773 453.08 810.573 452.376C811.373 451.672 812.453 451.32 813.812 451.32H817.893V450C817.893 449.184 817.645 448.56 817.149 448.128C816.669 447.68 815.981 447.456 815.085 447.456C814.301 447.456 813.645 447.624 813.117 447.96C812.589 448.28 812.285 448.72 812.205 449.28H810.045C810.189 448.144 810.725 447.24 811.653 446.568C812.581 445.896 813.741 445.56 815.133 445.56C816.653 445.56 817.853 445.952 818.733 446.736C819.613 447.52 820.053 448.584 820.053 449.928V459H817.941V456.48H817.581L817.941 456.12C817.941 457.08 817.565 457.84 816.813 458.4C816.077 458.96 815.093 459.24 813.861 459.24ZM814.389 457.536C815.413 457.536 816.253 457.28 816.909 456.768C817.565 456.256 817.893 455.6 817.893 454.8V452.928H813.861C813.141 452.928 812.573 453.128 812.157 453.528C811.741 453.928 811.533 454.472 811.533 455.16C811.533 455.896 811.781 456.48 812.277 456.912C812.789 457.328 813.493 457.536 814.389 457.536ZM830.843 459C829.707 459 828.819 458.696 828.179 458.088C827.555 457.48 827.243 456.624 827.243 455.52V447.768H823.523V445.8H827.243V442.08H829.403V445.8H834.683V447.768H829.403V455.52C829.403 456.528 829.883 457.032 830.843 457.032H834.443V459H830.843ZM838.634 459V457.032H843.314V447.768H839.234V445.8H845.474V457.032H849.914V459H838.634ZM844.154 443.424C843.626 443.424 843.21 443.288 842.906 443.016C842.602 442.744 842.45 442.376 842.45 441.912C842.45 441.432 842.602 441.056 842.906 440.784C843.21 440.496 843.626 440.352 844.154 440.352C844.682 440.352 845.098 440.496 845.402 440.784C845.706 441.056 845.858 441.432 845.858 441.912C845.858 442.376 845.706 442.744 845.402 443.016C845.098 443.288 844.682 443.424 844.154 443.424ZM858.184 459.192C857.128 459.192 856.216 458.992 855.448 458.592C854.68 458.192 854.08 457.616 853.648 456.864C853.232 456.096 853.024 455.192 853.024 454.152V450.648C853.024 449.592 853.232 448.688 853.648 447.936C854.08 447.184 854.68 446.608 855.448 446.208C856.216 445.808 857.128 445.608 858.184 445.608C859.24 445.608 860.152 445.808 860.92 446.208C861.688 446.608 862.28 447.184 862.696 447.936C863.128 448.688 863.344 449.584 863.344 450.624V454.152C863.344 455.192 863.128 456.096 862.696 456.864C862.28 457.616 861.688 458.192 860.92 458.592C860.152 458.992 859.24 459.192 858.184 459.192ZM858.184 457.272C859.128 457.272 859.864 457.008 860.392 456.48C860.92 455.952 861.184 455.176 861.184 454.152V450.648C861.184 449.624 860.92 448.848 860.392 448.32C859.864 447.792 859.128 447.528 858.184 447.528C857.256 447.528 856.52 447.792 855.976 448.32C855.448 448.848 855.184 449.624 855.184 450.648V454.152C855.184 455.176 855.448 455.952 855.976 456.48C856.52 457.008 857.256 457.272 858.184 457.272ZM867.583 459V445.8H869.743V448.32H870.199L869.743 448.824C869.743 447.784 870.055 446.984 870.679 446.424C871.303 445.848 872.167 445.56 873.271 445.56C874.599 445.56 875.655 445.968 876.439 446.784C877.223 447.6 877.615 448.712 877.615 450.12V459H875.455V450.36C875.455 449.416 875.199 448.696 874.687 448.2C874.191 447.688 873.511 447.432 872.647 447.432C871.751 447.432 871.039 447.704 870.511 448.248C869.999 448.792 869.743 449.576 869.743 450.6V459H867.583Z" fill="white"/>
<defs>
<filter id="filter0_i_108_134" x="540" y="190" width="111.245" height="111.772" filterUnits="userSpaceOnUse" color-interpolation-filters="sRGB">
<feFlood flood-opacity="0" result="BackgroundImageFix"/>
<feBlend mode="normal" in="SourceGraphic" in2="BackgroundImageFix" result="shape"/>
<feColorMatrix in="SourceAlpha" type="matrix" values="0 0 0 0 0 0 0 0 0 0 0 0 0 0 0 0 0 0 127 0" result="hardAlpha"/>
<feOffset dx="0.1" dy="0.1"/>
<feGaussianBlur stdDeviation="0.2"/>
<feComposite in2="hardAlpha" operator="arithmetic" k2="-1" k3="1"/>
<feColorMatrix type="matrix" values="0 0 0 0 0.615686 0 0 0 0 0.615686 0 0 0 0 0.619608 0 0 0 1 0"/>
<feBlend mode="normal" in2="shape" result="effect1_innerShadow_108_134"/>
</filter>
<filter id="filter1_f_108_134" x="563.374" y="221.285" width="40.752" height="45.1365" filterUnits="userSpaceOnUse" color-interpolation-filters="sRGB">
<feFlood flood-opacity="0" result="BackgroundImageFix"/>
<feBlend mode="normal" in="SourceGraphic" in2="BackgroundImageFix" result="shape"/>
<feGaussianBlur stdDeviation="0.125" result="effect1_foregroundBlur_108_134"/>
</filter>
<filter id="filter2_f_108_134" x="591.438" y="200.285" width="40.936" height="41.884" filterUnits="userSpaceOnUse" color-interpolation-filters="sRGB">
<feFlood flood-opacity="0" result="BackgroundImageFix"/>
<feBlend mode="normal" in="SourceGraphic" in2="BackgroundImageFix" result="shape"/>
<feGaussianBlur stdDeviation="0.125" result="effect1_foregroundBlur_108_134"/>
</filter>
<filter id="filter3_f_108_134" x="568.014" y="289.797" width="66.916" height="11.7" filterUnits="userSpaceOnUse" color-interpolation-filters="sRGB">
<feFlood flood-opacity="0" result="BackgroundImageFix"/>
<feBlend mode="normal" in="SourceGraphic" in2="BackgroundImageFix" result="shape"/>
<feGaussianBlur stdDeviation="0.125" result="effect1_foregroundBlur_108_134"/>
</filter>
<filter id="filter4_f_108_134" x="591.324" y="200.743" width="22.9762" height="21.4762" filterUnits="userSpaceOnUse" color-interpolation-filters="sRGB">
<feFlood flood-opacity="0" result="BackgroundImageFix"/>
<feBlend mode="normal" in="SourceGraphic" in2="BackgroundImageFix" result="shape"/>
<feGaussianBlur stdDeviation="0.1" result="effect1_foregroundBlur_108_134"/>
</filter>
<filter id="filter5_f_108_134" x="567.502" y="241.668" width="72.748" height="48.6279" filterUnits="userSpaceOnUse" color-interpolation-filters="sRGB">
<feFlood flood-opacity="0" result="BackgroundImageFix"/>
<feBlend mode="normal" in="SourceGraphic" in2="BackgroundImageFix" result="shape"/>
<feGaussianBlur stdDeviation="0.125" result="effect1_foregroundBlur_108_134"/>
</filter>
<filter id="filter6_iiii_108_134" x="659.9" y="237.7" width="88.088" height="112.056" filterUnits="userSpaceOnUse" color-interpolation-filters="sRGB">
<feFlood flood-opacity="0" result="BackgroundImageFix"/>
<feBlend mode="normal" in="SourceGraphic" in2="BackgroundImageFix" result="shape"/>
<feColorMatrix in="SourceAlpha" type="matrix" values="0 0 0 0 0 0 0 0 0 0 0 0 0 0 0 0 0 0 127 0" result="hardAlpha"/>
<feOffset dx="0.3" dy="-0.3"/>
<feGaussianBlur stdDeviation="0.3"/>
<feComposite in2="hardAlpha" operator="arithmetic" k2="-1" k3="1"/>
<feColorMatrix type="matrix" values="0 0 0 0 0.807843 0 0 0 0 0.768627 0 0 0 0 0.85098 0 0 0 1 0"/>
<feBlend mode="normal" in2="shape" result="effect1_innerShadow_108_134"/>
<feColorMatrix in="SourceAlpha" type="matrix" values="0 0 0 0 0 0 0 0 0 0 0 0 0 0 0 0 0 0 127 0" result="hardAlpha"/>
<feOffset dx="0.1" dy="-0.1"/>
<feGaussianBlur stdDeviation="0.1"/>
<feComposite in2="hardAlpha" operator="arithmetic" k2="-1" k3="1"/>
<feColorMatrix type="matrix" values="0 0 0 0 0.709804 0 0 0 0 0.690196 0 0 0 0 0.733333 0 0 0 1 0"/>
<feBlend mode="normal" in2="effect1_innerShadow_108_134" result="effect2_innerShadow_108_134"/>
<feColorMatrix in="SourceAlpha" type="matrix" values="0 0 0 0 0 0 0 0 0 0 0 0 0 0 0 0 0 0 127 0" result="hardAlpha"/>
<feOffset dy="-0.1"/>
<feGaussianBlur stdDeviation="0.1"/>
<feComposite in2="hardAlpha" operator="arithmetic" k2="-1" k3="1"/>
<feColorMatrix type="matrix" values="0 0 0 0 0.72549 0 0 0 0 0.65098 0 0 0 0 0.8 0 0 0 1 0"/>
<feBlend mode="normal" in2="effect2_innerShadow_108_134" result="effect3_innerShadow_108_134"/>
<feColorMatrix in="SourceAlpha" type="matrix" values="0 0 0 0 0 0 0 0 0 0 0 0 0 0 0 0 0 0 127 0" result="hardAlpha"/>
<feOffset dx="-0.15" dy="0.15"/>
<feGaussianBlur stdDeviation="0.05"/>
<feComposite in2="hardAlpha" operator="arithmetic" k2="-1" k3="1"/>
<feColorMatrix type="matrix" values="0 0 0 0 0.952941 0 0 0 0 0.941176 0 0 0 0 0.964706 0 0 0 1 0"/>
<feBlend mode="normal" in2="effect3_innerShadow_108_134" result="effect4_innerShadow_108_134"/>
</filter>
<filter id="filter7_f_108_134" x="718.14" y="237.748" width="28.896" height="30.4561" filterUnits="userSpaceOnUse" color-interpolation-filters="sRGB">
<feFlood flood-opacity="0" result="BackgroundImageFix"/>
<feBlend mode="normal" in="SourceGraphic" in2="BackgroundImageFix" result="shape"/>
<feGaussianBlur stdDeviation="0.25" result="effect1_foregroundBlur_108_134"/>
</filter>
<filter id="filter8_ii_108_134" x="718.927" y="237.908" width="28.86" height="29.3561" filterUnits="userSpaceOnUse" color-interpolation-filters="sRGB">
<feFlood flood-opacity="0" result="BackgroundImageFix"/>
<feBlend mode="normal" in="SourceGraphic" in2="BackgroundImageFix" result="shape"/>
<feColorMatrix in="SourceAlpha" type="matrix" values="0 0 0 0 0 0 0 0 0 0 0 0 0 0 0 0 0 0 127 0" result="hardAlpha"/>
<feOffset dx="0.1"/>
<feGaussianBlur stdDeviation="0.075"/>
<feComposite in2="hardAlpha" operator="arithmetic" k2="-1" k3="1"/>
<feColorMatrix type="matrix" values="0 0 0 0 0.631373 0 0 0 0 0.611765 0 0 0 0 0.654902 0 0 0 1 0"/>
<feBlend mode="normal" in2="shape" result="effect1_innerShadow_108_134"/>
<feColorMatrix in="SourceAlpha" type="matrix" values="0 0 0 0 0 0 0 0 0 0 0 0 0 0 0 0 0 0 127 0" result="hardAlpha"/>
<feOffset dy="-0.1"/>
<feGaussianBlur stdDeviation="0.075"/>
<feComposite in2="hardAlpha" operator="arithmetic" k2="-1" k3="1"/>
<feColorMatrix type="matrix" values="0 0 0 0 0.752941 0 0 0 0 0.67451 0 0 0 0 0.835294 0 0 0 1 0"/>
<feBlend mode="normal" in2="effect1_innerShadow_108_134" result="effect2_innerShadow_108_134"/>
</filter>
<filter id="filter9_i_108_134" x="755.42" y="224.687" width="70.0781" height="75.9541" filterUnits="userSpaceOnUse" color-interpolation-filters="sRGB">
<feFlood flood-opacity="0" result="BackgroundImageFix"/>
<feBlend mode="normal" in="SourceGraphic" in2="BackgroundImageFix" result="shape"/>
<feColorMatrix in="SourceAlpha" type="matrix" values="0 0 0 0 0 0 0 0 0 0 0 0 0 0 0 0 0 0 127 0" result="hardAlpha"/>
<feOffset dx="0.05" dy="-0.05"/>
<feGaussianBlur stdDeviation="0.05"/>
<feComposite in2="hardAlpha" operator="arithmetic" k2="-1" k3="1"/>
<feColorMatrix type="matrix" values="0 0 0 0 0.631373 0 0 0 0 0.521569 0 0 0 0 0.733333 0 0 0 1 0"/>
<feBlend mode="normal" in2="shape" result="effect1_innerShadow_108_134"/>
</filter>
<filter id="filter10_i_108_134" x="802.384" y="190" width="58.0165" height="58.5396" filterUnits="userSpaceOnUse" color-interpolation-filters="sRGB">
<feFlood flood-opacity="0" result="BackgroundImageFix"/>
<feBlend mode="normal" in="SourceGraphic" in2="BackgroundImageFix" result="shape"/>
<feColorMatrix in="SourceAlpha" type="matrix" values="0 0 0 0 0 0 0 0 0 0 0 0 0 0 0 0 0 0 127 0" result="hardAlpha"/>
<feOffset dx="0.4"/>
<feGaussianBlur stdDeviation="0.4"/>
<feComposite in2="hardAlpha" operator="arithmetic" k2="-1" k3="1"/>
<feColorMatrix type="matrix" values="0 0 0 0 0.690196 0 0 0 0 0.211765 0 0 0 0 0.341176 0 0 0 1 0"/>
<feBlend mode="normal" in2="shape" result="effect1_innerShadow_108_134"/>
</filter>
<filter id="filter11_ii_108_134" x="778.584" y="224.437" width="69.851" height="76.2533" filterUnits="userSpaceOnUse" color-interpolation-filters="sRGB">
<feFlood flood-opacity="0" result="BackgroundImageFix"/>
<feBlend mode="normal" in="SourceGraphic" in2="BackgroundImageFix" result="shape"/>
<feColorMatrix in="SourceAlpha" type="matrix" values="0 0 0 0 0 0 0 0 0 0 0 0 0 0 0 0 0 0 127 0" result="hardAlpha"/>
<feOffset dx="-0.05" dy="0.05"/>
<feGaussianBlur stdDeviation="0.05"/>
<feComposite in2="hardAlpha" operator="arithmetic" k2="-1" k3="1"/>
<feColorMatrix type="matrix" values="0 0 0 0 0.627451 0 0 0 0 0.592157 0 0 0 0 0.658824 0 0 0 1 0"/>
<feBlend mode="normal" in2="shape" result="effect1_innerShadow_108_134"/>
<feColorMatrix in="SourceAlpha" type="matrix" values="0 0 0 0 0 0 0 0 0 0 0 0 0 0 0 0 0 0 127 0" result="hardAlpha"/>
<feOffset dx="0.05" dy="-0.05"/>
<feGaussianBlur stdDeviation="0.05"/>
<feComposite in2="hardAlpha" operator="arithmetic" k2="-1" k3="1"/>
<feColorMatrix type="matrix" values="0 0 0 0 0.643137 0 0 0 0 0.52549 0 0 0 0 0.74902 0 0 0 1 0"/>
<feBlend mode="normal" in2="effect1_innerShadow_108_134" result="effect2_innerShadow_108_134"/>
</filter>
<filter id="filter12_d_108_134" x="797.184" y="243.685" width="9.26572" height="9.2811" filterUnits="userSpaceOnUse" color-interpolation-filters="sRGB">
<feFlood flood-opacity="0" result="BackgroundImageFix"/>
<feColorMatrix in="SourceAlpha" type="matrix" values="0 0 0 0 0 0 0 0 0 0 0 0 0 0 0 0 0 0 127 0" result="hardAlpha"/>
<feOffset dx="-0.1" dy="0.1"/>
<feGaussianBlur stdDeviation="0.1"/>
<feComposite in2="hardAlpha" operator="out"/>
<feColorMatrix type="matrix" values="0 0 0 0 0.54902 0 0 0 0 0.419608 0 0 0 0 0.658824 0 0 0 1 0"/>
<feBlend mode="normal" in2="BackgroundImageFix" result="effect1_dropShadow_108_134"/>
<feBlend mode="normal" in="SourceGraphic" in2="effect1_dropShadow_108_134" result="shape"/>
</filter>
<filter id="filter13_i_108_134" x="744" y="190" width="58.6896" height="58.5625" filterUnits="userSpaceOnUse" color-interpolation-filters="sRGB">
<feFlood flood-opacity="0" result="BackgroundImageFix"/>
<feBlend mode="normal" in="SourceGraphic" in2="BackgroundImageFix" result="shape"/>
<feColorMatrix in="SourceAlpha" type="matrix" values="0 0 0 0 0 0 0 0 0 0 0 0 0 0 0 0 0 0 127 0" result="hardAlpha"/>
<feOffset dx="0.4"/>
<feGaussianBlur stdDeviation="0.4"/>
<feComposite in2="hardAlpha" operator="arithmetic" k2="-1" k3="1"/>
<feColorMatrix type="matrix" values="0 0 0 0 0.690196 0 0 0 0 0.211765 0 0 0 0 0.341176 0 0 0 1 0"/>
<feBlend mode="normal" in2="shape" result="effect1_innerShadow_108_134"/>
</filter>
<filter id="filter14_f_108_134" x="753.461" y="194.498" width="42.6235" height="42.6941" filterUnits="userSpaceOnUse" color-interpolation-filters="sRGB">
<feFlood flood-opacity="0" result="BackgroundImageFix"/>
<feBlend mode="normal" in="SourceGraphic" in2="BackgroundImageFix" result="shape"/>
<feGaussianBlur stdDeviation="0.25" result="effect1_foregroundBlur_108_134"/>
</filter>
<filter id="filter15_f_108_134" x="814.096" y="194.516" width="43.0317" height="43.1028" filterUnits="userSpaceOnUse" color-interpolation-filters="sRGB">
<feFlood flood-opacity="0" result="BackgroundImageFix"/>
<feBlend mode="normal" in="SourceGraphic" in2="BackgroundImageFix" result="shape"/>
<feGaussianBlur stdDeviation="0.25" result="effect1_foregroundBlur_108_134"/>
</filter>
<filter id="filter16_f_108_134" x="781.909" y="228.619" width="12.2371" height="11.2961" filterUnits="userSpaceOnUse" color-interpolation-filters="sRGB">
<feFlood flood-opacity="0" result="BackgroundImageFix"/>
<feBlend mode="normal" in="SourceGraphic" in2="BackgroundImageFix" result="shape"/>
<feGaussianBlur stdDeviation="0.25" result="effect1_foregroundBlur_108_134"/>
</filter>
<filter id="filter17_f_108_134" x="810.52" y="229.16" width="11.6919" height="11.8645" filterUnits="userSpaceOnUse" color-interpolation-filters="sRGB">
<feFlood flood-opacity="0" result="BackgroundImageFix"/>
<feBlend mode="normal" in="SourceGraphic" in2="BackgroundImageFix" result="shape"/>
<feGaussianBlur stdDeviation="0.25" result="effect1_foregroundBlur_108_134"/>
</filter>
<linearGradient id="paint0_linear_108_134" x1="1400" y1="-4.17233e-05" x2="0" y2="700" gradientUnits="userSpaceOnUse">
<stop stop-color="#0055AA"/>
<stop offset="1" stop-color="#00AFFF"/>
</linearGradient>
<linearGradient id="paint1_linear_108_134" x1="560.752" y1="213.048" x2="613.252" y2="213.048" gradientUnits="userSpaceOnUse">
<stop stop-color="#C1C1C2"/>
<stop offset="1" stop-color="#DDDDDE"/>
</linearGradient>
<linearGradient id="paint2_linear_108_134" x1="540" y1="264.08" x2="562.956" y2="255.06" gradientUnits="userSpaceOnUse">
<stop stop-color="#B7B4BB"/>
<stop offset="1" stop-color="#B7B4BB" stop-opacity="0"/>
</linearGradient>
<linearGradient id="paint3_linear_108_134" x1="602.856" y1="301.672" x2="602.856" y2="295.124" gradientUnits="userSpaceOnUse">
<stop stop-color="#988EA1"/>
<stop offset="1" stop-color="#988EA1" stop-opacity="0"/>
</linearGradient>
<radialGradient id="paint4_radial_108_134" cx="0" cy="0" r="1" gradientUnits="userSpaceOnUse" gradientTransform="translate(563.628 253.254) rotate(91.332) scale(45.7772 28.7557)">
<stop stop-color="#D9D5DE"/>
<stop offset="1" stop-color="#C2BEC8"/>
</radialGradient>
<linearGradient id="paint5_linear_108_134" x1="554.848" y1="292.367" x2="562.832" y2="280.127" gradientUnits="userSpaceOnUse">
<stop stop-color="#C2BDC9"/>
<stop offset="1" stop-color="#C2BDC9" stop-opacity="0"/>
</linearGradient>
<linearGradient id="paint6_linear_108_134" x1="593.752" y1="221.516" x2="566.5" y2="264.296" gradientUnits="userSpaceOnUse">
<stop stop-color="#EEEAF3"/>
<stop offset="1" stop-color="#E0DCE5"/>
</linearGradient>
<linearGradient id="paint7_linear_108_134" x1="622.252" y1="223.295" x2="600.752" y2="231.295" gradientUnits="userSpaceOnUse">
<stop stop-color="#E4E3E5"/>
<stop offset="1" stop-color="#D1D0D3"/>
</linearGradient>
<linearGradient id="paint8_linear_108_134" x1="602.18" y1="211.987" x2="603.844" y2="213.851" gradientUnits="userSpaceOnUse">
<stop offset="0.235" stop-color="#D0CFD2"/>
<stop offset="1" stop-color="#D0CFD2" stop-opacity="0"/>
</linearGradient>
<linearGradient id="paint9_linear_108_134" x1="591.02" y1="223.231" x2="603.3" y2="226.363" gradientUnits="userSpaceOnUse">
<stop stop-color="#CDCBCE"/>
<stop offset="1" stop-color="#CDCBCE" stop-opacity="0"/>
</linearGradient>
<radialGradient id="paint10_radial_108_134" cx="0" cy="0" r="1" gradientUnits="userSpaceOnUse" gradientTransform="translate(649.033 250.113) rotate(120.775) scale(18.1542 13.6903)">
<stop stop-color="#D8D6DB"/>
<stop offset="1" stop-color="#C5C4C6"/>
</radialGradient>
<linearGradient id="paint11_linear_108_134" x1="640.551" y1="244.439" x2="640.215" y2="245.631" gradientUnits="userSpaceOnUse">
<stop stop-color="#B6B6B6"/>
<stop offset="1" stop-color="#C3C3C4" stop-opacity="0"/>
</linearGradient>
<linearGradient id="paint12_linear_108_134" x1="634.824" y1="289.939" x2="645.336" y2="265.859" gradientUnits="userSpaceOnUse">
<stop stop-color="#B4B1B7"/>
<stop offset="1" stop-color="#B8B5BB"/>
</linearGradient>
<linearGradient id="paint13_linear_108_134" x1="626.604" y1="298.591" x2="574.984" y2="298.591" gradientUnits="userSpaceOnUse">
<stop stop-color="#A9A1B3"/>
<stop offset="1" stop-color="#A59DAD"/>
</linearGradient>
<linearGradient id="paint14_linear_108_134" x1="595.252" y1="219.795" x2="619.752" y2="196.671" gradientUnits="userSpaceOnUse">
<stop stop-color="#DAD9DB"/>
<stop offset="1" stop-color="#DAD9DB" stop-opacity="0"/>
</linearGradient>
<linearGradient id="paint15_linear_108_134" x1="630.864" y1="264.578" x2="585.26" y2="257.31" gradientUnits="userSpaceOnUse">
<stop stop-color="#F9F5FD"/>
<stop offset="1" stop-color="#C2BDC9"/>
</linearGradient>
<linearGradient id="paint16_linear_108_134" x1="703.844" y1="238" x2="703.844" y2="349.656" gradientUnits="userSpaceOnUse">
<stop stop-color="#EBE4F3"/>
<stop offset="1" stop-color="#E4DAF0"/>
</linearGradient>
<linearGradient id="paint17_linear_108_134" x1="721.999" y1="264.656" x2="732.563" y2="254.092" gradientUnits="userSpaceOnUse">
<stop stop-color="#D9D3E1"/>
<stop offset="1" stop-color="#CCC7D1"/>
</linearGradient>
<linearGradient id="paint18_linear_108_134" x1="734.935" y1="252.032" x2="732.375" y2="254.532" gradientUnits="userSpaceOnUse">
<stop offset="0.119" stop-color="#DBDADC"/>
<stop offset="0.577" stop-color="#CBC7D0" stop-opacity="0"/>
</linearGradient>
<linearGradient id="paint19_linear_108_134" x1="676" y1="279.797" x2="731.656" y2="279.797" gradientUnits="userSpaceOnUse">
<stop stop-color="#9C96A2"/>
<stop offset="1" stop-color="#9A95A1"/>
</linearGradient>
<linearGradient id="paint20_linear_108_134" x1="676" y1="291.797" x2="731.656" y2="291.797" gradientUnits="userSpaceOnUse">
<stop stop-color="#9C96A2"/>
<stop offset="1" stop-color="#9A95A1"/>
</linearGradient>
<linearGradient id="paint21_linear_108_134" x1="676" y1="303.797" x2="731.656" y2="303.797" gradientUnits="userSpaceOnUse">
<stop stop-color="#9C96A2"/>
<stop offset="1" stop-color="#9A95A1"/>
</linearGradient>
<linearGradient id="paint22_linear_108_134" x1="676" y1="315.797" x2="711.936" y2="315.797" gradientUnits="userSpaceOnUse">
<stop stop-color="#9C96A2"/>
<stop offset="1" stop-color="#9A95A1"/>
</linearGradient>
<linearGradient id="paint23_linear_108_134" x1="773.26" y1="264.573" x2="786.875" y2="277.518" gradientUnits="userSpaceOnUse">
<stop stop-color="#877697"/>
<stop offset="1" stop-color="#BDA7D4"/>
</linearGradient>
<linearGradient id="paint24_linear_108_134" x1="799.215" y1="256.596" x2="796.755" y2="258.862" gradientUnits="userSpaceOnUse">
<stop offset="0.607" stop-color="#7C549C"/>
<stop offset="1" stop-color="#7C549C" stop-opacity="0"/>
</linearGradient>
<linearGradient id="paint25_linear_108_134" x1="860" y1="219.619" x2="815.771" y2="219.619" gradientUnits="userSpaceOnUse">
<stop stop-color="#FF7415"/>
<stop offset="1" stop-color="#F63178"/>
</linearGradient>
<linearGradient id="paint26_linear_108_134" x1="812.39" y1="270.278" x2="824.157" y2="257.4" gradientUnits="userSpaceOnUse">
<stop stop-color="#B59FCA"/>
<stop offset="1" stop-color="#887799"/>
</linearGradient>
<radialGradient id="paint27_radial_108_134" cx="0" cy="0" r="1" gradientUnits="userSpaceOnUse" gradientTransform="translate(802.261 247.711) rotate(134.52) scale(6.09332 5.59096)">
<stop offset="0.518" stop-color="#988098" stop-opacity="0"/>
<stop offset="0.86" stop-color="#988098"/>
</radialGradient>
<radialGradient id="paint28_radial_108_134" cx="0" cy="0" r="1" gradientUnits="userSpaceOnUse" gradientTransform="translate(799.864 253.356) rotate(-68.1762) scale(5.5238 4.92096)">
<stop stop-color="#926BB4"/>
<stop offset="1" stop-color="#926BB4" stop-opacity="0"/>
</radialGradient>
<radialGradient id="paint29_radial_108_134" cx="0" cy="0" r="1" gradientUnits="userSpaceOnUse" gradientTransform="translate(803.554 247.582) rotate(139.568) scale(2.14964 2.15023)">
<stop offset="0.259" stop-color="#B9AEC4"/>
<stop offset="1" stop-color="#B9AEC4" stop-opacity="0"/>
</radialGradient>
<radialGradient id="paint30_radial_108_134" cx="0" cy="0" r="1" gradientUnits="userSpaceOnUse" gradientTransform="translate(801.484 251.021) rotate(-65.8959) scale(7.92508 7.91596)">
<stop offset="0.7" stop-color="#A49EA6" stop-opacity="0"/>
<stop offset="1" stop-color="#A49EA6"/>
</radialGradient>
<linearGradient id="paint31_linear_108_134" x1="802.974" y1="219.619" x2="758.243" y2="219.619" gradientUnits="userSpaceOnUse">
<stop stop-color="#FF7415"/>
<stop offset="1" stop-color="#F63178"/>
</linearGradient>
<linearGradient id="paint32_linear_108_134" x1="796.432" y1="201.685" x2="778.646" y2="214.285" gradientUnits="userSpaceOnUse">
<stop stop-color="#FF8C72"/>
<stop offset="1" stop-color="#FF8C72" stop-opacity="0"/>
</linearGradient>
<linearGradient id="paint33_linear_108_134" x1="754.336" y1="224.075" x2="763.964" y2="220.45" gradientUnits="userSpaceOnUse">
<stop stop-color="#FF638F"/>
<stop offset="1" stop-color="#FF638F" stop-opacity="0"/>
</linearGradient>
<linearGradient id="paint34_linear_108_134" x1="856.311" y1="200.108" x2="839.387" y2="214.19" gradientUnits="userSpaceOnUse">
<stop stop-color="#FF8C72"/>
<stop offset="1" stop-color="#FF8C72" stop-opacity="0"/>
</linearGradient>
<linearGradient id="paint35_linear_108_134" x1="815.678" y1="225.957" x2="825.089" y2="221.552" gradientUnits="userSpaceOnUse">
<stop stop-color="#FF638F"/>
<stop offset="1" stop-color="#FF638F" stop-opacity="0"/>
</linearGradient>
<linearGradient id="paint36_linear_108_134" x1="812.225" y1="229.927" x2="821.697" y2="248.236" gradientUnits="userSpaceOnUse">
<stop stop-color="#DB236E"/>
<stop offset="1" stop-color="#DB236E" stop-opacity="0"/>
</linearGradient>
<clipPath id="clip0_108_134">
<rect width="320" height="160" fill="white" transform="translate(540 190)"/>
</clipPath>
</defs>
</svg>
