<svg width="700" height="350" viewBox="0 0 700 350" fill="none" xmlns="http://www.w3.org/2000/svg">
<rect width="700" height="350" fill="url(#paint0_linear_108_134)"/>
<g clip-path="url(#clip0_108_134)">
<g filter="url(#filter0_i_108_134)">
<path d="M284.368 97.8518L282.128 109.722C282.058 110.093 281.913 110.447 281.703 110.761C281.493 111.075 281.221 111.344 280.904 111.55L271.364 117.76C270.945 118.032 270.601 118.405 270.363 118.844C270.125 119.283 270 119.774 270 120.274V131.91C270 132.348 270.144 132.774 270.41 133.122L283.156 149.85C283.628 150.47 284.364 150.836 285.144 150.836H315.03C315.76 150.836 316.471 150.608 317.065 150.184C317.659 149.76 318.106 149.16 318.342 148.47L325.384 127.906C325.681 127.037 325.625 126.086 325.228 125.258C324.831 124.43 324.124 123.791 323.26 123.48L316.276 120.962C316.111 120.903 315.961 120.808 315.837 120.685C315.712 120.561 315.617 120.412 315.556 120.248L308.356 100.702C308.18 100.226 307.886 99.8023 307.502 99.4707C307.118 99.1391 306.657 98.9104 306.16 98.8058L288.532 95.0758C288.076 94.9793 287.605 94.9749 287.147 95.0628C286.69 95.1507 286.254 95.3292 285.866 95.5878C285.478 95.8464 285.146 96.1799 284.889 96.5687C284.631 96.9574 284.454 97.3937 284.368 97.8518Z" fill="url(#paint1_linear_108_134)"/>
</g>
<path d="M284.368 97.8518L282.128 109.722C282.058 110.093 281.913 110.447 281.703 110.761C281.493 111.075 281.221 111.344 280.904 111.55L271.364 117.76C270.945 118.032 270.601 118.405 270.363 118.844C270.125 119.283 270 119.774 270 120.274V131.91C270 132.348 270.144 132.774 270.41 133.122L283.156 149.85C283.628 150.47 284.364 150.836 285.144 150.836H315.03C315.76 150.836 316.471 150.608 317.065 150.184C317.659 149.76 318.106 149.16 318.342 148.47L325.384 127.906C325.681 127.037 325.625 126.086 325.228 125.258C324.831 124.43 324.124 123.791 323.26 123.48L316.276 120.962C316.111 120.903 315.961 120.808 315.837 120.685C315.712 120.561 315.617 120.412 315.556 120.248L308.356 100.702C308.18 100.226 307.886 99.8023 307.502 99.4707C307.118 99.1391 306.657 98.9104 306.16 98.8058L288.532 95.0758C288.076 94.9793 287.605 94.9749 287.147 95.0628C286.69 95.1507 286.254 95.3292 285.866 95.5878C285.478 95.8464 285.146 96.1799 284.889 96.5687C284.631 96.9574 284.454 97.3937 284.368 97.8518Z" fill="url(#paint2_linear_108_134)"/>
<path d="M284.368 97.8518L282.128 109.722C282.058 110.093 281.913 110.447 281.703 110.761C281.493 111.075 281.221 111.344 280.904 111.55L271.364 117.76C270.945 118.032 270.601 118.405 270.363 118.844C270.125 119.283 270 119.774 270 120.274V131.91C270 132.348 270.144 132.774 270.41 133.122L283.156 149.85C283.628 150.47 284.364 150.836 285.144 150.836H315.03C315.76 150.836 316.471 150.608 317.065 150.184C317.659 149.76 318.106 149.16 318.342 148.47L325.384 127.906C325.681 127.037 325.625 126.086 325.228 125.258C324.831 124.43 324.124 123.791 323.26 123.48L316.276 120.962C316.111 120.903 315.961 120.808 315.837 120.685C315.712 120.561 315.617 120.412 315.556 120.248L308.356 100.702C308.18 100.226 307.886 99.8023 307.502 99.4707C307.118 99.1391 306.657 98.9104 306.16 98.8058L288.532 95.0758C288.076 94.9793 287.605 94.9749 287.147 95.0628C286.69 95.1507 286.254 95.3292 285.866 95.5878C285.478 95.8464 285.146 96.1799 284.889 96.5687C284.631 96.9574 284.454 97.3937 284.368 97.8518Z" fill="url(#paint3_linear_108_134)"/>
<path d="M284.14 150.625L286.296 144.975L283.812 132.771L281.796 125.115C281.616 125.241 276.27 128.859 270.274 132.919C270.315 132.989 270.361 133.057 270.41 133.121L283.156 149.849C283.416 150.191 283.756 150.455 284.14 150.625Z" fill="url(#paint4_radial_108_134)"/>
<path d="M284.14 150.625L286.296 144.975L283.812 132.771L281.796 125.115C281.616 125.241 276.27 128.859 270.274 132.919C270.315 132.989 270.361 133.057 270.41 133.121L283.156 149.849C283.416 150.191 283.756 150.455 284.14 150.625Z" fill="url(#paint5_linear_108_134)"/>
<g filter="url(#filter1_f_108_134)">
<path d="M281.812 125.148V111.268C281.812 111.201 281.825 111.135 281.851 111.074C281.877 111.012 281.915 110.956 281.963 110.91C282.01 110.863 282.067 110.827 282.129 110.802C282.191 110.778 282.257 110.766 282.324 110.768L295.844 111.054L301.938 120.96L283.874 133.086L281.812 125.148Z" fill="url(#paint6_linear_108_134)"/>
</g>
<g filter="url(#filter2_f_108_134)">
<path d="M307.946 100.268L295.844 111.086L301.938 120.96H316.062C315.899 120.9 315.75 120.805 315.627 120.682C315.504 120.559 315.408 120.411 315.348 120.248L308.148 100.702C308.093 100.552 308.025 100.407 307.946 100.268Z" fill="url(#paint7_linear_108_134)"/>
<path d="M307.946 100.268L295.844 111.086L301.938 120.96H316.062C315.899 120.9 315.75 120.805 315.627 120.682C315.504 120.559 315.408 120.411 315.348 120.248L308.148 100.702C308.093 100.552 308.025 100.407 307.946 100.268Z" fill="url(#paint8_linear_108_134)"/>
<path d="M307.946 100.268L295.844 111.086L301.938 120.96H316.062C315.899 120.9 315.75 120.805 315.627 120.682C315.504 120.559 315.408 120.411 315.348 120.248L308.148 100.702C308.093 100.552 308.025 100.407 307.946 100.268Z" fill="url(#paint9_linear_108_134)"/>
</g>
<path fill-rule="evenodd" clip-rule="evenodd" d="M316.322 120.978C316.256 120.996 316.194 121.028 316.141 121.071C316.088 121.115 316.044 121.168 316.012 121.229C315.981 121.29 315.962 121.357 315.958 121.426C315.953 121.494 315.963 121.563 315.986 121.628L320 132.96L323.342 133.866L325.384 127.906C325.681 127.037 325.625 126.086 325.228 125.258C324.831 124.43 324.124 123.791 323.26 123.48L316.322 120.978Z" fill="url(#paint10_radial_108_134)"/>
<path fill-rule="evenodd" clip-rule="evenodd" d="M316.322 120.978C316.256 120.996 316.194 121.028 316.141 121.071C316.088 121.115 316.044 121.168 316.012 121.229C315.981 121.29 315.962 121.357 315.958 121.426C315.953 121.494 315.963 121.563 315.986 121.628L320 132.96L323.342 133.866L325.384 127.906C325.681 127.037 325.625 126.086 325.228 125.258C324.831 124.43 324.124 123.791 323.26 123.48L316.322 120.978Z" fill="url(#paint11_linear_108_134)"/>
<path d="M319.99 132.93L315.706 144.972L317.332 149.972C317.784 149.578 318.138 149.064 318.342 148.47L323.342 133.866L320 132.96L319.99 132.93Z" fill="url(#paint12_linear_108_134)"/>
<g filter="url(#filter3_f_108_134)">
<path d="M317.34 149.785L315.88 145.023H286.25L284.132 150.417C284.448 150.551 284.792 150.623 285.144 150.623H315.03C315.902 150.623 316.716 150.315 317.34 149.785Z" fill="url(#paint13_linear_108_134)"/>
</g>
<g filter="url(#filter4_f_108_134)">
<path d="M295.812 110.959L307 100.521" stroke="url(#paint14_linear_108_134)" stroke-width="0.2" stroke-linecap="round"/>
</g>
<g filter="url(#filter5_f_108_134)">
<path d="M286.282 145.023L283.876 133.115L301.876 120.959H315.688L320 132.897L315.688 145.023H286.282Z" fill="url(#paint15_linear_108_134)"/>
</g>
<g filter="url(#filter6_iiii_108_134)">
<path d="M360.752 119.586C360.377 119.211 359.868 119 359.338 119H332.8C332.057 119 331.345 119.295 330.82 119.82C330.295 120.345 330 121.057 330 121.8V172.028C330 172.771 330.295 173.483 330.82 174.008C331.345 174.533 332.057 174.828 332.8 174.828H371.044C371.787 174.828 372.499 174.533 373.024 174.008C373.549 173.483 373.844 172.771 373.844 172.028V133.508C373.844 133.245 373.793 132.985 373.692 132.742C373.591 132.499 373.444 132.278 373.258 132.092L360.752 119.586Z" fill="url(#paint16_linear_108_134)"/>
</g>
<g filter="url(#filter7_f_108_134)">
<path d="M359.424 119.828C359.424 119.426 359.54 119.168 359.32 119.124C359.528 119.138 359.832 119.214 360.024 119.29C360.27 119.386 359.964 119.6 360.158 119.788L360.176 119.804L372.682 132.31C372.868 132.496 373.015 132.717 373.116 132.96C373.216 133.203 373.268 133.463 373.268 133.726V133.852C373.268 133.388 372.932 133.11 372.682 133.11H361.824C361.187 133.11 360.577 132.857 360.127 132.407C359.677 131.957 359.424 131.347 359.424 130.71V119.828Z" fill="#D2C5DF"/>
</g>
<g filter="url(#filter8_ii_108_134)">
<path d="M360.002 119.61C360.002 119.206 359.684 119.048 359.464 119.004C359.949 119.034 360.407 119.24 360.752 119.584L373.258 132.092C373.482 132.316 373.649 132.59 373.746 132.892C373.81 133.09 373.843 133.297 373.844 133.506V133.632C373.844 133.168 373.508 132.892 373.258 132.892H362.4C362.085 132.892 361.773 132.83 361.481 132.709C361.19 132.589 360.926 132.412 360.703 132.189C360.48 131.966 360.303 131.702 360.183 131.41C360.062 131.119 360 130.807 360 130.492L360.002 119.61Z" fill="url(#paint17_linear_108_134)"/>
</g>
<path d="M360.002 119.61C360.002 119.206 359.684 119.048 359.464 119.004C359.949 119.034 360.407 119.24 360.752 119.584L373.258 132.092C373.482 132.316 373.649 132.59 373.746 132.892C373.81 133.09 373.843 133.297 373.844 133.506V133.632C373.844 133.168 373.508 132.892 373.258 132.892H362.4C362.085 132.892 361.773 132.83 361.481 132.709C361.19 132.589 360.926 132.412 360.703 132.189C360.48 131.966 360.303 131.702 360.183 131.41C360.062 131.119 360 130.807 360 130.492L360.002 119.61Z" fill="url(#paint18_linear_108_134)"/>
<path d="M364.836 138.906H338.992C338.444 138.906 338 139.35 338 139.898C338 140.446 338.444 140.89 338.992 140.89H364.836C365.384 140.89 365.828 140.446 365.828 139.898C365.828 139.35 365.384 138.906 364.836 138.906Z" fill="url(#paint19_linear_108_134)"/>
<path d="M364.836 144.906H338.992C338.444 144.906 338 145.35 338 145.898C338 146.446 338.444 146.89 338.992 146.89H364.836C365.384 146.89 365.828 146.446 365.828 145.898C365.828 145.35 365.384 144.906 364.836 144.906Z" fill="url(#paint20_linear_108_134)"/>
<path d="M364.836 150.906H338.992C338.444 150.906 338 151.35 338 151.898C338 152.446 338.444 152.89 338.992 152.89H364.836C365.384 152.89 365.828 152.446 365.828 151.898C365.828 151.35 365.384 150.906 364.836 150.906Z" fill="url(#paint21_linear_108_134)"/>
<path d="M354.976 156.906H338.992C338.444 156.906 338 157.35 338 157.898C338 158.446 338.444 158.89 338.992 158.89H354.976C355.524 158.89 355.968 158.446 355.968 157.898C355.968 157.35 355.524 156.906 354.976 156.906Z" fill="url(#paint22_linear_108_134)"/>
<g filter="url(#filter9_i_108_134)">
<path d="M381.197 150.32L412.724 118.738L406.365 112.368L379.747 139.011C378.443 140.319 377.71 142.091 377.71 143.94C377.71 145.788 378.443 147.56 379.747 148.868L381.197 150.32Z" fill="url(#paint23_linear_108_134)"/>
<path d="M381.197 150.32L412.724 118.738L406.365 112.368L379.747 139.011C378.443 140.319 377.71 142.091 377.71 143.94C377.71 145.788 378.443 147.56 379.747 148.868L381.197 150.32Z" fill="url(#paint24_linear_108_134)"/>
</g>
<g filter="url(#filter10_i_108_134)">
<path d="M401.439 117.02C401.361 117.097 401.299 117.189 401.257 117.29C401.214 117.391 401.192 117.499 401.192 117.609C401.192 117.718 401.213 117.827 401.255 117.928C401.296 118.029 401.358 118.121 401.435 118.199L407.254 124.027C407.331 124.105 407.423 124.166 407.524 124.208C407.625 124.249 407.734 124.27 407.843 124.27C407.953 124.269 408.061 124.247 408.162 124.204C408.262 124.162 408.354 124.099 408.43 124.021L410.781 121.62C410.905 121.497 411.064 121.414 411.235 121.382C411.407 121.351 411.585 121.371 411.744 121.442C420.107 124.999 430 117.304 430 108.529C430 101.059 423.993 95 416.536 95C409.079 95 403.03 101.059 403.03 108.529C403.03 110.39 403.366 112.071 404.047 113.654C404.118 113.814 404.139 113.991 404.108 114.163C404.077 114.334 403.995 114.493 403.873 114.617L401.439 117.02ZM410.239 108.529C410.239 105.064 413.056 102.242 416.515 102.242C419.974 102.242 422.791 105.064 422.791 108.529C422.791 111.994 419.974 114.816 416.515 114.816C413.056 114.816 410.239 112.015 410.239 108.529Z" fill="url(#paint25_linear_108_134)"/>
</g>
<g filter="url(#filter11_ii_108_134)">
<path d="M420.844 150.32L389.317 118.738L395.531 112.243L422.129 138.886C424.863 141.625 424.884 146.294 422.17 149.012L420.844 150.32Z" fill="url(#paint26_linear_108_134)"/>
</g>
<g filter="url(#filter12_d_108_134)">
<path d="M400.959 126.333C401.546 126.333 402.11 126.099 402.526 125.683C402.942 125.266 403.175 124.702 403.175 124.113C403.175 123.524 402.942 122.959 402.526 122.543C402.11 122.127 401.546 121.893 400.959 121.893C400.371 121.893 399.807 122.127 399.391 122.543C398.976 122.959 398.742 123.524 398.742 124.113C398.742 124.702 398.976 125.266 399.391 125.683C399.807 126.099 400.371 126.333 400.959 126.333Z" fill="#A79AAC"/>
<path d="M400.959 126.333C401.546 126.333 402.11 126.099 402.526 125.683C402.942 125.266 403.175 124.702 403.175 124.113C403.175 123.524 402.942 122.959 402.526 122.543C402.11 122.127 401.546 121.893 400.959 121.893C400.371 121.893 399.807 122.127 399.391 122.543C398.976 122.959 398.742 123.524 398.742 124.113C398.742 124.702 398.976 125.266 399.391 125.683C399.807 126.099 400.371 126.333 400.959 126.333Z" fill="url(#paint27_radial_108_134)"/>
<path d="M400.959 126.333C401.546 126.333 402.11 126.099 402.526 125.683C402.942 125.266 403.175 124.702 403.175 124.113C403.175 123.524 402.942 122.959 402.526 122.543C402.11 122.127 401.546 121.893 400.959 121.893C400.371 121.893 399.807 122.127 399.391 122.543C398.976 122.959 398.742 123.524 398.742 124.113C398.742 124.702 398.976 125.266 399.391 125.683C399.807 126.099 400.371 126.333 400.959 126.333Z" fill="url(#paint28_radial_108_134)"/>
<path d="M400.959 126.333C401.546 126.333 402.11 126.099 402.526 125.683C402.942 125.266 403.175 124.702 403.175 124.113C403.175 123.524 402.942 122.959 402.526 122.543C402.11 122.127 401.546 121.893 400.959 121.893C400.371 121.893 399.807 122.127 399.391 122.543C398.976 122.959 398.742 123.524 398.742 124.113C398.742 124.702 398.976 125.266 399.391 125.683C399.807 126.099 400.371 126.333 400.959 126.333Z" fill="url(#paint29_radial_108_134)"/>
<path d="M400.959 126.333C401.546 126.333 402.11 126.099 402.526 125.683C402.942 125.266 403.175 124.702 403.175 124.113C403.175 123.524 402.942 122.959 402.526 122.543C402.11 122.127 401.546 121.893 400.959 121.893C400.371 121.893 399.807 122.127 399.391 122.543C398.976 122.959 398.742 123.524 398.742 124.113C398.742 124.702 398.976 125.266 399.391 125.683C399.807 126.099 400.371 126.333 400.959 126.333Z" fill="url(#paint30_radial_108_134)"/>
</g>
<g filter="url(#filter13_i_108_134)">
<path d="M398.529 114.36C398.414 114.24 398.336 114.089 398.303 113.926C398.271 113.763 398.286 113.594 398.347 113.439C402.21 103.516 394.276 95 385.464 95C378.007 95 372 101.059 372 108.529C372 115.999 378.007 122.058 385.464 122.058C387.32 122.058 388.661 122.05 390.169 121.436C390.328 121.369 390.502 121.35 390.672 121.381C390.841 121.412 390.998 121.492 391.124 121.61L393.584 124.042C393.74 124.196 393.95 124.282 394.168 124.281C394.386 124.281 394.596 124.194 394.751 124.04L400.901 117.912C400.978 117.835 401.039 117.744 401.081 117.643C401.123 117.542 401.145 117.433 401.145 117.324C401.145 117.215 401.123 117.107 401.081 117.006C401.039 116.905 400.978 116.813 400.901 116.736L398.529 114.36ZM385.485 114.816C382.026 114.816 379.209 111.994 379.209 108.529C379.209 105.064 382.026 102.242 385.485 102.242C388.944 102.242 391.762 105.064 391.762 108.529C391.762 112.015 388.944 114.816 385.485 114.816Z" fill="url(#paint31_linear_108_134)"/>
</g>
<g filter="url(#filter14_f_108_134)">
<path d="M387.386 118.159C393.03 118.159 397.605 113.576 397.605 107.923C397.605 102.269 393.03 97.6865 387.386 97.6865C381.743 97.6865 377.168 102.269 377.168 107.923C377.168 113.576 381.743 118.159 387.386 118.159Z" stroke="url(#paint32_linear_108_134)" stroke-width="0.75"/>
<path d="M387.386 118.159C393.03 118.159 397.605 113.576 397.605 107.923C397.605 102.269 393.03 97.6865 387.386 97.6865C381.743 97.6865 377.168 102.269 377.168 107.923C377.168 113.576 381.743 118.159 387.386 118.159Z" stroke="url(#paint33_linear_108_134)" stroke-width="0.75"/>
</g>
<g filter="url(#filter15_f_108_134)">
<path d="M418.607 118.34C424.29 117.897 428.537 112.923 428.094 107.231C427.652 101.539 422.686 97.2838 417.004 97.7273C411.322 98.1708 407.074 103.145 407.517 108.837C407.96 114.529 412.925 118.784 418.607 118.34Z" stroke="url(#paint34_linear_108_134)" stroke-width="0.75"/>
<path d="M418.607 118.34C424.29 117.897 428.537 112.923 428.094 107.231C427.652 101.539 422.686 97.2838 417.004 97.7273C411.322 98.1708 407.074 103.145 407.517 108.837C407.96 114.529 412.925 118.784 418.607 118.34Z" stroke="url(#paint35_linear_108_134)" stroke-width="0.75"/>
</g>
<g filter="url(#filter16_f_108_134)">
<path d="M391.308 119.551C392.339 118.872 394.858 116.947 396.677 114.677" stroke="#FF683C" stroke-width="0.75"/>
</g>
<g filter="url(#filter17_f_108_134)">
<path d="M410.744 120.111C409.752 119.375 407.349 117.308 405.663 114.938" stroke="url(#paint36_linear_108_134)" stroke-width="0.75"/>
</g>
</g>
<path d="M148.312 212V185.72H156.448C158.008 185.72 159.376 186.044 160.552 186.692C161.728 187.316 162.64 188.192 163.288 189.32C163.936 190.448 164.26 191.768 164.26 193.28C164.26 195.056 163.792 196.58 162.856 197.852C161.944 199.124 160.696 200 159.112 200.48L164.62 212H160.804L155.764 200.84H151.552V212H148.312ZM151.552 197.924H156.448C157.792 197.924 158.872 197.504 159.688 196.664C160.504 195.8 160.912 194.672 160.912 193.28C160.912 191.864 160.504 190.736 159.688 189.896C158.872 189.056 157.792 188.636 156.448 188.636H151.552V197.924ZM177.386 212.288C175.802 212.288 174.434 211.988 173.282 211.388C172.13 210.788 171.23 209.924 170.582 208.796C169.958 207.644 169.646 206.288 169.646 204.728V199.472C169.646 197.888 169.958 196.532 170.582 195.404C171.23 194.276 172.13 193.412 173.282 192.812C174.434 192.212 175.802 191.912 177.386 191.912C178.97 191.912 180.338 192.212 181.49 192.812C182.642 193.412 183.53 194.276 184.154 195.404C184.802 196.532 185.126 197.876 185.126 199.436V204.728C185.126 206.288 184.802 207.644 184.154 208.796C183.53 209.924 182.642 210.788 181.49 211.388C180.338 211.988 178.97 212.288 177.386 212.288ZM177.386 209.408C178.802 209.408 179.906 209.012 180.698 208.22C181.49 207.428 181.886 206.264 181.886 204.728V199.472C181.886 197.936 181.49 196.772 180.698 195.98C179.906 195.188 178.802 194.792 177.386 194.792C175.994 194.792 174.89 195.188 174.074 195.98C173.282 196.772 172.886 197.936 172.886 199.472V204.728C172.886 206.264 173.282 207.428 174.074 208.22C174.89 209.012 175.994 209.408 177.386 209.408ZM199.116 212.36C197.532 212.36 196.14 212.06 194.94 211.46C193.764 210.86 192.852 209.996 192.204 208.868C191.556 207.716 191.232 206.36 191.232 204.8V199.4C191.232 197.816 191.556 196.46 192.204 195.332C192.852 194.204 193.764 193.34 194.94 192.74C196.14 192.14 197.532 191.84 199.116 191.84C201.396 191.84 203.232 192.452 204.624 193.676C206.016 194.9 206.748 196.568 206.82 198.68H203.58C203.508 197.408 203.076 196.436 202.284 195.764C201.516 195.068 200.46 194.72 199.116 194.72C197.7 194.72 196.572 195.128 195.732 195.944C194.892 196.736 194.472 197.876 194.472 199.364V204.8C194.472 206.288 194.892 207.44 195.732 208.256C196.572 209.072 197.7 209.48 199.116 209.48C200.46 209.48 201.516 209.132 202.284 208.436C203.076 207.74 203.508 206.768 203.58 205.52H206.82C206.748 207.632 206.016 209.3 204.624 210.524C203.232 211.748 201.396 212.36 199.116 212.36ZM213.178 212V185.72H216.418V200.372H220.234L225.994 192.2H229.702L223.042 201.632L229.81 212H226.03L220.27 203.18H216.418V212H213.178ZM236.384 201.56V198.68H247.904V201.56H236.384ZM256.242 212V185.72H264.702C266.334 185.72 267.75 186.044 268.95 186.692C270.15 187.316 271.074 188.204 271.722 189.356C272.394 190.508 272.73 191.876 272.73 193.46C272.73 195.02 272.394 196.388 271.722 197.564C271.074 198.716 270.15 199.616 268.95 200.264C267.75 200.888 266.334 201.2 264.702 201.2H259.482V212H256.242ZM259.482 198.284H264.702C266.118 198.284 267.246 197.852 268.086 196.988C268.95 196.1 269.382 194.924 269.382 193.46C269.382 191.972 268.95 190.796 268.086 189.932C267.246 189.068 266.118 188.636 264.702 188.636H259.482V198.284ZM283.588 212.36C281.5 212.36 279.856 211.832 278.656 210.776C277.456 209.696 276.856 208.244 276.856 206.42C276.856 204.572 277.456 203.12 278.656 202.064C279.856 201.008 281.476 200.48 283.516 200.48H289.636V198.5C289.636 197.276 289.264 196.34 288.52 195.692C287.8 195.02 286.768 194.684 285.424 194.684C284.248 194.684 283.264 194.936 282.472 195.44C281.68 195.92 281.224 196.58 281.104 197.42H277.864C278.08 195.716 278.884 194.36 280.276 193.352C281.668 192.344 283.408 191.84 285.496 191.84C287.776 191.84 289.576 192.428 290.896 193.604C292.216 194.78 292.876 196.376 292.876 198.392V212H289.708V208.22H289.168L289.708 207.68C289.708 209.12 289.144 210.26 288.016 211.1C286.912 211.94 285.436 212.36 283.588 212.36ZM284.38 209.804C285.916 209.804 287.176 209.42 288.16 208.652C289.144 207.884 289.636 206.9 289.636 205.7V202.892H283.588C282.508 202.892 281.656 203.192 281.032 203.792C280.408 204.392 280.096 205.208 280.096 206.24C280.096 207.344 280.468 208.22 281.212 208.868C281.98 209.492 283.036 209.804 284.38 209.804ZM299.414 218.48V192.2H302.654V195.98H303.302L302.654 196.736C302.654 195.224 303.146 194.036 304.13 193.172C305.138 192.284 306.458 191.84 308.09 191.84C310.082 191.84 311.666 192.5 312.842 193.82C314.042 195.116 314.642 196.904 314.642 199.184V204.98C314.642 206.492 314.366 207.8 313.814 208.904C313.286 210.008 312.53 210.86 311.546 211.46C310.586 212.06 309.434 212.36 308.09 212.36C306.482 212.36 305.174 211.916 304.166 211.028C303.158 210.14 302.654 208.952 302.654 207.464L303.302 208.22H302.582L302.654 212.72V218.48H299.414ZM307.01 209.552C308.378 209.552 309.446 209.144 310.214 208.328C311.006 207.512 311.402 206.336 311.402 204.8V199.4C311.402 197.864 311.006 196.688 310.214 195.872C309.446 195.056 308.378 194.648 307.01 194.648C305.69 194.648 304.634 195.068 303.842 195.908C303.05 196.748 302.654 197.912 302.654 199.4V204.8C302.654 206.288 303.05 207.452 303.842 208.292C304.634 209.132 305.69 209.552 307.01 209.552ZM328.488 212.36C326.928 212.36 325.56 212.048 324.384 211.424C323.232 210.8 322.332 209.924 321.684 208.796C321.06 207.644 320.748 206.312 320.748 204.8V199.4C320.748 197.864 321.06 196.532 321.684 195.404C322.332 194.276 323.232 193.4 324.384 192.776C325.56 192.152 326.928 191.84 328.488 191.84C330.048 191.84 331.404 192.152 332.556 192.776C333.732 193.4 334.632 194.276 335.256 195.404C335.904 196.532 336.228 197.864 336.228 199.4V202.892H323.916V204.8C323.916 206.36 324.312 207.56 325.104 208.4C325.896 209.216 327.024 209.624 328.488 209.624C329.736 209.624 330.744 209.408 331.512 208.976C332.28 208.52 332.748 207.848 332.916 206.96H336.156C335.94 208.616 335.124 209.936 333.708 210.92C332.316 211.88 330.576 212.36 328.488 212.36ZM333.06 200.732V199.4C333.06 197.84 332.664 196.64 331.872 195.8C331.104 194.96 329.976 194.54 328.488 194.54C327.024 194.54 325.896 194.96 325.104 195.8C324.312 196.64 323.916 197.84 323.916 199.4V200.444H333.312L333.06 200.732ZM343.269 212V192.2H346.437V195.98H347.193L346.149 198.32C346.149 196.184 346.605 194.576 347.517 193.496C348.453 192.392 349.833 191.84 351.657 191.84C353.745 191.84 355.401 192.5 356.625 193.82C357.873 195.116 358.497 196.88 358.497 199.112V200.3H355.257V199.4C355.257 197.84 354.873 196.652 354.105 195.836C353.361 194.996 352.293 194.576 350.901 194.576C349.533 194.576 348.453 194.996 347.661 195.836C346.893 196.676 346.509 197.864 346.509 199.4V212H343.269ZM365.899 201.56V198.68H377.419V201.56H365.899ZM393.389 212.36C391.661 212.36 390.173 212.072 388.925 211.496C387.701 210.92 386.753 210.092 386.081 209.012C385.409 207.932 385.061 206.648 385.037 205.16H388.277C388.277 206.48 388.721 207.524 389.609 208.292C390.521 209.06 391.781 209.444 393.389 209.444C394.901 209.444 396.077 209.072 396.917 208.328C397.781 207.584 398.213 206.552 398.213 205.232C398.213 204.176 397.925 203.252 397.349 202.46C396.797 201.668 395.993 201.116 394.937 200.804L391.373 199.688C389.573 199.136 388.181 198.212 387.197 196.916C386.237 195.62 385.757 194.096 385.757 192.344C385.757 190.928 386.069 189.704 386.693 188.672C387.341 187.616 388.241 186.8 389.393 186.224C390.545 185.624 391.901 185.324 393.461 185.324C395.765 185.324 397.613 185.972 399.005 187.268C400.397 188.54 401.105 190.244 401.129 192.38H397.889C397.889 191.084 397.493 190.076 396.701 189.356C395.933 188.612 394.841 188.24 393.425 188.24C392.033 188.24 390.941 188.576 390.149 189.248C389.381 189.92 388.997 190.856 388.997 192.056C388.997 193.136 389.285 194.072 389.861 194.864C390.437 195.656 391.265 196.22 392.345 196.556L395.945 197.708C397.697 198.26 399.053 199.196 400.013 200.516C400.973 201.836 401.453 203.384 401.453 205.16C401.453 206.6 401.117 207.86 400.445 208.94C399.773 210.02 398.825 210.86 397.601 211.46C396.401 212.06 394.997 212.36 393.389 212.36ZM414.975 212.36C413.391 212.36 411.999 212.06 410.799 211.46C409.623 210.86 408.711 209.996 408.063 208.868C407.415 207.716 407.091 206.36 407.091 204.8V199.4C407.091 197.816 407.415 196.46 408.063 195.332C408.711 194.204 409.623 193.34 410.799 192.74C411.999 192.14 413.391 191.84 414.975 191.84C417.255 191.84 419.091 192.452 420.483 193.676C421.875 194.9 422.607 196.568 422.679 198.68H419.439C419.367 197.408 418.935 196.436 418.143 195.764C417.375 195.068 416.319 194.72 414.975 194.72C413.559 194.72 412.431 195.128 411.591 195.944C410.751 196.736 410.331 197.876 410.331 199.364V204.8C410.331 206.288 410.751 207.44 411.591 208.256C412.431 209.072 413.559 209.48 414.975 209.48C416.319 209.48 417.375 209.132 418.143 208.436C418.935 207.74 419.367 206.768 419.439 205.52H422.679C422.607 207.632 421.875 209.3 420.483 210.524C419.091 211.748 417.255 212.36 414.975 212.36ZM428.677 212V209.048H435.697V195.152H429.577V192.2H438.937V209.048H445.597V212H428.677ZM436.957 188.636C436.165 188.636 435.541 188.432 435.085 188.024C434.629 187.616 434.401 187.064 434.401 186.368C434.401 185.648 434.629 185.084 435.085 184.676C435.541 184.244 436.165 184.028 436.957 184.028C437.749 184.028 438.373 184.244 438.829 184.676C439.285 185.084 439.513 185.648 439.513 186.368C439.513 187.064 439.285 187.616 438.829 188.024C438.373 188.432 437.749 188.636 436.957 188.636ZM457.391 212.288C456.047 212.288 454.871 212.084 453.863 211.676C452.879 211.244 452.087 210.644 451.487 209.876C450.911 209.108 450.563 208.196 450.443 207.14H453.683C453.827 207.836 454.211 208.388 454.835 208.796C455.483 209.204 456.335 209.408 457.391 209.408H458.903C460.175 209.408 461.123 209.156 461.747 208.652C462.371 208.124 462.683 207.428 462.683 206.564C462.683 205.724 462.395 205.064 461.819 204.584C461.267 204.08 460.439 203.744 459.335 203.576L456.671 203.144C454.727 202.808 453.275 202.208 452.315 201.344C451.379 200.456 450.911 199.172 450.911 197.492C450.911 195.716 451.475 194.348 452.603 193.388C453.731 192.404 455.423 191.912 457.679 191.912H459.047C460.943 191.912 462.467 192.356 463.619 193.244C464.771 194.132 465.467 195.332 465.707 196.844H462.467C462.323 196.22 461.963 195.728 461.387 195.368C460.811 194.984 460.031 194.792 459.047 194.792H457.679C456.455 194.792 455.555 195.02 454.979 195.476C454.427 195.932 454.151 196.616 454.151 197.528C454.151 198.344 454.391 198.944 454.871 199.328C455.351 199.712 456.107 199.988 457.139 200.156L459.803 200.588C461.939 200.924 463.487 201.548 464.447 202.46C465.431 203.372 465.923 204.692 465.923 206.42C465.923 208.244 465.335 209.684 464.159 210.74C463.007 211.772 461.255 212.288 458.903 212.288H457.391ZM478.977 212.288C477.633 212.288 476.457 212.084 475.449 211.676C474.465 211.244 473.673 210.644 473.073 209.876C472.497 209.108 472.149 208.196 472.029 207.14H475.269C475.413 207.836 475.797 208.388 476.421 208.796C477.069 209.204 477.921 209.408 478.977 209.408H480.489C481.761 209.408 482.709 209.156 483.333 208.652C483.957 208.124 484.269 207.428 484.269 206.564C484.269 205.724 483.981 205.064 483.405 204.584C482.853 204.08 482.025 203.744 480.921 203.576L478.257 203.144C476.313 202.808 474.861 202.208 473.901 201.344C472.965 200.456 472.497 199.172 472.497 197.492C472.497 195.716 473.061 194.348 474.189 193.388C475.317 192.404 477.009 191.912 479.265 191.912H480.633C482.529 191.912 484.053 192.356 485.205 193.244C486.357 194.132 487.053 195.332 487.293 196.844H484.053C483.909 196.22 483.549 195.728 482.973 195.368C482.397 194.984 481.617 194.792 480.633 194.792H479.265C478.041 194.792 477.141 195.02 476.565 195.476C476.013 195.932 475.737 196.616 475.737 197.528C475.737 198.344 475.977 198.944 476.457 199.328C476.937 199.712 477.693 199.988 478.725 200.156L481.389 200.588C483.525 200.924 485.073 201.548 486.033 202.46C487.017 203.372 487.509 204.692 487.509 206.42C487.509 208.244 486.921 209.684 485.745 210.74C484.593 211.772 482.841 212.288 480.489 212.288H478.977ZM501.175 212.288C499.591 212.288 498.223 211.988 497.071 211.388C495.919 210.788 495.019 209.924 494.371 208.796C493.747 207.644 493.435 206.288 493.435 204.728V199.472C493.435 197.888 493.747 196.532 494.371 195.404C495.019 194.276 495.919 193.412 497.071 192.812C498.223 192.212 499.591 191.912 501.175 191.912C502.759 191.912 504.127 192.212 505.279 192.812C506.431 193.412 507.319 194.276 507.943 195.404C508.591 196.532 508.915 197.876 508.915 199.436V204.728C508.915 206.288 508.591 207.644 507.943 208.796C507.319 209.924 506.431 210.788 505.279 211.388C504.127 211.988 502.759 212.288 501.175 212.288ZM501.175 209.408C502.591 209.408 503.695 209.012 504.487 208.22C505.279 207.428 505.675 206.264 505.675 204.728V199.472C505.675 197.936 505.279 196.772 504.487 195.98C503.695 195.188 502.591 194.792 501.175 194.792C499.783 194.792 498.679 195.188 497.863 195.98C497.071 196.772 496.675 197.936 496.675 199.472V204.728C496.675 206.264 497.071 207.428 497.863 208.22C498.679 209.012 499.783 209.408 501.175 209.408ZM515.957 212V192.2H519.125V195.98H519.881L518.837 198.32C518.837 196.184 519.293 194.576 520.205 193.496C521.141 192.392 522.521 191.84 524.345 191.84C526.433 191.84 528.089 192.5 529.313 193.82C530.561 195.116 531.185 196.88 531.185 199.112V200.3H527.945V199.4C527.945 197.84 527.561 196.652 526.793 195.836C526.049 194.996 524.981 194.576 523.589 194.576C522.221 194.576 521.141 194.996 520.349 195.836C519.581 196.676 519.197 197.864 519.197 199.4V212H515.957ZM543.735 212.288C542.391 212.288 541.215 212.084 540.207 211.676C539.223 211.244 538.431 210.644 537.831 209.876C537.255 209.108 536.907 208.196 536.787 207.14H540.027C540.171 207.836 540.555 208.388 541.179 208.796C541.827 209.204 542.679 209.408 543.735 209.408H545.247C546.519 209.408 547.467 209.156 548.091 208.652C548.715 208.124 549.027 207.428 549.027 206.564C549.027 205.724 548.739 205.064 548.163 204.584C547.611 204.08 546.783 203.744 545.679 203.576L543.015 203.144C541.071 202.808 539.619 202.208 538.659 201.344C537.723 200.456 537.255 199.172 537.255 197.492C537.255 195.716 537.819 194.348 538.947 193.388C540.075 192.404 541.767 191.912 544.023 191.912H545.391C547.287 191.912 548.811 192.356 549.963 193.244C551.115 194.132 551.811 195.332 552.051 196.844H548.811C548.667 196.22 548.307 195.728 547.731 195.368C547.155 194.984 546.375 194.792 545.391 194.792H544.023C542.799 194.792 541.899 195.02 541.323 195.476C540.771 195.932 540.495 196.616 540.495 197.528C540.495 198.344 540.735 198.944 541.215 199.328C541.695 199.712 542.451 199.988 543.483 200.156L546.147 200.588C548.283 200.924 549.831 201.548 550.791 202.46C551.775 203.372 552.267 204.692 552.267 206.42C552.267 208.244 551.679 209.684 550.503 210.74C549.351 211.772 547.599 212.288 545.247 212.288H543.735Z" fill="white"/>
<path d="M234.864 239.16C234.16 239.16 233.541 239.027 233.008 238.76C232.485 238.493 232.08 238.109 231.792 237.608C231.504 237.096 231.36 236.493 231.36 235.8V233.4C231.36 232.696 231.504 232.093 231.792 231.592C232.08 231.091 232.485 230.707 233.008 230.44C233.541 230.173 234.16 230.04 234.864 230.04C235.877 230.04 236.693 230.312 237.312 230.856C237.931 231.4 238.256 232.141 238.288 233.08H236.848C236.816 232.515 236.624 232.083 236.272 231.784C235.931 231.475 235.461 231.32 234.864 231.32C234.235 231.32 233.733 231.501 233.36 231.864C232.987 232.216 232.8 232.723 232.8 233.384V235.8C232.8 236.461 232.987 236.973 233.36 237.336C233.733 237.699 234.235 237.88 234.864 237.88C235.461 237.88 235.931 237.725 236.272 237.416C236.624 237.107 236.816 236.675 236.848 236.12H238.288C238.256 237.059 237.931 237.8 237.312 238.344C236.693 238.888 235.877 239.16 234.864 239.16ZM245.594 239C245.082 239 244.634 238.899 244.25 238.696C243.866 238.493 243.567 238.205 243.354 237.832C243.14 237.459 243.034 237.021 243.034 236.52V228.632H240.074V227.32H244.474V236.52C244.474 236.883 244.575 237.171 244.778 237.384C244.98 237.587 245.252 237.688 245.594 237.688H248.394V239H245.594ZM250.548 239V237.688H253.668V231.512H250.948V230.2H255.108V237.688H258.068V239H250.548ZM254.228 228.616C253.876 228.616 253.598 228.525 253.396 228.344C253.193 228.163 253.092 227.917 253.092 227.608C253.092 227.288 253.193 227.037 253.396 226.856C253.598 226.664 253.876 226.568 254.228 226.568C254.58 226.568 254.857 226.664 255.06 226.856C255.262 227.037 255.364 227.288 255.364 227.608C255.364 227.917 255.262 228.163 255.06 228.344C254.857 228.525 254.58 228.616 254.228 228.616ZM263.581 239.16C262.888 239.16 262.28 239.021 261.757 238.744C261.245 238.467 260.845 238.077 260.557 237.576C260.28 237.064 260.141 236.472 260.141 235.8V233.4C260.141 232.717 260.28 232.125 260.557 231.624C260.845 231.123 261.245 230.733 261.757 230.456C262.28 230.179 262.888 230.04 263.581 230.04C264.275 230.04 264.877 230.179 265.389 230.456C265.912 230.733 266.312 231.123 266.589 231.624C266.877 232.125 267.021 232.717 267.021 233.4V234.952H261.549V235.8C261.549 236.493 261.725 237.027 262.077 237.4C262.429 237.763 262.931 237.944 263.581 237.944C264.136 237.944 264.584 237.848 264.925 237.656C265.267 237.453 265.475 237.155 265.549 236.76H266.989C266.893 237.496 266.531 238.083 265.901 238.52C265.283 238.947 264.509 239.16 263.581 239.16ZM265.613 233.992V233.4C265.613 232.707 265.437 232.173 265.085 231.8C264.744 231.427 264.243 231.24 263.581 231.24C262.931 231.24 262.429 231.427 262.077 231.8C261.725 232.173 261.549 232.707 261.549 233.4V233.864H265.725L265.613 233.992ZM269.847 239V230.2H271.287V231.88H271.591L271.287 232.216C271.287 231.523 271.495 230.989 271.911 230.616C272.327 230.232 272.903 230.04 273.639 230.04C274.524 230.04 275.228 230.312 275.751 230.856C276.274 231.4 276.535 232.141 276.535 233.08V239H275.095V233.24C275.095 232.611 274.924 232.131 274.583 231.8C274.252 231.459 273.799 231.288 273.223 231.288C272.626 231.288 272.151 231.469 271.799 231.832C271.458 232.195 271.287 232.717 271.287 233.4V239H269.847ZM283.729 239C282.971 239 282.379 238.797 281.953 238.392C281.537 237.987 281.329 237.416 281.329 236.68V231.512H278.849V230.2H281.329V227.72H282.769V230.2H286.289V231.512H282.769V236.68C282.769 237.352 283.089 237.688 283.729 237.688H286.129V239H283.729ZM289.803 234.36V233.08H294.923V234.36H289.803ZM301.684 239.128C301.087 239.128 300.564 239.037 300.116 238.856C299.679 238.664 299.327 238.397 299.06 238.056C298.804 237.715 298.65 237.309 298.596 236.84H300.036C300.1 237.149 300.271 237.395 300.548 237.576C300.836 237.757 301.215 237.848 301.684 237.848H302.356C302.922 237.848 303.343 237.736 303.62 237.512C303.898 237.277 304.036 236.968 304.036 236.584C304.036 236.211 303.908 235.917 303.652 235.704C303.407 235.48 303.039 235.331 302.548 235.256L301.364 235.064C300.5 234.915 299.855 234.648 299.428 234.264C299.012 233.869 298.804 233.299 298.804 232.552C298.804 231.763 299.055 231.155 299.556 230.728C300.058 230.291 300.81 230.072 301.812 230.072H302.42C303.263 230.072 303.94 230.269 304.452 230.664C304.964 231.059 305.274 231.592 305.38 232.264H303.94C303.876 231.987 303.716 231.768 303.46 231.608C303.204 231.437 302.858 231.352 302.42 231.352H301.812C301.268 231.352 300.868 231.453 300.612 231.656C300.367 231.859 300.244 232.163 300.244 232.568C300.244 232.931 300.351 233.197 300.564 233.368C300.778 233.539 301.114 233.661 301.572 233.736L302.756 233.928C303.706 234.077 304.394 234.355 304.82 234.76C305.258 235.165 305.476 235.752 305.476 236.52C305.476 237.331 305.215 237.971 304.692 238.44C304.18 238.899 303.402 239.128 302.356 239.128H301.684ZM311.55 239.16C310.857 239.16 310.249 239.021 309.726 238.744C309.214 238.467 308.814 238.077 308.526 237.576C308.249 237.064 308.11 236.472 308.11 235.8V233.4C308.11 232.717 308.249 232.125 308.526 231.624C308.814 231.123 309.214 230.733 309.726 230.456C310.249 230.179 310.857 230.04 311.55 230.04C312.243 230.04 312.846 230.179 313.358 230.456C313.881 230.733 314.281 231.123 314.558 231.624C314.846 232.125 314.99 232.717 314.99 233.4V234.952H309.518V235.8C309.518 236.493 309.694 237.027 310.046 237.4C310.398 237.763 310.899 237.944 311.55 237.944C312.105 237.944 312.553 237.848 312.894 237.656C313.235 237.453 313.443 237.155 313.518 236.76H314.958C314.862 237.496 314.499 238.083 313.87 238.52C313.251 238.947 312.478 239.16 311.55 239.16ZM313.582 233.992V233.4C313.582 232.707 313.406 232.173 313.054 231.8C312.713 231.427 312.211 231.24 311.55 231.24C310.899 231.24 310.398 231.427 310.046 231.8C309.694 232.173 309.518 232.707 309.518 233.4V233.864H313.694L313.582 233.992ZM318.12 239V230.2H319.528V231.88H319.864L319.4 232.92C319.4 231.971 319.602 231.256 320.008 230.776C320.424 230.285 321.037 230.04 321.848 230.04C322.776 230.04 323.512 230.333 324.056 230.92C324.61 231.496 324.888 232.28 324.888 233.272V233.8H323.448V233.4C323.448 232.707 323.277 232.179 322.936 231.816C322.605 231.443 322.13 231.256 321.512 231.256C320.904 231.256 320.424 231.443 320.072 231.816C319.73 232.189 319.56 232.717 319.56 233.4V239H318.12ZM329.762 239L326.818 230.2H328.289L330.242 236.12C330.359 236.472 330.466 236.813 330.562 237.144C330.658 237.464 330.727 237.715 330.77 237.896C330.823 237.715 330.898 237.464 330.994 237.144C331.09 236.813 331.191 236.472 331.298 236.12L333.202 230.2H334.658L331.714 239H329.762ZM340.331 239.16C339.638 239.16 339.03 239.021 338.507 238.744C337.995 238.467 337.595 238.077 337.307 237.576C337.03 237.064 336.891 236.472 336.891 235.8V233.4C336.891 232.717 337.03 232.125 337.307 231.624C337.595 231.123 337.995 230.733 338.507 230.456C339.03 230.179 339.638 230.04 340.331 230.04C341.025 230.04 341.627 230.179 342.139 230.456C342.662 230.733 343.062 231.123 343.339 231.624C343.627 232.125 343.771 232.717 343.771 233.4V234.952H338.299V235.8C338.299 236.493 338.475 237.027 338.827 237.4C339.179 237.763 339.681 237.944 340.331 237.944C340.886 237.944 341.334 237.848 341.675 237.656C342.017 237.453 342.225 237.155 342.299 236.76H343.739C343.643 237.496 343.281 238.083 342.651 238.52C342.033 238.947 341.259 239.16 340.331 239.16ZM342.363 233.992V233.4C342.363 232.707 342.187 232.173 341.835 231.8C341.494 231.427 340.993 231.24 340.331 231.24C339.681 231.24 339.179 231.427 338.827 231.8C338.475 232.173 338.299 232.707 338.299 233.4V233.864H342.475L342.363 233.992ZM346.901 239V230.2H348.309V231.88H348.645L348.181 232.92C348.181 231.971 348.384 231.256 348.789 230.776C349.205 230.285 349.818 230.04 350.629 230.04C351.557 230.04 352.293 230.333 352.837 230.92C353.392 231.496 353.669 232.28 353.669 233.272V233.8H352.229V233.4C352.229 232.707 352.058 232.179 351.717 231.816C351.386 231.443 350.912 231.256 350.293 231.256C349.685 231.256 349.205 231.443 348.853 231.816C348.512 232.189 348.341 232.717 348.341 233.4V239H346.901ZM368.345 239.16C367.417 239.16 366.686 238.925 366.153 238.456C365.619 237.976 365.353 237.331 365.353 236.52C365.353 235.699 365.619 235.053 366.153 234.584C366.686 234.115 367.406 233.88 368.312 233.88H371.033V233C371.033 232.456 370.867 232.04 370.537 231.752C370.217 231.453 369.758 231.304 369.161 231.304C368.638 231.304 368.201 231.416 367.849 231.64C367.497 231.853 367.294 232.147 367.241 232.52H365.801C365.897 231.763 366.254 231.16 366.873 230.712C367.491 230.264 368.265 230.04 369.193 230.04C370.206 230.04 371.006 230.301 371.593 230.824C372.179 231.347 372.473 232.056 372.473 232.952V239H371.065V237.32H370.825L371.065 237.08C371.065 237.72 370.814 238.227 370.313 238.6C369.822 238.973 369.166 239.16 368.345 239.16ZM368.697 238.024C369.379 238.024 369.939 237.853 370.377 237.512C370.814 237.171 371.033 236.733 371.033 236.2V234.952H368.345C367.865 234.952 367.486 235.085 367.209 235.352C366.931 235.619 366.793 235.981 366.793 236.44C366.793 236.931 366.958 237.32 367.289 237.608C367.63 237.885 368.099 238.024 368.697 238.024ZM375.378 241.88V230.2H376.818V231.88H377.106L376.818 232.216C376.818 231.544 377.037 231.016 377.474 230.632C377.922 230.237 378.509 230.04 379.234 230.04C380.12 230.04 380.824 230.333 381.346 230.92C381.88 231.496 382.146 232.291 382.146 233.304V235.88C382.146 236.552 382.024 237.133 381.778 237.624C381.544 238.115 381.208 238.493 380.77 238.76C380.344 239.027 379.832 239.16 379.234 239.16C378.52 239.16 377.938 238.963 377.49 238.568C377.042 238.173 376.818 237.645 376.818 236.984L377.106 237.32H376.786L376.818 239.32V241.88H375.378ZM378.754 237.912C379.362 237.912 379.837 237.731 380.178 237.368C380.53 237.005 380.706 236.483 380.706 235.8V233.4C380.706 232.717 380.53 232.195 380.178 231.832C379.837 231.469 379.362 231.288 378.754 231.288C378.168 231.288 377.698 231.475 377.346 231.848C376.994 232.221 376.818 232.739 376.818 233.4V235.8C376.818 236.461 376.994 236.979 377.346 237.352C377.698 237.725 378.168 237.912 378.754 237.912ZM384.972 241.88V230.2H386.412V231.88H386.7L386.412 232.216C386.412 231.544 386.631 231.016 387.068 230.632C387.516 230.237 388.103 230.04 388.828 230.04C389.713 230.04 390.417 230.333 390.94 230.92C391.473 231.496 391.74 232.291 391.74 233.304V235.88C391.74 236.552 391.617 237.133 391.372 237.624C391.137 238.115 390.801 238.493 390.364 238.76C389.937 239.027 389.425 239.16 388.828 239.16C388.113 239.16 387.532 238.963 387.084 238.568C386.636 238.173 386.412 237.645 386.412 236.984L386.7 237.32H386.38L386.412 239.32V241.88H384.972ZM388.348 237.912C388.956 237.912 389.431 237.731 389.772 237.368C390.124 237.005 390.3 236.483 390.3 235.8V233.4C390.3 232.717 390.124 232.195 389.772 231.832C389.431 231.469 388.956 231.288 388.348 231.288C387.761 231.288 387.292 231.475 386.94 231.848C386.588 232.221 386.412 232.739 386.412 233.4V235.8C386.412 236.461 386.588 236.979 386.94 237.352C387.292 237.725 387.761 237.912 388.348 237.912ZM399.094 239C398.582 239 398.134 238.899 397.75 238.696C397.366 238.493 397.067 238.205 396.854 237.832C396.64 237.459 396.534 237.021 396.534 236.52V228.632H393.574V227.32H397.974V236.52C397.974 236.883 398.075 237.171 398.278 237.384C398.48 237.587 398.752 237.688 399.094 237.688H401.894V239H399.094ZM404.048 239V237.688H407.168V231.512H404.448V230.2H408.608V237.688H411.568V239H404.048ZM407.728 228.616C407.376 228.616 407.098 228.525 406.896 228.344C406.693 228.163 406.592 227.917 406.592 227.608C406.592 227.288 406.693 227.037 406.896 226.856C407.098 226.664 407.376 226.568 407.728 226.568C408.08 226.568 408.357 226.664 408.56 226.856C408.762 227.037 408.864 227.288 408.864 227.608C408.864 227.917 408.762 228.163 408.56 228.344C408.357 228.525 408.08 228.616 407.728 228.616ZM417.145 239.16C416.441 239.16 415.823 239.027 415.289 238.76C414.767 238.493 414.361 238.109 414.073 237.608C413.785 237.096 413.641 236.493 413.641 235.8V233.4C413.641 232.696 413.785 232.093 414.073 231.592C414.361 231.091 414.767 230.707 415.289 230.44C415.823 230.173 416.441 230.04 417.145 230.04C418.159 230.04 418.975 230.312 419.593 230.856C420.212 231.4 420.537 232.141 420.569 233.08H419.129C419.097 232.515 418.905 232.083 418.553 231.784C418.212 231.475 417.743 231.32 417.145 231.32C416.516 231.32 416.015 231.501 415.641 231.864C415.268 232.216 415.081 232.723 415.081 233.384V235.8C415.081 236.461 415.268 236.973 415.641 237.336C416.015 237.699 416.516 237.88 417.145 237.88C417.743 237.88 418.212 237.725 418.553 237.416C418.905 237.107 419.097 236.675 419.129 236.12H420.569C420.537 237.059 420.212 237.8 419.593 238.344C418.975 238.888 418.159 239.16 417.145 239.16ZM425.907 239.16C424.979 239.16 424.248 238.925 423.715 238.456C423.182 237.976 422.915 237.331 422.915 236.52C422.915 235.699 423.182 235.053 423.715 234.584C424.248 234.115 424.968 233.88 425.875 233.88H428.595V233C428.595 232.456 428.43 232.04 428.099 231.752C427.779 231.453 427.32 231.304 426.723 231.304C426.2 231.304 425.763 231.416 425.411 231.64C425.059 231.853 424.856 232.147 424.803 232.52H423.363C423.459 231.763 423.816 231.16 424.435 230.712C425.054 230.264 425.827 230.04 426.755 230.04C427.768 230.04 428.568 230.301 429.155 230.824C429.742 231.347 430.035 232.056 430.035 232.952V239H428.627V237.32H428.387L428.627 237.08C428.627 237.72 428.376 238.227 427.875 238.6C427.384 238.973 426.728 239.16 425.907 239.16ZM426.259 238.024C426.942 238.024 427.502 237.853 427.939 237.512C428.376 237.171 428.595 236.733 428.595 236.2V234.952H425.907C425.427 234.952 425.048 235.085 424.771 235.352C424.494 235.619 424.355 235.981 424.355 236.44C424.355 236.931 424.52 237.32 424.851 237.608C425.192 237.885 425.662 238.024 426.259 238.024ZM437.229 239C436.471 239 435.879 238.797 435.453 238.392C435.037 237.987 434.829 237.416 434.829 236.68V231.512H432.349V230.2H434.829V227.72H436.269V230.2H439.789V231.512H436.269V236.68C436.269 237.352 436.589 237.688 437.229 237.688H439.629V239H437.229ZM442.423 239V237.688H445.543V231.512H442.823V230.2H446.983V237.688H449.943V239H442.423ZM446.103 228.616C445.751 228.616 445.473 228.525 445.271 228.344C445.068 228.163 444.967 227.917 444.967 227.608C444.967 227.288 445.068 227.037 445.271 226.856C445.473 226.664 445.751 226.568 446.103 226.568C446.455 226.568 446.732 226.664 446.935 226.856C447.137 227.037 447.239 227.288 447.239 227.608C447.239 227.917 447.137 228.163 446.935 228.344C446.732 228.525 446.455 228.616 446.103 228.616ZM455.456 239.128C454.752 239.128 454.144 238.995 453.632 238.728C453.12 238.461 452.72 238.077 452.432 237.576C452.155 237.064 452.016 236.461 452.016 235.768V233.432C452.016 232.728 452.155 232.125 452.432 231.624C452.72 231.123 453.12 230.739 453.632 230.472C454.144 230.205 454.752 230.072 455.456 230.072C456.16 230.072 456.768 230.205 457.28 230.472C457.792 230.739 458.187 231.123 458.464 231.624C458.752 232.125 458.896 232.723 458.896 233.416V235.768C458.896 236.461 458.752 237.064 458.464 237.576C458.187 238.077 457.792 238.461 457.28 238.728C456.768 238.995 456.16 239.128 455.456 239.128ZM455.456 237.848C456.086 237.848 456.576 237.672 456.928 237.32C457.28 236.968 457.456 236.451 457.456 235.768V233.432C457.456 232.749 457.28 232.232 456.928 231.88C456.576 231.528 456.086 231.352 455.456 231.352C454.838 231.352 454.347 231.528 453.984 231.88C453.632 232.232 453.456 232.749 453.456 233.432V235.768C453.456 236.451 453.632 236.968 453.984 237.32C454.347 237.672 454.838 237.848 455.456 237.848ZM461.722 239V230.2H463.162V231.88H463.466L463.162 232.216C463.162 231.523 463.37 230.989 463.786 230.616C464.202 230.232 464.778 230.04 465.514 230.04C466.399 230.04 467.103 230.312 467.626 230.856C468.149 231.4 468.41 232.141 468.41 233.08V239H466.97V233.24C466.97 232.611 466.799 232.131 466.458 231.8C466.127 231.459 465.674 231.288 465.098 231.288C464.501 231.288 464.026 231.469 463.674 231.832C463.333 232.195 463.162 232.717 463.162 233.4V239H461.722Z" fill="white"/>
<defs>
<filter id="filter0_i_108_134" x="270" y="95" width="55.6725" height="55.9357" filterUnits="userSpaceOnUse" color-interpolation-filters="sRGB">
<feFlood flood-opacity="0" result="BackgroundImageFix"/>
<feBlend mode="normal" in="SourceGraphic" in2="BackgroundImageFix" result="shape"/>
<feColorMatrix in="SourceAlpha" type="matrix" values="0 0 0 0 0 0 0 0 0 0 0 0 0 0 0 0 0 0 127 0" result="hardAlpha"/>
<feOffset dx="0.1" dy="0.1"/>
<feGaussianBlur stdDeviation="0.2"/>
<feComposite in2="hardAlpha" operator="arithmetic" k2="-1" k3="1"/>
<feColorMatrix type="matrix" values="0 0 0 0 0.615686 0 0 0 0 0.615686 0 0 0 0 0.619608 0 0 0 1 0"/>
<feBlend mode="normal" in2="shape" result="effect1_innerShadow_108_134"/>
</filter>
<filter id="filter1_f_108_134" x="281.562" y="110.518" width="20.626" height="22.8181" filterUnits="userSpaceOnUse" color-interpolation-filters="sRGB">
<feFlood flood-opacity="0" result="BackgroundImageFix"/>
<feBlend mode="normal" in="SourceGraphic" in2="BackgroundImageFix" result="shape"/>
<feGaussianBlur stdDeviation="0.125" result="effect1_foregroundBlur_108_134"/>
</filter>
<filter id="filter2_f_108_134" x="295.594" y="100.018" width="20.718" height="21.1921" filterUnits="userSpaceOnUse" color-interpolation-filters="sRGB">
<feFlood flood-opacity="0" result="BackgroundImageFix"/>
<feBlend mode="normal" in="SourceGraphic" in2="BackgroundImageFix" result="shape"/>
<feGaussianBlur stdDeviation="0.125" result="effect1_foregroundBlur_108_134"/>
</filter>
<filter id="filter3_f_108_134" x="283.882" y="144.773" width="33.708" height="6.1001" filterUnits="userSpaceOnUse" color-interpolation-filters="sRGB">
<feFlood flood-opacity="0" result="BackgroundImageFix"/>
<feBlend mode="normal" in="SourceGraphic" in2="BackgroundImageFix" result="shape"/>
<feGaussianBlur stdDeviation="0.125" result="effect1_foregroundBlur_108_134"/>
</filter>
<filter id="filter4_f_108_134" x="295.512" y="100.221" width="11.7882" height="11.0382" filterUnits="userSpaceOnUse" color-interpolation-filters="sRGB">
<feFlood flood-opacity="0" result="BackgroundImageFix"/>
<feBlend mode="normal" in="SourceGraphic" in2="BackgroundImageFix" result="shape"/>
<feGaussianBlur stdDeviation="0.1" result="effect1_foregroundBlur_108_134"/>
</filter>
<filter id="filter5_f_108_134" x="283.626" y="120.709" width="36.624" height="24.564" filterUnits="userSpaceOnUse" color-interpolation-filters="sRGB">
<feFlood flood-opacity="0" result="BackgroundImageFix"/>
<feBlend mode="normal" in="SourceGraphic" in2="BackgroundImageFix" result="shape"/>
<feGaussianBlur stdDeviation="0.125" result="effect1_foregroundBlur_108_134"/>
</filter>
<filter id="filter6_iiii_108_134" x="329.9" y="118.7" width="44.244" height="56.2281" filterUnits="userSpaceOnUse" color-interpolation-filters="sRGB">
<feFlood flood-opacity="0" result="BackgroundImageFix"/>
<feBlend mode="normal" in="SourceGraphic" in2="BackgroundImageFix" result="shape"/>
<feColorMatrix in="SourceAlpha" type="matrix" values="0 0 0 0 0 0 0 0 0 0 0 0 0 0 0 0 0 0 127 0" result="hardAlpha"/>
<feOffset dx="0.3" dy="-0.3"/>
<feGaussianBlur stdDeviation="0.3"/>
<feComposite in2="hardAlpha" operator="arithmetic" k2="-1" k3="1"/>
<feColorMatrix type="matrix" values="0 0 0 0 0.807843 0 0 0 0 0.768627 0 0 0 0 0.85098 0 0 0 1 0"/>
<feBlend mode="normal" in2="shape" result="effect1_innerShadow_108_134"/>
<feColorMatrix in="SourceAlpha" type="matrix" values="0 0 0 0 0 0 0 0 0 0 0 0 0 0 0 0 0 0 127 0" result="hardAlpha"/>
<feOffset dx="0.1" dy="-0.1"/>
<feGaussianBlur stdDeviation="0.1"/>
<feComposite in2="hardAlpha" operator="arithmetic" k2="-1" k3="1"/>
<feColorMatrix type="matrix" values="0 0 0 0 0.709804 0 0 0 0 0.690196 0 0 0 0 0.733333 0 0 0 1 0"/>
<feBlend mode="normal" in2="effect1_innerShadow_108_134" result="effect2_innerShadow_108_134"/>
<feColorMatrix in="SourceAlpha" type="matrix" values="0 0 0 0 0 0 0 0 0 0 0 0 0 0 0 0 0 0 127 0" result="hardAlpha"/>
<feOffset dy="-0.1"/>
<feGaussianBlur stdDeviation="0.1"/>
<feComposite in2="hardAlpha" operator="arithmetic" k2="-1" k3="1"/>
<feColorMatrix type="matrix" values="0 0 0 0 0.72549 0 0 0 0 0.65098 0 0 0 0 0.8 0 0 0 1 0"/>
<feBlend mode="normal" in2="effect2_innerShadow_108_134" result="effect3_innerShadow_108_134"/>
<feColorMatrix in="SourceAlpha" type="matrix" values="0 0 0 0 0 0 0 0 0 0 0 0 0 0 0 0 0 0 127 0" result="hardAlpha"/>
<feOffset dx="-0.15" dy="0.15"/>
<feGaussianBlur stdDeviation="0.05"/>
<feComposite in2="hardAlpha" operator="arithmetic" k2="-1" k3="1"/>
<feColorMatrix type="matrix" values="0 0 0 0 0.952941 0 0 0 0 0.941176 0 0 0 0 0.964706 0 0 0 1 0"/>
<feBlend mode="normal" in2="effect3_innerShadow_108_134" result="effect4_innerShadow_108_134"/>
</filter>
<filter id="filter7_f_108_134" x="358.82" y="118.624" width="14.948" height="15.728" filterUnits="userSpaceOnUse" color-interpolation-filters="sRGB">
<feFlood flood-opacity="0" result="BackgroundImageFix"/>
<feBlend mode="normal" in="SourceGraphic" in2="BackgroundImageFix" result="shape"/>
<feGaussianBlur stdDeviation="0.25" result="effect1_foregroundBlur_108_134"/>
</filter>
<filter id="filter8_ii_108_134" x="359.464" y="118.904" width="14.4799" height="14.7279" filterUnits="userSpaceOnUse" color-interpolation-filters="sRGB">
<feFlood flood-opacity="0" result="BackgroundImageFix"/>
<feBlend mode="normal" in="SourceGraphic" in2="BackgroundImageFix" result="shape"/>
<feColorMatrix in="SourceAlpha" type="matrix" values="0 0 0 0 0 0 0 0 0 0 0 0 0 0 0 0 0 0 127 0" result="hardAlpha"/>
<feOffset dx="0.1"/>
<feGaussianBlur stdDeviation="0.075"/>
<feComposite in2="hardAlpha" operator="arithmetic" k2="-1" k3="1"/>
<feColorMatrix type="matrix" values="0 0 0 0 0.631373 0 0 0 0 0.611765 0 0 0 0 0.654902 0 0 0 1 0"/>
<feBlend mode="normal" in2="shape" result="effect1_innerShadow_108_134"/>
<feColorMatrix in="SourceAlpha" type="matrix" values="0 0 0 0 0 0 0 0 0 0 0 0 0 0 0 0 0 0 127 0" result="hardAlpha"/>
<feOffset dy="-0.1"/>
<feGaussianBlur stdDeviation="0.075"/>
<feComposite in2="hardAlpha" operator="arithmetic" k2="-1" k3="1"/>
<feColorMatrix type="matrix" values="0 0 0 0 0.752941 0 0 0 0 0.67451 0 0 0 0 0.835294 0 0 0 1 0"/>
<feBlend mode="normal" in2="effect1_innerShadow_108_134" result="effect2_innerShadow_108_134"/>
</filter>
<filter id="filter9_i_108_134" x="377.71" y="112.318" width="35.0639" height="38.0021" filterUnits="userSpaceOnUse" color-interpolation-filters="sRGB">
<feFlood flood-opacity="0" result="BackgroundImageFix"/>
<feBlend mode="normal" in="SourceGraphic" in2="BackgroundImageFix" result="shape"/>
<feColorMatrix in="SourceAlpha" type="matrix" values="0 0 0 0 0 0 0 0 0 0 0 0 0 0 0 0 0 0 127 0" result="hardAlpha"/>
<feOffset dx="0.05" dy="-0.05"/>
<feGaussianBlur stdDeviation="0.05"/>
<feComposite in2="hardAlpha" operator="arithmetic" k2="-1" k3="1"/>
<feColorMatrix type="matrix" values="0 0 0 0 0.631373 0 0 0 0 0.521569 0 0 0 0 0.733333 0 0 0 1 0"/>
<feBlend mode="normal" in2="shape" result="effect1_innerShadow_108_134"/>
</filter>
<filter id="filter10_i_108_134" x="401.192" y="95" width="29.2081" height="29.2698" filterUnits="userSpaceOnUse" color-interpolation-filters="sRGB">
<feFlood flood-opacity="0" result="BackgroundImageFix"/>
<feBlend mode="normal" in="SourceGraphic" in2="BackgroundImageFix" result="shape"/>
<feColorMatrix in="SourceAlpha" type="matrix" values="0 0 0 0 0 0 0 0 0 0 0 0 0 0 0 0 0 0 127 0" result="hardAlpha"/>
<feOffset dx="0.4"/>
<feGaussianBlur stdDeviation="0.4"/>
<feComposite in2="hardAlpha" operator="arithmetic" k2="-1" k3="1"/>
<feColorMatrix type="matrix" values="0 0 0 0 0.690196 0 0 0 0 0.211765 0 0 0 0 0.341176 0 0 0 1 0"/>
<feBlend mode="normal" in2="shape" result="effect1_innerShadow_108_134"/>
</filter>
<filter id="filter11_ii_108_134" x="389.267" y="112.193" width="34.9755" height="38.1767" filterUnits="userSpaceOnUse" color-interpolation-filters="sRGB">
<feFlood flood-opacity="0" result="BackgroundImageFix"/>
<feBlend mode="normal" in="SourceGraphic" in2="BackgroundImageFix" result="shape"/>
<feColorMatrix in="SourceAlpha" type="matrix" values="0 0 0 0 0 0 0 0 0 0 0 0 0 0 0 0 0 0 127 0" result="hardAlpha"/>
<feOffset dx="-0.05" dy="0.05"/>
<feGaussianBlur stdDeviation="0.05"/>
<feComposite in2="hardAlpha" operator="arithmetic" k2="-1" k3="1"/>
<feColorMatrix type="matrix" values="0 0 0 0 0.627451 0 0 0 0 0.592157 0 0 0 0 0.658824 0 0 0 1 0"/>
<feBlend mode="normal" in2="shape" result="effect1_innerShadow_108_134"/>
<feColorMatrix in="SourceAlpha" type="matrix" values="0 0 0 0 0 0 0 0 0 0 0 0 0 0 0 0 0 0 127 0" result="hardAlpha"/>
<feOffset dx="0.05" dy="-0.05"/>
<feGaussianBlur stdDeviation="0.05"/>
<feComposite in2="hardAlpha" operator="arithmetic" k2="-1" k3="1"/>
<feColorMatrix type="matrix" values="0 0 0 0 0.643137 0 0 0 0 0.52549 0 0 0 0 0.74902 0 0 0 1 0"/>
<feBlend mode="normal" in2="effect1_innerShadow_108_134" result="effect2_innerShadow_108_134"/>
</filter>
<filter id="filter12_d_108_134" x="398.442" y="121.793" width="4.83286" height="4.84067" filterUnits="userSpaceOnUse" color-interpolation-filters="sRGB">
<feFlood flood-opacity="0" result="BackgroundImageFix"/>
<feColorMatrix in="SourceAlpha" type="matrix" values="0 0 0 0 0 0 0 0 0 0 0 0 0 0 0 0 0 0 127 0" result="hardAlpha"/>
<feOffset dx="-0.1" dy="0.1"/>
<feGaussianBlur stdDeviation="0.1"/>
<feComposite in2="hardAlpha" operator="out"/>
<feColorMatrix type="matrix" values="0 0 0 0 0.54902 0 0 0 0 0.419608 0 0 0 0 0.658824 0 0 0 1 0"/>
<feBlend mode="normal" in2="BackgroundImageFix" result="effect1_dropShadow_108_134"/>
<feBlend mode="normal" in="SourceGraphic" in2="effect1_dropShadow_108_134" result="shape"/>
</filter>
<filter id="filter13_i_108_134" x="372" y="95" width="29.5448" height="29.2812" filterUnits="userSpaceOnUse" color-interpolation-filters="sRGB">
<feFlood flood-opacity="0" result="BackgroundImageFix"/>
<feBlend mode="normal" in="SourceGraphic" in2="BackgroundImageFix" result="shape"/>
<feColorMatrix in="SourceAlpha" type="matrix" values="0 0 0 0 0 0 0 0 0 0 0 0 0 0 0 0 0 0 127 0" result="hardAlpha"/>
<feOffset dx="0.4"/>
<feGaussianBlur stdDeviation="0.4"/>
<feComposite in2="hardAlpha" operator="arithmetic" k2="-1" k3="1"/>
<feColorMatrix type="matrix" values="0 0 0 0 0.690196 0 0 0 0 0.211765 0 0 0 0 0.341176 0 0 0 1 0"/>
<feBlend mode="normal" in2="shape" result="effect1_innerShadow_108_134"/>
</filter>
<filter id="filter14_f_108_134" x="376.293" y="96.8115" width="22.1868" height="22.2222" filterUnits="userSpaceOnUse" color-interpolation-filters="sRGB">
<feFlood flood-opacity="0" result="BackgroundImageFix"/>
<feBlend mode="normal" in="SourceGraphic" in2="BackgroundImageFix" result="shape"/>
<feGaussianBlur stdDeviation="0.25" result="effect1_foregroundBlur_108_134"/>
</filter>
<filter id="filter15_f_108_134" x="406.61" y="96.8206" width="22.3909" height="22.4265" filterUnits="userSpaceOnUse" color-interpolation-filters="sRGB">
<feFlood flood-opacity="0" result="BackgroundImageFix"/>
<feBlend mode="normal" in="SourceGraphic" in2="BackgroundImageFix" result="shape"/>
<feGaussianBlur stdDeviation="0.25" result="effect1_foregroundBlur_108_134"/>
</filter>
<filter id="filter16_f_108_134" x="390.602" y="113.942" width="6.86792" height="6.42188" filterUnits="userSpaceOnUse" color-interpolation-filters="sRGB">
<feFlood flood-opacity="0" result="BackgroundImageFix"/>
<feBlend mode="normal" in="SourceGraphic" in2="BackgroundImageFix" result="shape"/>
<feGaussianBlur stdDeviation="0.25" result="effect1_foregroundBlur_108_134"/>
</filter>
<filter id="filter17_f_108_134" x="404.857" y="114.221" width="6.6106" height="6.69165" filterUnits="userSpaceOnUse" color-interpolation-filters="sRGB">
<feFlood flood-opacity="0" result="BackgroundImageFix"/>
<feBlend mode="normal" in="SourceGraphic" in2="BackgroundImageFix" result="shape"/>
<feGaussianBlur stdDeviation="0.25" result="effect1_foregroundBlur_108_134"/>
</filter>
<linearGradient id="paint0_linear_108_134" x1="700" y1="-2.08616e-05" x2="0" y2="350" gradientUnits="userSpaceOnUse">
<stop stop-color="#0055AA"/>
<stop offset="1" stop-color="#00AFFF"/>
</linearGradient>
<linearGradient id="paint1_linear_108_134" x1="280.376" y1="106.524" x2="306.626" y2="106.524" gradientUnits="userSpaceOnUse">
<stop stop-color="#C1C1C2"/>
<stop offset="1" stop-color="#DDDDDE"/>
</linearGradient>
<linearGradient id="paint2_linear_108_134" x1="270" y1="132.04" x2="281.478" y2="127.53" gradientUnits="userSpaceOnUse">
<stop stop-color="#B7B4BB"/>
<stop offset="1" stop-color="#B7B4BB" stop-opacity="0"/>
</linearGradient>
<linearGradient id="paint3_linear_108_134" x1="301.428" y1="150.836" x2="301.428" y2="147.562" gradientUnits="userSpaceOnUse">
<stop stop-color="#988EA1"/>
<stop offset="1" stop-color="#988EA1" stop-opacity="0"/>
</linearGradient>
<radialGradient id="paint4_radial_108_134" cx="0" cy="0" r="1" gradientUnits="userSpaceOnUse" gradientTransform="translate(281.814 126.627) rotate(91.332) scale(22.8886 14.3779)">
<stop stop-color="#D9D5DE"/>
<stop offset="1" stop-color="#C2BEC8"/>
</radialGradient>
<linearGradient id="paint5_linear_108_134" x1="277.424" y1="146.183" x2="281.416" y2="140.063" gradientUnits="userSpaceOnUse">
<stop stop-color="#C2BDC9"/>
<stop offset="1" stop-color="#C2BDC9" stop-opacity="0"/>
</linearGradient>
<linearGradient id="paint6_linear_108_134" x1="296.876" y1="110.758" x2="283.25" y2="132.148" gradientUnits="userSpaceOnUse">
<stop stop-color="#EEEAF3"/>
<stop offset="1" stop-color="#E0DCE5"/>
</linearGradient>
<linearGradient id="paint7_linear_108_134" x1="311.126" y1="111.648" x2="300.376" y2="115.648" gradientUnits="userSpaceOnUse">
<stop stop-color="#E4E3E5"/>
<stop offset="1" stop-color="#D1D0D3"/>
</linearGradient>
<linearGradient id="paint8_linear_108_134" x1="301.09" y1="105.994" x2="301.922" y2="106.926" gradientUnits="userSpaceOnUse">
<stop offset="0.235" stop-color="#D0CFD2"/>
<stop offset="1" stop-color="#D0CFD2" stop-opacity="0"/>
</linearGradient>
<linearGradient id="paint9_linear_108_134" x1="295.51" y1="111.616" x2="301.65" y2="113.182" gradientUnits="userSpaceOnUse">
<stop stop-color="#CDCBCE"/>
<stop offset="1" stop-color="#CDCBCE" stop-opacity="0"/>
</linearGradient>
<radialGradient id="paint10_radial_108_134" cx="0" cy="0" r="1" gradientUnits="userSpaceOnUse" gradientTransform="translate(324.517 125.057) rotate(120.775) scale(9.07708 6.84516)">
<stop stop-color="#D8D6DB"/>
<stop offset="1" stop-color="#C5C4C6"/>
</radialGradient>
<linearGradient id="paint11_linear_108_134" x1="320.276" y1="122.22" x2="320.108" y2="122.816" gradientUnits="userSpaceOnUse">
<stop stop-color="#B6B6B6"/>
<stop offset="1" stop-color="#C3C3C4" stop-opacity="0"/>
</linearGradient>
<linearGradient id="paint12_linear_108_134" x1="317.412" y1="144.97" x2="322.668" y2="132.93" gradientUnits="userSpaceOnUse">
<stop stop-color="#B4B1B7"/>
<stop offset="1" stop-color="#B8B5BB"/>
</linearGradient>
<linearGradient id="paint13_linear_108_134" x1="313.302" y1="149.295" x2="287.492" y2="149.295" gradientUnits="userSpaceOnUse">
<stop stop-color="#A9A1B3"/>
<stop offset="1" stop-color="#A59DAD"/>
</linearGradient>
<linearGradient id="paint14_linear_108_134" x1="297.626" y1="109.897" x2="309.876" y2="98.3355" gradientUnits="userSpaceOnUse">
<stop stop-color="#DAD9DB"/>
<stop offset="1" stop-color="#DAD9DB" stop-opacity="0"/>
</linearGradient>
<linearGradient id="paint15_linear_108_134" x1="315.432" y1="132.289" x2="292.63" y2="128.655" gradientUnits="userSpaceOnUse">
<stop stop-color="#F9F5FD"/>
<stop offset="1" stop-color="#C2BDC9"/>
</linearGradient>
<linearGradient id="paint16_linear_108_134" x1="351.922" y1="119" x2="351.922" y2="174.828" gradientUnits="userSpaceOnUse">
<stop stop-color="#EBE4F3"/>
<stop offset="1" stop-color="#E4DAF0"/>
</linearGradient>
<linearGradient id="paint17_linear_108_134" x1="361" y1="132.328" x2="366.282" y2="127.046" gradientUnits="userSpaceOnUse">
<stop stop-color="#D9D3E1"/>
<stop offset="1" stop-color="#CCC7D1"/>
</linearGradient>
<linearGradient id="paint18_linear_108_134" x1="367.468" y1="126.016" x2="366.188" y2="127.266" gradientUnits="userSpaceOnUse">
<stop offset="0.119" stop-color="#DBDADC"/>
<stop offset="0.577" stop-color="#CBC7D0" stop-opacity="0"/>
</linearGradient>
<linearGradient id="paint19_linear_108_134" x1="338" y1="139.898" x2="365.828" y2="139.898" gradientUnits="userSpaceOnUse">
<stop stop-color="#9C96A2"/>
<stop offset="1" stop-color="#9A95A1"/>
</linearGradient>
<linearGradient id="paint20_linear_108_134" x1="338" y1="145.898" x2="365.828" y2="145.898" gradientUnits="userSpaceOnUse">
<stop stop-color="#9C96A2"/>
<stop offset="1" stop-color="#9A95A1"/>
</linearGradient>
<linearGradient id="paint21_linear_108_134" x1="338" y1="151.898" x2="365.828" y2="151.898" gradientUnits="userSpaceOnUse">
<stop stop-color="#9C96A2"/>
<stop offset="1" stop-color="#9A95A1"/>
</linearGradient>
<linearGradient id="paint22_linear_108_134" x1="338" y1="157.898" x2="355.968" y2="157.898" gradientUnits="userSpaceOnUse">
<stop stop-color="#9C96A2"/>
<stop offset="1" stop-color="#9A95A1"/>
</linearGradient>
<linearGradient id="paint23_linear_108_134" x1="386.63" y1="132.286" x2="393.438" y2="138.759" gradientUnits="userSpaceOnUse">
<stop stop-color="#877697"/>
<stop offset="1" stop-color="#BDA7D4"/>
</linearGradient>
<linearGradient id="paint24_linear_108_134" x1="399.608" y1="128.298" x2="398.377" y2="129.431" gradientUnits="userSpaceOnUse">
<stop offset="0.607" stop-color="#7C549C"/>
<stop offset="1" stop-color="#7C549C" stop-opacity="0"/>
</linearGradient>
<linearGradient id="paint25_linear_108_134" x1="430" y1="109.809" x2="407.885" y2="109.809" gradientUnits="userSpaceOnUse">
<stop stop-color="#FF7415"/>
<stop offset="1" stop-color="#F63178"/>
</linearGradient>
<linearGradient id="paint26_linear_108_134" x1="406.195" y1="135.139" x2="412.079" y2="128.7" gradientUnits="userSpaceOnUse">
<stop stop-color="#B59FCA"/>
<stop offset="1" stop-color="#887799"/>
</linearGradient>
<radialGradient id="paint27_radial_108_134" cx="0" cy="0" r="1" gradientUnits="userSpaceOnUse" gradientTransform="translate(401.131 123.856) rotate(134.52) scale(3.04666 2.79548)">
<stop offset="0.518" stop-color="#988098" stop-opacity="0"/>
<stop offset="0.86" stop-color="#988098"/>
</radialGradient>
<radialGradient id="paint28_radial_108_134" cx="0" cy="0" r="1" gradientUnits="userSpaceOnUse" gradientTransform="translate(399.932 126.678) rotate(-68.1762) scale(2.7619 2.46048)">
<stop stop-color="#926BB4"/>
<stop offset="1" stop-color="#926BB4" stop-opacity="0"/>
</radialGradient>
<radialGradient id="paint29_radial_108_134" cx="0" cy="0" r="1" gradientUnits="userSpaceOnUse" gradientTransform="translate(401.777 123.791) rotate(139.568) scale(1.07482 1.07512)">
<stop offset="0.259" stop-color="#B9AEC4"/>
<stop offset="1" stop-color="#B9AEC4" stop-opacity="0"/>
</radialGradient>
<radialGradient id="paint30_radial_108_134" cx="0" cy="0" r="1" gradientUnits="userSpaceOnUse" gradientTransform="translate(400.742 125.511) rotate(-65.8959) scale(3.96254 3.95798)">
<stop offset="0.7" stop-color="#A49EA6" stop-opacity="0"/>
<stop offset="1" stop-color="#A49EA6"/>
</radialGradient>
<linearGradient id="paint31_linear_108_134" x1="401.487" y1="109.809" x2="379.122" y2="109.809" gradientUnits="userSpaceOnUse">
<stop stop-color="#FF7415"/>
<stop offset="1" stop-color="#F63178"/>
</linearGradient>
<linearGradient id="paint32_linear_108_134" x1="398.216" y1="100.843" x2="389.323" y2="107.142" gradientUnits="userSpaceOnUse">
<stop stop-color="#FF8C72"/>
<stop offset="1" stop-color="#FF8C72" stop-opacity="0"/>
</linearGradient>
<linearGradient id="paint33_linear_108_134" x1="377.168" y1="112.037" x2="381.982" y2="110.225" gradientUnits="userSpaceOnUse">
<stop stop-color="#FF638F"/>
<stop offset="1" stop-color="#FF638F" stop-opacity="0"/>
</linearGradient>
<linearGradient id="paint34_linear_108_134" x1="428.155" y1="100.054" x2="419.694" y2="107.095" gradientUnits="userSpaceOnUse">
<stop stop-color="#FF8C72"/>
<stop offset="1" stop-color="#FF8C72" stop-opacity="0"/>
</linearGradient>
<linearGradient id="paint35_linear_108_134" x1="407.839" y1="112.978" x2="412.545" y2="110.776" gradientUnits="userSpaceOnUse">
<stop stop-color="#FF638F"/>
<stop offset="1" stop-color="#FF638F" stop-opacity="0"/>
</linearGradient>
<linearGradient id="paint36_linear_108_134" x1="406.113" y1="114.963" x2="410.848" y2="124.118" gradientUnits="userSpaceOnUse">
<stop stop-color="#DB236E"/>
<stop offset="1" stop-color="#DB236E" stop-opacity="0"/>
</linearGradient>
<clipPath id="clip0_108_134">
<rect width="160" height="80" fill="white" transform="translate(270 95)"/>
</clipPath>
</defs>
</svg>
