<svg width="80" height="40" viewBox="0 0 80 40" fill="none" xmlns="http://www.w3.org/2000/svg">
<g filter="url(#filter0_i_106_184)">
<path d="M7.184 1.42591L6.064 7.36091C6.02899 7.54668 5.95671 7.72344 5.85153 7.88053C5.74634 8.03762 5.61044 8.17177 5.452 8.27491L0.682 11.3799C0.472668 11.5161 0.300652 11.7024 0.181556 11.9219C0.0624607 12.1414 5.47646e-05 12.3872 0 12.6369V18.4549C0.000133517 18.6739 0.0721537 18.8868 0.205 19.0609L6.578 27.4249C6.814 27.7349 7.182 27.9179 7.572 27.9179H22.515C22.8799 27.918 23.2357 27.804 23.5326 27.5919C23.8296 27.3798 24.0528 27.0801 24.171 26.7349L27.692 16.4529C27.8407 16.0185 27.8127 15.543 27.6141 15.129C27.4154 14.715 27.062 14.3957 26.63 14.2399L23.138 12.9809C23.0556 12.9513 22.9806 12.904 22.9184 12.8423C22.8562 12.7806 22.8083 12.7061 22.778 12.6239L19.178 2.85091C19.0901 2.61293 18.9432 2.40114 18.7512 2.23535C18.5592 2.06956 18.3283 1.95518 18.08 1.90291L9.266 0.037908C9.03796 -0.0103445 8.80258 -0.0125548 8.57367 0.0314071C8.34476 0.0753689 8.12695 0.164617 7.933 0.293912C7.73906 0.423207 7.5729 0.589944 7.44428 0.784334C7.31566 0.978724 7.22717 1.19685 7.184 1.42591Z" fill="url(#paint0_linear_106_184)"/>
</g>
<path d="M7.184 1.42591L6.064 7.36091C6.02899 7.54668 5.95671 7.72344 5.85153 7.88053C5.74634 8.03762 5.61044 8.17177 5.452 8.27491L0.682 11.3799C0.472668 11.5161 0.300652 11.7024 0.181556 11.9219C0.0624607 12.1414 5.47646e-05 12.3872 0 12.6369V18.4549C0.000133517 18.6739 0.0721537 18.8868 0.205 19.0609L6.578 27.4249C6.814 27.7349 7.182 27.9179 7.572 27.9179H22.515C22.8799 27.918 23.2357 27.804 23.5326 27.5919C23.8296 27.3798 24.0528 27.0801 24.171 26.7349L27.692 16.4529C27.8407 16.0185 27.8127 15.543 27.6141 15.129C27.4154 14.715 27.062 14.3957 26.63 14.2399L23.138 12.9809C23.0556 12.9513 22.9806 12.904 22.9184 12.8423C22.8562 12.7806 22.8083 12.7061 22.778 12.6239L19.178 2.85091C19.0901 2.61293 18.9432 2.40114 18.7512 2.23535C18.5592 2.06956 18.3283 1.95518 18.08 1.90291L9.266 0.037908C9.03796 -0.0103445 8.80258 -0.0125548 8.57367 0.0314071C8.34476 0.0753689 8.12695 0.164617 7.933 0.293912C7.73906 0.423207 7.5729 0.589944 7.44428 0.784334C7.31566 0.978724 7.22717 1.19685 7.184 1.42591Z" fill="url(#paint1_linear_106_184)"/>
<path d="M7.184 1.42591L6.064 7.36091C6.02899 7.54668 5.95671 7.72344 5.85153 7.88053C5.74634 8.03762 5.61044 8.17177 5.452 8.27491L0.682 11.3799C0.472668 11.5161 0.300652 11.7024 0.181556 11.9219C0.0624607 12.1414 5.47646e-05 12.3872 0 12.6369V18.4549C0.000133517 18.6739 0.0721537 18.8868 0.205 19.0609L6.578 27.4249C6.814 27.7349 7.182 27.9179 7.572 27.9179H22.515C22.8799 27.918 23.2357 27.804 23.5326 27.5919C23.8296 27.3798 24.0528 27.0801 24.171 26.7349L27.692 16.4529C27.8407 16.0185 27.8127 15.543 27.6141 15.129C27.4154 14.715 27.062 14.3957 26.63 14.2399L23.138 12.9809C23.0556 12.9513 22.9806 12.904 22.9184 12.8423C22.8562 12.7806 22.8083 12.7061 22.778 12.6239L19.178 2.85091C19.0901 2.61293 18.9432 2.40114 18.7512 2.23535C18.5592 2.06956 18.3283 1.95518 18.08 1.90291L9.266 0.037908C9.03796 -0.0103445 8.80258 -0.0125548 8.57367 0.0314071C8.34476 0.0753689 8.12695 0.164617 7.933 0.293912C7.73906 0.423207 7.5729 0.589944 7.44428 0.784334C7.31566 0.978724 7.22717 1.19685 7.184 1.42591Z" fill="url(#paint2_linear_106_184)"/>
<path d="M7.06996 27.8126L8.14796 24.9876L6.90596 18.8856L5.89796 15.0576C5.80796 15.1206 3.13496 16.9296 0.136963 18.9596C0.157557 18.9946 0.180266 19.0284 0.204963 19.0606L6.57796 27.4246C6.70796 27.5956 6.87796 27.7276 7.06996 27.8126Z" fill="url(#paint3_radial_106_184)"/>
<path d="M7.06996 27.8126L8.14796 24.9876L6.90596 18.8856L5.89796 15.0576C5.80796 15.1206 3.13496 16.9296 0.136963 18.9596C0.157557 18.9946 0.180266 19.0284 0.204963 19.0606L6.57796 27.4246C6.70796 27.5956 6.87796 27.7276 7.06996 27.8126Z" fill="url(#paint4_linear_106_184)"/>
<g filter="url(#filter1_f_106_184)">
<path d="M5.90601 15.0739V8.13386C5.906 8.10052 5.91266 8.06751 5.92559 8.03678C5.93853 8.00605 5.95748 7.97822 5.98134 7.95493C6.00519 7.93163 6.03346 7.91335 6.06449 7.90114C6.09552 7.88894 6.12867 7.88306 6.16201 7.88386L12.922 8.02686L15.969 12.9799L6.93701 19.0429L5.90601 15.0739Z" fill="url(#paint5_linear_106_184)"/>
</g>
<g filter="url(#filter2_f_106_184)">
<path d="M18.9731 2.63379L12.9221 8.04279L15.9691 12.9798H23.0311C22.9493 12.9499 22.8751 12.9026 22.8134 12.8411C22.7518 12.7796 22.7042 12.7055 22.6741 12.6238L19.0741 2.85079C19.0463 2.77588 19.0125 2.70332 18.9731 2.63379Z" fill="url(#paint6_linear_106_184)"/>
<path d="M18.9731 2.63379L12.9221 8.04279L15.9691 12.9798H23.0311C22.9493 12.9499 22.8751 12.9026 22.8134 12.8411C22.7518 12.7796 22.7042 12.7055 22.6741 12.6238L19.0741 2.85079C19.0463 2.77588 19.0125 2.70332 18.9731 2.63379Z" fill="url(#paint7_linear_106_184)"/>
<path d="M18.9731 2.63379L12.9221 8.04279L15.9691 12.9798H23.0311C22.9493 12.9499 22.8751 12.9026 22.8134 12.8411C22.7518 12.7796 22.7042 12.7055 22.6741 12.6238L19.0741 2.85079C19.0463 2.77588 19.0125 2.70332 18.9731 2.63379Z" fill="url(#paint8_linear_106_184)"/>
</g>
<path fill-rule="evenodd" clip-rule="evenodd" d="M23.1609 12.9888C23.1278 12.998 23.0971 13.014 23.0704 13.0356C23.0438 13.0573 23.0219 13.0842 23.0062 13.1147C22.9904 13.1452 22.9811 13.1786 22.9788 13.2129C22.9765 13.2471 22.9813 13.2815 22.9929 13.3138L24.9999 18.9798L26.6709 19.4328L27.6919 16.4528C27.8406 16.0183 27.8126 15.5428 27.614 15.1289C27.4153 14.7149 27.0619 14.3955 26.6299 14.2398L23.1609 12.9888Z" fill="url(#paint9_radial_106_184)"/>
<path fill-rule="evenodd" clip-rule="evenodd" d="M23.1609 12.9888C23.1278 12.998 23.0971 13.014 23.0704 13.0356C23.0438 13.0573 23.0219 13.0842 23.0062 13.1147C22.9904 13.1452 22.9811 13.1786 22.9788 13.2129C22.9765 13.2471 22.9813 13.2815 22.9929 13.3138L24.9999 18.9798L26.6709 19.4328L27.6919 16.4528C27.8406 16.0183 27.8126 15.5428 27.614 15.1289C27.4153 14.7149 27.0619 14.3955 26.6299 14.2398L23.1609 12.9888Z" fill="url(#paint10_linear_106_184)"/>
<path d="M24.995 18.9648L22.853 24.9858L23.666 27.4858C23.892 27.2888 24.069 27.0318 24.171 26.7348L26.671 19.4328L25 18.9798L24.995 18.9648Z" fill="url(#paint11_linear_106_184)"/>
<g filter="url(#filter3_f_106_184)">
<path d="M23.6699 27.3927L22.9399 25.0117H8.12492L7.06592 27.7087C7.22392 27.7757 7.39592 27.8117 7.57192 27.8117H22.5149C22.9509 27.8117 23.3579 27.6577 23.6699 27.3927Z" fill="url(#paint12_linear_106_184)"/>
</g>
<g filter="url(#filter4_f_106_184)">
<path d="M12.906 7.97974L18.5 2.76074" stroke="url(#paint13_linear_106_184)" stroke-width="0.2" stroke-linecap="round"/>
</g>
<g filter="url(#filter5_f_106_184)">
<path d="M8.14099 25.0115L6.93799 19.0575L15.938 12.9795H22.844L25 18.9485L22.844 25.0115H8.14099Z" fill="url(#paint14_linear_106_184)"/>
</g>
<g filter="url(#filter6_iiii_106_184)">
<path d="M45.376 12.293C45.1885 12.1055 44.9342 12.0001 44.669 12H31.4C31.0287 12 30.6726 12.1475 30.4101 12.4101C30.1475 12.6726 30 13.0287 30 13.4V38.514C30 38.8853 30.1475 39.2414 30.4101 39.504C30.6726 39.7665 31.0287 39.914 31.4 39.914H50.522C50.8933 39.914 51.2494 39.7665 51.5119 39.504C51.7745 39.2414 51.922 38.8853 51.922 38.514V19.254C51.9221 19.1225 51.8963 18.9923 51.846 18.8708C51.7957 18.7493 51.722 18.639 51.629 18.546L45.376 12.293Z" fill="url(#paint15_linear_106_184)"/>
</g>
<g filter="url(#filter7_f_106_184)">
<path d="M44.7119 12.414C44.7119 12.213 44.7699 12.084 44.6599 12.062C44.7639 12.069 44.9159 12.107 45.0119 12.145C45.1349 12.193 44.9819 12.3 45.0789 12.394L45.0879 12.402L51.3409 18.655C51.4339 18.748 51.5076 18.8583 51.5579 18.9798C51.6082 19.1013 51.634 19.2315 51.6339 19.363V19.426C51.6339 19.194 51.4659 19.055 51.3409 19.055H45.9119C45.5937 19.055 45.2884 18.9286 45.0634 18.7035C44.8383 18.4785 44.7119 18.1733 44.7119 17.855V12.414Z" fill="#D2C5DF"/>
</g>
<g filter="url(#filter8_ii_106_184)">
<path d="M45.0009 12.305C45.0009 12.103 44.8419 12.024 44.7319 12.002C44.9747 12.0171 45.2037 12.1202 45.3759 12.292L51.6289 18.546C51.7408 18.6581 51.8244 18.7952 51.8729 18.946C51.9052 19.0451 51.9217 19.1487 51.9219 19.253V19.316C51.9219 19.084 51.7539 18.946 51.6289 18.946H46.1999C46.0423 18.946 45.8863 18.9149 45.7407 18.8546C45.5951 18.7943 45.4628 18.7059 45.3514 18.5945C45.24 18.4831 45.1516 18.3508 45.0913 18.2052C45.031 18.0596 44.9999 17.9035 44.9999 17.746L45.0009 12.305Z" fill="url(#paint16_linear_106_184)"/>
</g>
<path d="M45.0009 12.305C45.0009 12.103 44.8419 12.024 44.7319 12.002C44.9747 12.0171 45.2037 12.1202 45.3759 12.292L51.6289 18.546C51.7408 18.6581 51.8244 18.7952 51.8729 18.946C51.9052 19.0451 51.9217 19.1487 51.9219 19.253V19.316C51.9219 19.084 51.7539 18.946 51.6289 18.946H46.1999C46.0423 18.946 45.8863 18.9149 45.7407 18.8546C45.5951 18.7943 45.4628 18.7059 45.3514 18.5945C45.24 18.4831 45.1516 18.3508 45.0913 18.2052C45.031 18.0596 44.9999 17.9035 44.9999 17.746L45.0009 12.305Z" fill="url(#paint17_linear_106_184)"/>
<path d="M47.418 21.9531H34.496C34.2221 21.9531 34 22.1752 34 22.4491C34 22.7231 34.2221 22.9451 34.496 22.9451H47.418C47.6919 22.9451 47.914 22.7231 47.914 22.4491C47.914 22.1752 47.6919 21.9531 47.418 21.9531Z" fill="url(#paint18_linear_106_184)"/>
<path d="M47.418 24.9531H34.496C34.2221 24.9531 34 25.1752 34 25.4491C34 25.7231 34.2221 25.9451 34.496 25.9451H47.418C47.6919 25.9451 47.914 25.7231 47.914 25.4491C47.914 25.1752 47.6919 24.9531 47.418 24.9531Z" fill="url(#paint19_linear_106_184)"/>
<path d="M47.418 27.9531H34.496C34.2221 27.9531 34 28.1752 34 28.4491C34 28.7231 34.2221 28.9451 34.496 28.9451H47.418C47.6919 28.9451 47.914 28.7231 47.914 28.4491C47.914 28.1752 47.6919 27.9531 47.418 27.9531Z" fill="url(#paint20_linear_106_184)"/>
<path d="M42.488 30.9531H34.496C34.2221 30.9531 34 31.1752 34 31.4491C34 31.7231 34.2221 31.9451 34.496 31.9451H42.488C42.7619 31.9451 42.984 31.7231 42.984 31.4491C42.984 31.1752 42.7619 30.9531 42.488 30.9531Z" fill="url(#paint21_linear_106_184)"/>
<g filter="url(#filter9_i_106_184)">
<path d="M55.5983 27.6601L71.362 11.8692L68.1823 8.68408L54.8733 22.0057C54.2213 22.6594 53.855 23.5457 53.855 24.4698C53.855 25.3939 54.2213 26.2802 54.8733 26.9339L55.5983 27.6601Z" fill="url(#paint22_linear_106_184)"/>
<path d="M55.5983 27.6601L71.362 11.8692L68.1823 8.68408L54.8733 22.0057C54.2213 22.6594 53.855 23.5457 53.855 24.4698C53.855 25.3939 54.2213 26.2802 54.8733 26.9339L55.5983 27.6601Z" fill="url(#paint23_linear_106_184)"/>
</g>
<g filter="url(#filter10_i_106_184)">
<path d="M65.7195 11.01C65.6806 11.0485 65.6496 11.0943 65.6284 11.1448C65.6072 11.1953 65.5961 11.2495 65.5959 11.3043C65.5958 11.3591 65.6064 11.4133 65.6273 11.464C65.6481 11.5146 65.6788 11.5606 65.7175 11.5994L68.6268 14.5137C68.6655 14.5524 68.7115 14.583 68.7621 14.6038C68.8127 14.6246 68.8669 14.6352 68.9216 14.6349C68.9763 14.6346 69.0304 14.6235 69.0807 14.6022C69.1311 14.5808 69.1768 14.5497 69.2151 14.5106L70.3906 13.3102C70.4527 13.2486 70.5318 13.2072 70.6177 13.1912C70.7036 13.1753 70.7923 13.1857 70.8722 13.221C75.0534 14.9993 80 11.1522 80 6.76456C80 3.02953 76.9964 0 73.2679 0C69.5393 0 66.515 3.02953 66.515 6.76456C66.515 7.69521 66.6828 8.53559 67.0235 9.32721C67.0588 9.40696 67.0693 9.49547 67.0538 9.58129C67.0383 9.66712 66.9974 9.74631 66.9365 9.80861L65.7195 11.01ZM70.1193 6.76456C70.1193 5.03192 71.5278 3.62091 73.2575 3.62091C74.9872 3.62091 76.3957 5.03192 76.3957 6.76456C76.3957 8.4972 74.9872 9.90821 73.2575 9.90821C71.5278 9.90821 70.1193 8.50758 70.1193 6.76456Z" fill="url(#paint24_linear_106_184)"/>
</g>
<g filter="url(#filter11_ii_106_184)">
<path d="M75.4221 27.6599L59.6584 11.869L62.7656 8.62158L76.0643 21.9432C77.4314 23.3127 77.4418 25.6471 76.085 27.0062L75.4221 27.6599Z" fill="url(#paint25_linear_106_184)"/>
</g>
<g filter="url(#filter12_d_106_184)">
<path d="M65.4793 15.6666C65.7732 15.6666 66.0551 15.5496 66.2629 15.3414C66.4708 15.1332 66.5875 14.8508 66.5875 14.5564C66.5875 14.262 66.4708 13.9796 66.2629 13.7714C66.0551 13.5633 65.7732 13.4463 65.4793 13.4463C65.1854 13.4463 64.9035 13.5633 64.6957 13.7714C64.4879 13.9796 64.3711 14.262 64.3711 14.5564C64.3711 14.8508 64.4879 15.1332 64.6957 15.3414C64.9035 15.5496 65.1854 15.6666 65.4793 15.6666Z" fill="#A79AAC"/>
<path d="M65.4793 15.6666C65.7732 15.6666 66.0551 15.5496 66.2629 15.3414C66.4708 15.1332 66.5875 14.8508 66.5875 14.5564C66.5875 14.262 66.4708 13.9796 66.2629 13.7714C66.0551 13.5633 65.7732 13.4463 65.4793 13.4463C65.1854 13.4463 64.9035 13.5633 64.6957 13.7714C64.4879 13.9796 64.3711 14.262 64.3711 14.5564C64.3711 14.8508 64.4879 15.1332 64.6957 15.3414C64.9035 15.5496 65.1854 15.6666 65.4793 15.6666Z" fill="url(#paint26_radial_106_184)"/>
<path d="M65.4793 15.6666C65.7732 15.6666 66.0551 15.5496 66.2629 15.3414C66.4708 15.1332 66.5875 14.8508 66.5875 14.5564C66.5875 14.262 66.4708 13.9796 66.2629 13.7714C66.0551 13.5633 65.7732 13.4463 65.4793 13.4463C65.1854 13.4463 64.9035 13.5633 64.6957 13.7714C64.4879 13.9796 64.3711 14.262 64.3711 14.5564C64.3711 14.8508 64.4879 15.1332 64.6957 15.3414C64.9035 15.5496 65.1854 15.6666 65.4793 15.6666Z" fill="url(#paint27_radial_106_184)"/>
<path d="M65.4793 15.6666C65.7732 15.6666 66.0551 15.5496 66.2629 15.3414C66.4708 15.1332 66.5875 14.8508 66.5875 14.5564C66.5875 14.262 66.4708 13.9796 66.2629 13.7714C66.0551 13.5633 65.7732 13.4463 65.4793 13.4463C65.1854 13.4463 64.9035 13.5633 64.6957 13.7714C64.4879 13.9796 64.3711 14.262 64.3711 14.5564C64.3711 14.8508 64.4879 15.1332 64.6957 15.3414C64.9035 15.5496 65.1854 15.6666 65.4793 15.6666Z" fill="url(#paint28_radial_106_184)"/>
<path d="M65.4793 15.6666C65.7732 15.6666 66.0551 15.5496 66.2629 15.3414C66.4708 15.1332 66.5875 14.8508 66.5875 14.5564C66.5875 14.262 66.4708 13.9796 66.2629 13.7714C66.0551 13.5633 65.7732 13.4463 65.4793 13.4463C65.1854 13.4463 64.9035 13.5633 64.6957 13.7714C64.4879 13.9796 64.3711 14.262 64.3711 14.5564C64.3711 14.8508 64.4879 15.1332 64.6957 15.3414C64.9035 15.5496 65.1854 15.6666 65.4793 15.6666Z" fill="url(#paint29_radial_106_184)"/>
</g>
<g filter="url(#filter13_i_106_184)">
<path d="M64.2645 9.67996C64.2069 9.61991 64.1678 9.54462 64.1516 9.46299C64.1355 9.38135 64.143 9.29679 64.1733 9.21931C66.1049 4.25794 62.1381 0 57.7322 0C54.0036 0 51 3.02953 51 6.76456C51 10.4996 54.0036 13.5291 57.7322 13.5291C58.6602 13.5291 59.3303 13.525 60.0843 13.2179C60.1638 13.1846 60.2512 13.1751 60.3359 13.1906C60.4207 13.206 60.4991 13.2458 60.5618 13.305L61.7922 14.521C61.8699 14.5978 61.9748 14.6408 62.084 14.6406C62.1932 14.6404 62.2979 14.5971 62.3753 14.5199L65.4504 11.4562C65.489 11.4176 65.5197 11.3718 65.5407 11.3213C65.5616 11.2708 65.5724 11.2167 65.5724 11.162C65.5724 11.1074 65.5616 11.0533 65.5407 11.0028C65.5197 10.9523 65.489 10.9065 65.4504 10.8679L64.2645 9.67996ZM57.7425 9.90821C56.0129 9.90821 54.6043 8.4972 54.6043 6.76456C54.6043 5.03192 56.0129 3.62091 57.7425 3.62091C59.4722 3.62091 60.8808 5.03192 60.8808 6.76456C60.8808 8.50758 59.4722 9.90821 57.7425 9.90821Z" fill="url(#paint30_linear_106_184)"/>
</g>
<g filter="url(#filter14_f_106_184)">
<path d="M58.6932 11.5793C61.5149 11.5793 63.8024 9.28791 63.8024 6.46129C63.8024 3.63468 61.5149 1.34326 58.6932 1.34326C55.8715 1.34326 53.584 3.63468 53.584 6.46129C53.584 9.28791 55.8715 11.5793 58.6932 11.5793Z" stroke="url(#paint31_linear_106_184)" stroke-width="0.75"/>
<path d="M58.6932 11.5793C61.5149 11.5793 63.8024 9.28791 63.8024 6.46129C63.8024 3.63468 61.5149 1.34326 58.6932 1.34326C55.8715 1.34326 53.584 3.63468 53.584 6.46129C53.584 9.28791 55.8715 11.5793 58.6932 11.5793Z" stroke="url(#paint32_linear_106_184)" stroke-width="0.75"/>
</g>
<g filter="url(#filter15_f_106_184)">
<path d="M74.3036 11.6701C77.1448 11.4484 79.2686 8.96146 79.0472 6.1154C78.8258 3.26933 76.3432 1.1419 73.502 1.36364C70.6609 1.58538 68.5371 4.07233 68.7585 6.91839C68.9798 9.76445 71.4625 11.8919 74.3036 11.6701Z" stroke="url(#paint33_linear_106_184)" stroke-width="0.75"/>
<path d="M74.3036 11.6701C77.1448 11.4484 79.2686 8.96146 79.0472 6.1154C78.8258 3.26933 76.3432 1.1419 73.502 1.36364C70.6609 1.58538 68.5371 4.07233 68.7585 6.91839C68.9798 9.76445 71.4625 11.8919 74.3036 11.6701Z" stroke="url(#paint34_linear_106_184)" stroke-width="0.75"/>
</g>
<g filter="url(#filter16_f_106_184)">
<path d="M60.6538 12.2755C61.1696 11.9362 62.429 10.9734 63.3384 9.83838" stroke="#FF683C" stroke-width="0.75"/>
</g>
<g filter="url(#filter17_f_106_184)">
<path d="M70.3722 12.5557C69.8761 12.1874 68.6746 11.1541 67.8315 9.96924" stroke="url(#paint35_linear_106_184)" stroke-width="0.75"/>
</g>
<defs>
<filter id="filter0_i_106_184" x="0" y="0" width="27.8864" height="28.018" filterUnits="userSpaceOnUse" color-interpolation-filters="sRGB">
<feFlood flood-opacity="0" result="BackgroundImageFix"/>
<feBlend mode="normal" in="SourceGraphic" in2="BackgroundImageFix" result="shape"/>
<feColorMatrix in="SourceAlpha" type="matrix" values="0 0 0 0 0 0 0 0 0 0 0 0 0 0 0 0 0 0 127 0" result="hardAlpha"/>
<feOffset dx="0.1" dy="0.1"/>
<feGaussianBlur stdDeviation="0.2"/>
<feComposite in2="hardAlpha" operator="arithmetic" k2="-1" k3="1"/>
<feColorMatrix type="matrix" values="0 0 0 0 0.615686 0 0 0 0 0.615686 0 0 0 0 0.619608 0 0 0 1 0"/>
<feBlend mode="normal" in2="shape" result="effect1_innerShadow_106_184"/>
</filter>
<filter id="filter1_f_106_184" x="5.65601" y="7.63379" width="10.563" height="11.6592" filterUnits="userSpaceOnUse" color-interpolation-filters="sRGB">
<feFlood flood-opacity="0" result="BackgroundImageFix"/>
<feBlend mode="normal" in="SourceGraphic" in2="BackgroundImageFix" result="shape"/>
<feGaussianBlur stdDeviation="0.125" result="effect1_foregroundBlur_106_184"/>
</filter>
<filter id="filter2_f_106_184" x="12.6721" y="2.38379" width="10.6089" height="10.8462" filterUnits="userSpaceOnUse" color-interpolation-filters="sRGB">
<feFlood flood-opacity="0" result="BackgroundImageFix"/>
<feBlend mode="normal" in="SourceGraphic" in2="BackgroundImageFix" result="shape"/>
<feGaussianBlur stdDeviation="0.125" result="effect1_foregroundBlur_106_184"/>
</filter>
<filter id="filter3_f_106_184" x="6.81592" y="24.7617" width="17.104" height="3.2998" filterUnits="userSpaceOnUse" color-interpolation-filters="sRGB">
<feFlood flood-opacity="0" result="BackgroundImageFix"/>
<feBlend mode="normal" in="SourceGraphic" in2="BackgroundImageFix" result="shape"/>
<feGaussianBlur stdDeviation="0.125" result="effect1_foregroundBlur_106_184"/>
</filter>
<filter id="filter4_f_106_184" x="12.6059" y="2.46064" width="6.19419" height="5.81895" filterUnits="userSpaceOnUse" color-interpolation-filters="sRGB">
<feFlood flood-opacity="0" result="BackgroundImageFix"/>
<feBlend mode="normal" in="SourceGraphic" in2="BackgroundImageFix" result="shape"/>
<feGaussianBlur stdDeviation="0.1" result="effect1_foregroundBlur_106_184"/>
</filter>
<filter id="filter5_f_106_184" x="6.68799" y="12.7295" width="18.562" height="12.5322" filterUnits="userSpaceOnUse" color-interpolation-filters="sRGB">
<feFlood flood-opacity="0" result="BackgroundImageFix"/>
<feBlend mode="normal" in="SourceGraphic" in2="BackgroundImageFix" result="shape"/>
<feGaussianBlur stdDeviation="0.125" result="effect1_foregroundBlur_106_184"/>
</filter>
<filter id="filter6_iiii_106_184" x="29.9" y="11.7" width="22.3221" height="28.3141" filterUnits="userSpaceOnUse" color-interpolation-filters="sRGB">
<feFlood flood-opacity="0" result="BackgroundImageFix"/>
<feBlend mode="normal" in="SourceGraphic" in2="BackgroundImageFix" result="shape"/>
<feColorMatrix in="SourceAlpha" type="matrix" values="0 0 0 0 0 0 0 0 0 0 0 0 0 0 0 0 0 0 127 0" result="hardAlpha"/>
<feOffset dx="0.3" dy="-0.3"/>
<feGaussianBlur stdDeviation="0.3"/>
<feComposite in2="hardAlpha" operator="arithmetic" k2="-1" k3="1"/>
<feColorMatrix type="matrix" values="0 0 0 0 0.807843 0 0 0 0 0.768627 0 0 0 0 0.85098 0 0 0 1 0"/>
<feBlend mode="normal" in2="shape" result="effect1_innerShadow_106_184"/>
<feColorMatrix in="SourceAlpha" type="matrix" values="0 0 0 0 0 0 0 0 0 0 0 0 0 0 0 0 0 0 127 0" result="hardAlpha"/>
<feOffset dx="0.1" dy="-0.1"/>
<feGaussianBlur stdDeviation="0.1"/>
<feComposite in2="hardAlpha" operator="arithmetic" k2="-1" k3="1"/>
<feColorMatrix type="matrix" values="0 0 0 0 0.709804 0 0 0 0 0.690196 0 0 0 0 0.733333 0 0 0 1 0"/>
<feBlend mode="normal" in2="effect1_innerShadow_106_184" result="effect2_innerShadow_106_184"/>
<feColorMatrix in="SourceAlpha" type="matrix" values="0 0 0 0 0 0 0 0 0 0 0 0 0 0 0 0 0 0 127 0" result="hardAlpha"/>
<feOffset dy="-0.1"/>
<feGaussianBlur stdDeviation="0.1"/>
<feComposite in2="hardAlpha" operator="arithmetic" k2="-1" k3="1"/>
<feColorMatrix type="matrix" values="0 0 0 0 0.72549 0 0 0 0 0.65098 0 0 0 0 0.8 0 0 0 1 0"/>
<feBlend mode="normal" in2="effect2_innerShadow_106_184" result="effect3_innerShadow_106_184"/>
<feColorMatrix in="SourceAlpha" type="matrix" values="0 0 0 0 0 0 0 0 0 0 0 0 0 0 0 0 0 0 127 0" result="hardAlpha"/>
<feOffset dx="-0.15" dy="0.15"/>
<feGaussianBlur stdDeviation="0.05"/>
<feComposite in2="hardAlpha" operator="arithmetic" k2="-1" k3="1"/>
<feColorMatrix type="matrix" values="0 0 0 0 0.952941 0 0 0 0 0.941176 0 0 0 0 0.964706 0 0 0 1 0"/>
<feBlend mode="normal" in2="effect3_innerShadow_106_184" result="effect4_innerShadow_106_184"/>
</filter>
<filter id="filter7_f_106_184" x="44.1599" y="11.562" width="7.97412" height="8.36377" filterUnits="userSpaceOnUse" color-interpolation-filters="sRGB">
<feFlood flood-opacity="0" result="BackgroundImageFix"/>
<feBlend mode="normal" in="SourceGraphic" in2="BackgroundImageFix" result="shape"/>
<feGaussianBlur stdDeviation="0.25" result="effect1_foregroundBlur_106_184"/>
</filter>
<filter id="filter8_ii_106_184" x="44.7319" y="11.902" width="7.28994" height="7.41396" filterUnits="userSpaceOnUse" color-interpolation-filters="sRGB">
<feFlood flood-opacity="0" result="BackgroundImageFix"/>
<feBlend mode="normal" in="SourceGraphic" in2="BackgroundImageFix" result="shape"/>
<feColorMatrix in="SourceAlpha" type="matrix" values="0 0 0 0 0 0 0 0 0 0 0 0 0 0 0 0 0 0 127 0" result="hardAlpha"/>
<feOffset dx="0.1"/>
<feGaussianBlur stdDeviation="0.075"/>
<feComposite in2="hardAlpha" operator="arithmetic" k2="-1" k3="1"/>
<feColorMatrix type="matrix" values="0 0 0 0 0.631373 0 0 0 0 0.611765 0 0 0 0 0.654902 0 0 0 1 0"/>
<feBlend mode="normal" in2="shape" result="effect1_innerShadow_106_184"/>
<feColorMatrix in="SourceAlpha" type="matrix" values="0 0 0 0 0 0 0 0 0 0 0 0 0 0 0 0 0 0 127 0" result="hardAlpha"/>
<feOffset dy="-0.1"/>
<feGaussianBlur stdDeviation="0.075"/>
<feComposite in2="hardAlpha" operator="arithmetic" k2="-1" k3="1"/>
<feColorMatrix type="matrix" values="0 0 0 0 0.752941 0 0 0 0 0.67451 0 0 0 0 0.835294 0 0 0 1 0"/>
<feBlend mode="normal" in2="effect1_innerShadow_106_184" result="effect2_innerShadow_106_184"/>
</filter>
<filter id="filter9_i_106_184" x="53.855" y="8.63408" width="17.5571" height="19.0261" filterUnits="userSpaceOnUse" color-interpolation-filters="sRGB">
<feFlood flood-opacity="0" result="BackgroundImageFix"/>
<feBlend mode="normal" in="SourceGraphic" in2="BackgroundImageFix" result="shape"/>
<feColorMatrix in="SourceAlpha" type="matrix" values="0 0 0 0 0 0 0 0 0 0 0 0 0 0 0 0 0 0 127 0" result="hardAlpha"/>
<feOffset dx="0.05" dy="-0.05"/>
<feGaussianBlur stdDeviation="0.05"/>
<feComposite in2="hardAlpha" operator="arithmetic" k2="-1" k3="1"/>
<feColorMatrix type="matrix" values="0 0 0 0 0.631373 0 0 0 0 0.521569 0 0 0 0 0.733333 0 0 0 1 0"/>
<feBlend mode="normal" in2="shape" result="effect1_innerShadow_106_184"/>
</filter>
<filter id="filter10_i_106_184" x="65.5959" y="0" width="14.8041" height="14.6348" filterUnits="userSpaceOnUse" color-interpolation-filters="sRGB">
<feFlood flood-opacity="0" result="BackgroundImageFix"/>
<feBlend mode="normal" in="SourceGraphic" in2="BackgroundImageFix" result="shape"/>
<feColorMatrix in="SourceAlpha" type="matrix" values="0 0 0 0 0 0 0 0 0 0 0 0 0 0 0 0 0 0 127 0" result="hardAlpha"/>
<feOffset dx="0.4"/>
<feGaussianBlur stdDeviation="0.4"/>
<feComposite in2="hardAlpha" operator="arithmetic" k2="-1" k3="1"/>
<feColorMatrix type="matrix" values="0 0 0 0 0.690196 0 0 0 0 0.211765 0 0 0 0 0.341176 0 0 0 1 0"/>
<feBlend mode="normal" in2="shape" result="effect1_innerShadow_106_184"/>
</filter>
<filter id="filter11_ii_106_184" x="59.6084" y="8.57158" width="17.5377" height="19.1381" filterUnits="userSpaceOnUse" color-interpolation-filters="sRGB">
<feFlood flood-opacity="0" result="BackgroundImageFix"/>
<feBlend mode="normal" in="SourceGraphic" in2="BackgroundImageFix" result="shape"/>
<feColorMatrix in="SourceAlpha" type="matrix" values="0 0 0 0 0 0 0 0 0 0 0 0 0 0 0 0 0 0 127 0" result="hardAlpha"/>
<feOffset dx="-0.05" dy="0.05"/>
<feGaussianBlur stdDeviation="0.05"/>
<feComposite in2="hardAlpha" operator="arithmetic" k2="-1" k3="1"/>
<feColorMatrix type="matrix" values="0 0 0 0 0.627451 0 0 0 0 0.592157 0 0 0 0 0.658824 0 0 0 1 0"/>
<feBlend mode="normal" in2="shape" result="effect1_innerShadow_106_184"/>
<feColorMatrix in="SourceAlpha" type="matrix" values="0 0 0 0 0 0 0 0 0 0 0 0 0 0 0 0 0 0 127 0" result="hardAlpha"/>
<feOffset dx="0.05" dy="-0.05"/>
<feGaussianBlur stdDeviation="0.05"/>
<feComposite in2="hardAlpha" operator="arithmetic" k2="-1" k3="1"/>
<feColorMatrix type="matrix" values="0 0 0 0 0.643137 0 0 0 0 0.52549 0 0 0 0 0.74902 0 0 0 1 0"/>
<feBlend mode="normal" in2="effect1_innerShadow_106_184" result="effect2_innerShadow_106_184"/>
</filter>
<filter id="filter12_d_106_184" x="64.0711" y="13.3463" width="2.61655" height="2.62021" filterUnits="userSpaceOnUse" color-interpolation-filters="sRGB">
<feFlood flood-opacity="0" result="BackgroundImageFix"/>
<feColorMatrix in="SourceAlpha" type="matrix" values="0 0 0 0 0 0 0 0 0 0 0 0 0 0 0 0 0 0 127 0" result="hardAlpha"/>
<feOffset dx="-0.1" dy="0.1"/>
<feGaussianBlur stdDeviation="0.1"/>
<feComposite in2="hardAlpha" operator="out"/>
<feColorMatrix type="matrix" values="0 0 0 0 0.54902 0 0 0 0 0.419608 0 0 0 0 0.658824 0 0 0 1 0"/>
<feBlend mode="normal" in2="BackgroundImageFix" result="effect1_dropShadow_106_184"/>
<feBlend mode="normal" in="SourceGraphic" in2="effect1_dropShadow_106_184" result="shape"/>
</filter>
<filter id="filter13_i_106_184" x="51" y="0" width="14.9723" height="14.6406" filterUnits="userSpaceOnUse" color-interpolation-filters="sRGB">
<feFlood flood-opacity="0" result="BackgroundImageFix"/>
<feBlend mode="normal" in="SourceGraphic" in2="BackgroundImageFix" result="shape"/>
<feColorMatrix in="SourceAlpha" type="matrix" values="0 0 0 0 0 0 0 0 0 0 0 0 0 0 0 0 0 0 127 0" result="hardAlpha"/>
<feOffset dx="0.4"/>
<feGaussianBlur stdDeviation="0.4"/>
<feComposite in2="hardAlpha" operator="arithmetic" k2="-1" k3="1"/>
<feColorMatrix type="matrix" values="0 0 0 0 0.690196 0 0 0 0 0.211765 0 0 0 0 0.341176 0 0 0 1 0"/>
<feBlend mode="normal" in2="shape" result="effect1_innerShadow_106_184"/>
</filter>
<filter id="filter14_f_106_184" x="52.709" y="0.468262" width="11.9685" height="11.9858" filterUnits="userSpaceOnUse" color-interpolation-filters="sRGB">
<feFlood flood-opacity="0" result="BackgroundImageFix"/>
<feBlend mode="normal" in="SourceGraphic" in2="BackgroundImageFix" result="shape"/>
<feGaussianBlur stdDeviation="0.25" result="effect1_foregroundBlur_106_184"/>
</filter>
<filter id="filter15_f_106_184" x="67.8677" y="0.472656" width="12.0703" height="12.0884" filterUnits="userSpaceOnUse" color-interpolation-filters="sRGB">
<feFlood flood-opacity="0" result="BackgroundImageFix"/>
<feBlend mode="normal" in="SourceGraphic" in2="BackgroundImageFix" result="shape"/>
<feGaussianBlur stdDeviation="0.25" result="effect1_foregroundBlur_106_184"/>
</filter>
<filter id="filter16_f_106_184" x="59.9478" y="9.104" width="4.18335" height="3.98486" filterUnits="userSpaceOnUse" color-interpolation-filters="sRGB">
<feFlood flood-opacity="0" result="BackgroundImageFix"/>
<feBlend mode="normal" in="SourceGraphic" in2="BackgroundImageFix" result="shape"/>
<feGaussianBlur stdDeviation="0.25" result="effect1_foregroundBlur_106_184"/>
</filter>
<filter id="filter17_f_106_184" x="67.0259" y="9.25195" width="4.06982" height="4.10498" filterUnits="userSpaceOnUse" color-interpolation-filters="sRGB">
<feFlood flood-opacity="0" result="BackgroundImageFix"/>
<feBlend mode="normal" in="SourceGraphic" in2="BackgroundImageFix" result="shape"/>
<feGaussianBlur stdDeviation="0.25" result="effect1_foregroundBlur_106_184"/>
</filter>
<linearGradient id="paint0_linear_106_184" x1="5.188" y1="5.76191" x2="18.313" y2="5.76191" gradientUnits="userSpaceOnUse">
<stop stop-color="#C1C1C2"/>
<stop offset="1" stop-color="#DDDDDE"/>
</linearGradient>
<linearGradient id="paint1_linear_106_184" x1="-1.45627e-07" y1="18.5199" x2="5.739" y2="16.2649" gradientUnits="userSpaceOnUse">
<stop stop-color="#B7B4BB"/>
<stop offset="1" stop-color="#B7B4BB" stop-opacity="0"/>
</linearGradient>
<linearGradient id="paint2_linear_106_184" x1="15.714" y1="27.9179" x2="15.714" y2="26.2809" gradientUnits="userSpaceOnUse">
<stop stop-color="#988EA1"/>
<stop offset="1" stop-color="#988EA1" stop-opacity="0"/>
</linearGradient>
<radialGradient id="paint3_radial_106_184" cx="0" cy="0" r="1" gradientUnits="userSpaceOnUse" gradientTransform="translate(5.90711 15.8133) rotate(91.332) scale(11.4443 7.18893)">
<stop stop-color="#D9D5DE"/>
<stop offset="1" stop-color="#C2BEC8"/>
</radialGradient>
<linearGradient id="paint4_linear_106_184" x1="3.71196" y1="25.5916" x2="5.70796" y2="22.5316" gradientUnits="userSpaceOnUse">
<stop stop-color="#C2BDC9"/>
<stop offset="1" stop-color="#C2BDC9" stop-opacity="0"/>
</linearGradient>
<linearGradient id="paint5_linear_106_184" x1="13.438" y1="7.87886" x2="6.62501" y2="18.5739" gradientUnits="userSpaceOnUse">
<stop stop-color="#EEEAF3"/>
<stop offset="1" stop-color="#E0DCE5"/>
</linearGradient>
<linearGradient id="paint6_linear_106_184" x1="20.5631" y1="8.32379" x2="15.1881" y2="10.3238" gradientUnits="userSpaceOnUse">
<stop stop-color="#E4E3E5"/>
<stop offset="1" stop-color="#D1D0D3"/>
</linearGradient>
<linearGradient id="paint7_linear_106_184" x1="15.5451" y1="5.49679" x2="15.9611" y2="5.96279" gradientUnits="userSpaceOnUse">
<stop offset="0.235" stop-color="#D0CFD2"/>
<stop offset="1" stop-color="#D0CFD2" stop-opacity="0"/>
</linearGradient>
<linearGradient id="paint8_linear_106_184" x1="12.7551" y1="8.30779" x2="15.8251" y2="9.09079" gradientUnits="userSpaceOnUse">
<stop stop-color="#CDCBCE"/>
<stop offset="1" stop-color="#CDCBCE" stop-opacity="0"/>
</linearGradient>
<radialGradient id="paint9_radial_106_184" cx="0" cy="0" r="1" gradientUnits="userSpaceOnUse" gradientTransform="translate(27.2583 15.0283) rotate(120.775) scale(4.53854 3.42258)">
<stop stop-color="#D8D6DB"/>
<stop offset="1" stop-color="#C5C4C6"/>
</radialGradient>
<linearGradient id="paint10_linear_106_184" x1="25.1379" y1="13.6098" x2="25.0539" y2="13.9078" gradientUnits="userSpaceOnUse">
<stop stop-color="#B6B6B6"/>
<stop offset="1" stop-color="#C3C3C4" stop-opacity="0"/>
</linearGradient>
<linearGradient id="paint11_linear_106_184" x1="23.706" y1="24.9848" x2="26.334" y2="18.9648" gradientUnits="userSpaceOnUse">
<stop stop-color="#B4B1B7"/>
<stop offset="1" stop-color="#B8B5BB"/>
</linearGradient>
<linearGradient id="paint12_linear_106_184" x1="21.6509" y1="27.1477" x2="8.74592" y2="27.1477" gradientUnits="userSpaceOnUse">
<stop stop-color="#A9A1B3"/>
<stop offset="1" stop-color="#A59DAD"/>
</linearGradient>
<linearGradient id="paint13_linear_106_184" x1="13.813" y1="7.44874" x2="19.938" y2="1.66774" gradientUnits="userSpaceOnUse">
<stop stop-color="#DAD9DB"/>
<stop offset="1" stop-color="#DAD9DB" stop-opacity="0"/>
</linearGradient>
<linearGradient id="paint14_linear_106_184" x1="22.716" y1="18.6445" x2="11.315" y2="16.8275" gradientUnits="userSpaceOnUse">
<stop stop-color="#F9F5FD"/>
<stop offset="1" stop-color="#C2BDC9"/>
</linearGradient>
<linearGradient id="paint15_linear_106_184" x1="40.961" y1="12" x2="40.961" y2="39.914" gradientUnits="userSpaceOnUse">
<stop stop-color="#EBE4F3"/>
<stop offset="1" stop-color="#E4DAF0"/>
</linearGradient>
<linearGradient id="paint16_linear_106_184" x1="45.4999" y1="18.664" x2="48.1409" y2="16.023" gradientUnits="userSpaceOnUse">
<stop stop-color="#D9D3E1"/>
<stop offset="1" stop-color="#CCC7D1"/>
</linearGradient>
<linearGradient id="paint17_linear_106_184" x1="48.7339" y1="15.508" x2="48.0939" y2="16.133" gradientUnits="userSpaceOnUse">
<stop offset="0.119" stop-color="#DBDADC"/>
<stop offset="0.577" stop-color="#CBC7D0" stop-opacity="0"/>
</linearGradient>
<linearGradient id="paint18_linear_106_184" x1="34" y1="22.4491" x2="47.914" y2="22.4491" gradientUnits="userSpaceOnUse">
<stop stop-color="#9C96A2"/>
<stop offset="1" stop-color="#9A95A1"/>
</linearGradient>
<linearGradient id="paint19_linear_106_184" x1="34" y1="25.4491" x2="47.914" y2="25.4491" gradientUnits="userSpaceOnUse">
<stop stop-color="#9C96A2"/>
<stop offset="1" stop-color="#9A95A1"/>
</linearGradient>
<linearGradient id="paint20_linear_106_184" x1="34" y1="28.4491" x2="47.914" y2="28.4491" gradientUnits="userSpaceOnUse">
<stop stop-color="#9C96A2"/>
<stop offset="1" stop-color="#9A95A1"/>
</linearGradient>
<linearGradient id="paint21_linear_106_184" x1="34" y1="31.4491" x2="42.984" y2="31.4491" gradientUnits="userSpaceOnUse">
<stop stop-color="#9C96A2"/>
<stop offset="1" stop-color="#9A95A1"/>
</linearGradient>
<linearGradient id="paint22_linear_106_184" x1="58.315" y1="18.6431" x2="61.7188" y2="21.8795" gradientUnits="userSpaceOnUse">
<stop stop-color="#877697"/>
<stop offset="1" stop-color="#BDA7D4"/>
</linearGradient>
<linearGradient id="paint23_linear_106_184" x1="64.8038" y1="16.649" x2="64.1887" y2="17.2155" gradientUnits="userSpaceOnUse">
<stop offset="0.607" stop-color="#7C549C"/>
<stop offset="1" stop-color="#7C549C" stop-opacity="0"/>
</linearGradient>
<linearGradient id="paint24_linear_106_184" x1="80" y1="7.4047" x2="68.9427" y2="7.4047" gradientUnits="userSpaceOnUse">
<stop stop-color="#FF7415"/>
<stop offset="1" stop-color="#F63178"/>
</linearGradient>
<linearGradient id="paint25_linear_106_184" x1="68.0975" y1="20.0695" x2="71.0393" y2="16.8499" gradientUnits="userSpaceOnUse">
<stop stop-color="#B59FCA"/>
<stop offset="1" stop-color="#887799"/>
</linearGradient>
<radialGradient id="paint26_radial_106_184" cx="0" cy="0" r="1" gradientUnits="userSpaceOnUse" gradientTransform="translate(65.5653 14.4278) rotate(134.52) scale(1.52333 1.39774)">
<stop offset="0.518" stop-color="#988098" stop-opacity="0"/>
<stop offset="0.86" stop-color="#988098"/>
</radialGradient>
<radialGradient id="paint27_radial_106_184" cx="0" cy="0" r="1" gradientUnits="userSpaceOnUse" gradientTransform="translate(64.9659 15.839) rotate(-68.1762) scale(1.38095 1.23024)">
<stop stop-color="#926BB4"/>
<stop offset="1" stop-color="#926BB4" stop-opacity="0"/>
</radialGradient>
<radialGradient id="paint28_radial_106_184" cx="0" cy="0" r="1" gradientUnits="userSpaceOnUse" gradientTransform="translate(65.8884 14.3955) rotate(139.568) scale(0.53741 0.537558)">
<stop offset="0.259" stop-color="#B9AEC4"/>
<stop offset="1" stop-color="#B9AEC4" stop-opacity="0"/>
</radialGradient>
<radialGradient id="paint29_radial_106_184" cx="0" cy="0" r="1" gradientUnits="userSpaceOnUse" gradientTransform="translate(65.3711 15.2553) rotate(-65.8959) scale(1.98127 1.97899)">
<stop offset="0.7" stop-color="#A49EA6" stop-opacity="0"/>
<stop offset="1" stop-color="#A49EA6"/>
</radialGradient>
<linearGradient id="paint30_linear_106_184" x1="65.7435" y1="7.4047" x2="54.5608" y2="7.4047" gradientUnits="userSpaceOnUse">
<stop stop-color="#FF7415"/>
<stop offset="1" stop-color="#F63178"/>
</linearGradient>
<linearGradient id="paint31_linear_106_184" x1="64.1079" y1="2.92131" x2="59.6616" y2="6.07121" gradientUnits="userSpaceOnUse">
<stop stop-color="#FF8C72"/>
<stop offset="1" stop-color="#FF8C72" stop-opacity="0"/>
</linearGradient>
<linearGradient id="paint32_linear_106_184" x1="53.584" y1="8.51868" x2="55.991" y2="7.61256" gradientUnits="userSpaceOnUse">
<stop stop-color="#FF638F"/>
<stop offset="1" stop-color="#FF638F" stop-opacity="0"/>
</linearGradient>
<linearGradient id="paint33_linear_106_184" x1="79.0777" y1="2.52693" x2="74.8468" y2="6.04741" gradientUnits="userSpaceOnUse">
<stop stop-color="#FF8C72"/>
<stop offset="1" stop-color="#FF8C72" stop-opacity="0"/>
</linearGradient>
<linearGradient id="paint34_linear_106_184" x1="68.9195" y1="8.98921" x2="71.2723" y2="7.88785" gradientUnits="userSpaceOnUse">
<stop stop-color="#FF638F"/>
<stop offset="1" stop-color="#FF638F" stop-opacity="0"/>
</linearGradient>
<linearGradient id="paint35_linear_106_184" x1="68.0563" y1="9.98169" x2="70.4242" y2="14.559" gradientUnits="userSpaceOnUse">
<stop stop-color="#DB236E"/>
<stop offset="1" stop-color="#DB236E" stop-opacity="0"/>
</linearGradient>
</defs>
</svg>
