<svg width="88" height="113" viewBox="0 0 88 113" fill="none" xmlns="http://www.w3.org/2000/svg">
<g filter="url(#filter0_iiii_116_4)">
<path d="M61.504 2.172C60.754 1.422 59.7368 1.0004 58.676 1H5.6C4.1148 1 2.6904 1.59 1.6404 2.6404C0.590004 3.6904 0 5.1148 0 6.6V107.056C0 108.541 0.590004 109.966 1.6404 111.016C2.6904 112.066 4.1148 112.656 5.6 112.656H82.088C83.5732 112.656 84.9976 112.066 86.0476 111.016C87.098 109.966 87.688 108.541 87.688 107.056V30.016C87.6884 29.49 87.5852 28.9692 87.384 28.4832C87.1828 27.9972 86.888 27.556 86.516 27.184L61.504 2.172Z" fill="url(#paint0_linear_116_4)"/>
</g>
<g filter="url(#filter1_f_116_4)">
<path d="M58.8476 2.65604C58.8476 1.85204 59.0796 1.33605 58.6396 1.24805C59.0556 1.27605 59.6637 1.42805 60.0477 1.58005C60.5397 1.77205 59.9276 2.20005 60.3156 2.57605L60.3516 2.60805L85.3636 27.62C85.7356 27.992 86.0304 28.4332 86.2316 28.9192C86.4328 29.4052 86.536 29.926 86.5356 30.452V30.704C86.5356 29.776 85.8636 29.22 85.3636 29.22H63.6476C62.3748 29.22 61.1536 28.7144 60.2536 27.814C59.3532 26.914 58.8476 25.6932 58.8476 24.42V2.65604Z" fill="#D2C5DF"/>
</g>
<g filter="url(#filter2_ii_116_4)">
<path d="M60.0037 2.22006C60.0037 1.41206 59.3677 1.09606 58.9277 1.00806C59.8989 1.06846 60.8149 1.48086 61.5037 2.16806L86.5157 27.1841C86.9633 27.6325 87.2977 28.1809 87.4917 28.7841C87.6209 29.1805 87.6869 29.5949 87.6877 30.0121V30.2641C87.6877 29.3361 87.0157 28.7841 86.5157 28.7841H64.7997C64.1693 28.7841 63.5453 28.6597 62.9629 28.4185C62.3805 28.1773 61.8513 27.8237 61.4057 27.3781C60.9601 26.9325 60.6065 26.4033 60.3653 25.8209C60.1241 25.2385 59.9997 24.6141 59.9997 23.9841L60.0037 2.22006Z" fill="url(#paint1_linear_116_4)"/>
</g>
<path d="M60.0037 2.22006C60.0037 1.41206 59.3677 1.09606 58.9277 1.00806C59.8989 1.06846 60.8149 1.48086 61.5037 2.16806L86.5157 27.1841C86.9633 27.6325 87.2977 28.1809 87.4917 28.7841C87.6209 29.1805 87.6869 29.5949 87.6877 30.0121V30.2641C87.6877 29.3361 87.0157 28.7841 86.5157 28.7841H64.7997C64.1693 28.7841 63.5453 28.6597 62.9629 28.4185C62.3805 28.1773 61.8513 27.8237 61.4057 27.3781C60.9601 26.9325 60.6065 26.4033 60.3653 25.8209C60.1241 25.2385 59.9997 24.6141 59.9997 23.9841L60.0037 2.22006Z" fill="url(#paint2_linear_116_4)"/>
<path d="M69.672 40.8125H17.984C16.8884 40.8125 16 41.7009 16 42.7965C16 43.8925 16.8884 44.7805 17.984 44.7805H69.672C70.7676 44.7805 71.656 43.8925 71.656 42.7965C71.656 41.7009 70.7676 40.8125 69.672 40.8125Z" fill="url(#paint3_linear_116_4)"/>
<path d="M69.672 52.8125H17.984C16.8884 52.8125 16 53.7009 16 54.7965C16 55.8925 16.8884 56.7805 17.984 56.7805H69.672C70.7676 56.7805 71.656 55.8925 71.656 54.7965C71.656 53.7009 70.7676 52.8125 69.672 52.8125Z" fill="url(#paint4_linear_116_4)"/>
<path d="M69.672 64.8125H17.984C16.8884 64.8125 16 65.7009 16 66.7965C16 67.8925 16.8884 68.7805 17.984 68.7805H69.672C70.7676 68.7805 71.656 67.8925 71.656 66.7965C71.656 65.7009 70.7676 64.8125 69.672 64.8125Z" fill="url(#paint5_linear_116_4)"/>
<path d="M49.952 76.8125H17.984C16.8884 76.8125 16 77.7009 16 78.7965C16 79.8925 16.8884 80.7805 17.984 80.7805H49.952C51.0476 80.7805 51.936 79.8925 51.936 78.7965C51.936 77.7009 51.0476 76.8125 49.952 76.8125Z" fill="url(#paint6_linear_116_4)"/>
<defs>
<filter id="filter0_iiii_116_4" x="-0.1" y="0.7" width="88.088" height="112.056" filterUnits="userSpaceOnUse" color-interpolation-filters="sRGB">
<feFlood flood-opacity="0" result="BackgroundImageFix"/>
<feBlend mode="normal" in="SourceGraphic" in2="BackgroundImageFix" result="shape"/>
<feColorMatrix in="SourceAlpha" type="matrix" values="0 0 0 0 0 0 0 0 0 0 0 0 0 0 0 0 0 0 127 0" result="hardAlpha"/>
<feOffset dx="0.3" dy="-0.3"/>
<feGaussianBlur stdDeviation="0.3"/>
<feComposite in2="hardAlpha" operator="arithmetic" k2="-1" k3="1"/>
<feColorMatrix type="matrix" values="0 0 0 0 0.807843 0 0 0 0 0.768627 0 0 0 0 0.85098 0 0 0 1 0"/>
<feBlend mode="normal" in2="shape" result="effect1_innerShadow_116_4"/>
<feColorMatrix in="SourceAlpha" type="matrix" values="0 0 0 0 0 0 0 0 0 0 0 0 0 0 0 0 0 0 127 0" result="hardAlpha"/>
<feOffset dx="0.1" dy="-0.1"/>
<feGaussianBlur stdDeviation="0.1"/>
<feComposite in2="hardAlpha" operator="arithmetic" k2="-1" k3="1"/>
<feColorMatrix type="matrix" values="0 0 0 0 0.709804 0 0 0 0 0.690196 0 0 0 0 0.733333 0 0 0 1 0"/>
<feBlend mode="normal" in2="effect1_innerShadow_116_4" result="effect2_innerShadow_116_4"/>
<feColorMatrix in="SourceAlpha" type="matrix" values="0 0 0 0 0 0 0 0 0 0 0 0 0 0 0 0 0 0 127 0" result="hardAlpha"/>
<feOffset dy="-0.1"/>
<feGaussianBlur stdDeviation="0.1"/>
<feComposite in2="hardAlpha" operator="arithmetic" k2="-1" k3="1"/>
<feColorMatrix type="matrix" values="0 0 0 0 0.72549 0 0 0 0 0.65098 0 0 0 0 0.8 0 0 0 1 0"/>
<feBlend mode="normal" in2="effect2_innerShadow_116_4" result="effect3_innerShadow_116_4"/>
<feColorMatrix in="SourceAlpha" type="matrix" values="0 0 0 0 0 0 0 0 0 0 0 0 0 0 0 0 0 0 127 0" result="hardAlpha"/>
<feOffset dx="-0.15" dy="0.15"/>
<feGaussianBlur stdDeviation="0.05"/>
<feComposite in2="hardAlpha" operator="arithmetic" k2="-1" k3="1"/>
<feColorMatrix type="matrix" values="0 0 0 0 0.952941 0 0 0 0 0.941176 0 0 0 0 0.964706 0 0 0 1 0"/>
<feBlend mode="normal" in2="effect3_innerShadow_116_4" result="effect4_innerShadow_116_4"/>
</filter>
<filter id="filter1_f_116_4" x="58.1396" y="0.748047" width="28.896" height="30.4561" filterUnits="userSpaceOnUse" color-interpolation-filters="sRGB">
<feFlood flood-opacity="0" result="BackgroundImageFix"/>
<feBlend mode="normal" in="SourceGraphic" in2="BackgroundImageFix" result="shape"/>
<feGaussianBlur stdDeviation="0.25" result="effect1_foregroundBlur_116_4"/>
</filter>
<filter id="filter2_ii_116_4" x="58.9277" y="0.908057" width="28.86" height="29.3561" filterUnits="userSpaceOnUse" color-interpolation-filters="sRGB">
<feFlood flood-opacity="0" result="BackgroundImageFix"/>
<feBlend mode="normal" in="SourceGraphic" in2="BackgroundImageFix" result="shape"/>
<feColorMatrix in="SourceAlpha" type="matrix" values="0 0 0 0 0 0 0 0 0 0 0 0 0 0 0 0 0 0 127 0" result="hardAlpha"/>
<feOffset dx="0.1"/>
<feGaussianBlur stdDeviation="0.075"/>
<feComposite in2="hardAlpha" operator="arithmetic" k2="-1" k3="1"/>
<feColorMatrix type="matrix" values="0 0 0 0 0.631373 0 0 0 0 0.611765 0 0 0 0 0.654902 0 0 0 1 0"/>
<feBlend mode="normal" in2="shape" result="effect1_innerShadow_116_4"/>
<feColorMatrix in="SourceAlpha" type="matrix" values="0 0 0 0 0 0 0 0 0 0 0 0 0 0 0 0 0 0 127 0" result="hardAlpha"/>
<feOffset dy="-0.1"/>
<feGaussianBlur stdDeviation="0.075"/>
<feComposite in2="hardAlpha" operator="arithmetic" k2="-1" k3="1"/>
<feColorMatrix type="matrix" values="0 0 0 0 0.752941 0 0 0 0 0.67451 0 0 0 0 0.835294 0 0 0 1 0"/>
<feBlend mode="normal" in2="effect1_innerShadow_116_4" result="effect2_innerShadow_116_4"/>
</filter>
<linearGradient id="paint0_linear_116_4" x1="43.844" y1="1" x2="43.844" y2="112.656" gradientUnits="userSpaceOnUse">
<stop stop-color="#EBE4F3"/>
<stop offset="1" stop-color="#E4DAF0"/>
</linearGradient>
<linearGradient id="paint1_linear_116_4" x1="61.9997" y1="27.6561" x2="72.5637" y2="17.0921" gradientUnits="userSpaceOnUse">
<stop stop-color="#D9D3E1"/>
<stop offset="1" stop-color="#CCC7D1"/>
</linearGradient>
<linearGradient id="paint2_linear_116_4" x1="74.9357" y1="15.0321" x2="72.3757" y2="17.5321" gradientUnits="userSpaceOnUse">
<stop offset="0.119" stop-color="#DBDADC"/>
<stop offset="0.577" stop-color="#CBC7D0" stop-opacity="0"/>
</linearGradient>
<linearGradient id="paint3_linear_116_4" x1="16" y1="42.7965" x2="71.656" y2="42.7965" gradientUnits="userSpaceOnUse">
<stop stop-color="#9C96A2"/>
<stop offset="1" stop-color="#9A95A1"/>
</linearGradient>
<linearGradient id="paint4_linear_116_4" x1="16" y1="54.7965" x2="71.656" y2="54.7965" gradientUnits="userSpaceOnUse">
<stop stop-color="#9C96A2"/>
<stop offset="1" stop-color="#9A95A1"/>
</linearGradient>
<linearGradient id="paint5_linear_116_4" x1="16" y1="66.7965" x2="71.656" y2="66.7965" gradientUnits="userSpaceOnUse">
<stop stop-color="#9C96A2"/>
<stop offset="1" stop-color="#9A95A1"/>
</linearGradient>
<linearGradient id="paint6_linear_116_4" x1="16" y1="78.7965" x2="51.936" y2="78.7965" gradientUnits="userSpaceOnUse">
<stop stop-color="#9C96A2"/>
<stop offset="1" stop-color="#9A95A1"/>
</linearGradient>
</defs>
</svg>
