<svg width="112" height="112" viewBox="0 0 112 112" fill="none" xmlns="http://www.w3.org/2000/svg">
<g filter="url(#filter0_i_116_2)">
<path d="M28.736 5.70364L24.256 29.4436C24.116 30.1867 23.8268 30.8938 23.4061 31.5221C22.9854 32.1505 22.4418 32.6871 21.808 33.0996L2.728 45.5196C1.89067 46.0644 1.20261 46.8096 0.726224 47.6876C0.249843 48.5656 0.000219058 49.5488 0 50.5476V73.8196C0.000534068 74.6956 0.288615 75.5472 0.82 76.2436L26.312 109.7C27.256 110.94 28.728 111.672 30.288 111.672H90.06C91.5196 111.672 92.9428 111.216 94.1304 110.368C95.3184 109.519 96.2112 108.32 96.684 106.94L110.768 65.8116C111.363 64.074 111.251 62.172 110.456 60.516C109.662 58.86 108.248 57.5828 106.52 56.9596L92.552 51.9236C92.2224 51.8052 91.9224 51.616 91.6736 51.3692C91.4248 51.1224 91.2332 50.8244 91.112 50.4956L76.712 11.4036C76.3604 10.4517 75.7728 9.60456 75.0048 8.9414C74.2368 8.27824 73.3132 7.82072 72.32 7.61164L37.064 0.151632C36.1518 -0.041378 35.2103 -0.0502192 34.2947 0.125628C33.379 0.301476 32.5078 0.658468 31.732 1.17565C30.9562 1.69283 30.2916 2.35978 29.7771 3.13734C29.2626 3.9149 28.9087 4.7874 28.736 5.70364Z" fill="url(#paint0_linear_116_2)"/>
</g>
<path d="M28.736 5.70364L24.256 29.4436C24.116 30.1867 23.8268 30.8938 23.4061 31.5221C22.9854 32.1505 22.4418 32.6871 21.808 33.0996L2.728 45.5196C1.89067 46.0644 1.20261 46.8096 0.726224 47.6876C0.249843 48.5656 0.000219058 49.5488 0 50.5476V73.8196C0.000534068 74.6956 0.288615 75.5472 0.82 76.2436L26.312 109.7C27.256 110.94 28.728 111.672 30.288 111.672H90.06C91.5196 111.672 92.9428 111.216 94.1304 110.368C95.3184 109.519 96.2112 108.32 96.684 106.94L110.768 65.8116C111.363 64.074 111.251 62.172 110.456 60.516C109.662 58.86 108.248 57.5828 106.52 56.9596L92.552 51.9236C92.2224 51.8052 91.9224 51.616 91.6736 51.3692C91.4248 51.1224 91.2332 50.8244 91.112 50.4956L76.712 11.4036C76.3604 10.4517 75.7728 9.60456 75.0048 8.9414C74.2368 8.27824 73.3132 7.82072 72.32 7.61164L37.064 0.151632C36.1518 -0.041378 35.2103 -0.0502192 34.2947 0.125628C33.379 0.301476 32.5078 0.658468 31.732 1.17565C30.9562 1.69283 30.2916 2.35978 29.7771 3.13734C29.2626 3.9149 28.9087 4.7874 28.736 5.70364Z" fill="url(#paint1_linear_116_2)"/>
<path d="M28.736 5.70364L24.256 29.4436C24.116 30.1867 23.8268 30.8938 23.4061 31.5221C22.9854 32.1505 22.4418 32.6871 21.808 33.0996L2.728 45.5196C1.89067 46.0644 1.20261 46.8096 0.726224 47.6876C0.249843 48.5656 0.000219058 49.5488 0 50.5476V73.8196C0.000534068 74.6956 0.288615 75.5472 0.82 76.2436L26.312 109.7C27.256 110.94 28.728 111.672 30.288 111.672H90.06C91.5196 111.672 92.9428 111.216 94.1304 110.368C95.3184 109.519 96.2112 108.32 96.684 106.94L110.768 65.8116C111.363 64.074 111.251 62.172 110.456 60.516C109.662 58.86 108.248 57.5828 106.52 56.9596L92.552 51.9236C92.2224 51.8052 91.9224 51.616 91.6736 51.3692C91.4248 51.1224 91.2332 50.8244 91.112 50.4956L76.712 11.4036C76.3604 10.4517 75.7728 9.60456 75.0048 8.9414C74.2368 8.27824 73.3132 7.82072 72.32 7.61164L37.064 0.151632C36.1518 -0.041378 35.2103 -0.0502192 34.2947 0.125628C33.379 0.301476 32.5078 0.658468 31.732 1.17565C30.9562 1.69283 30.2916 2.35978 29.7771 3.13734C29.2626 3.9149 28.9087 4.7874 28.736 5.70364Z" fill="url(#paint2_linear_116_2)"/>
<path d="M28.2798 111.25L32.5918 99.9505L27.6238 75.5425L23.5918 60.2305C23.2318 60.4825 12.5398 67.7185 0.547852 75.8385C0.630228 75.9785 0.721064 76.1137 0.819852 76.2425L26.3118 109.698C26.8318 110.382 27.5118 110.91 28.2798 111.25Z" fill="url(#paint3_radial_116_2)"/>
<path d="M28.2798 111.25L32.5918 99.9505L27.6238 75.5425L23.5918 60.2305C23.2318 60.4825 12.5398 67.7185 0.547852 75.8385C0.630228 75.9785 0.721064 76.1137 0.819852 76.2425L26.3118 109.698C26.8318 110.382 27.5118 110.91 28.2798 111.25Z" fill="url(#paint4_linear_116_2)"/>
<g filter="url(#filter1_f_116_2)">
<path d="M23.624 60.2956V32.5354C23.624 32.4021 23.6506 32.27 23.7023 32.1471C23.7541 32.0242 23.8299 31.9129 23.9253 31.8197C24.0207 31.7265 24.1338 31.6534 24.2579 31.6046C24.3821 31.5558 24.5147 31.5322 24.648 31.5354L51.688 32.1074L63.876 51.9196L27.748 76.1716L23.624 60.2956Z" fill="url(#paint5_linear_116_2)"/>
</g>
<g filter="url(#filter2_f_116_2)">
<path d="M75.8925 10.5352L51.6885 32.1712L63.8765 51.9192H92.1245C91.7973 51.7996 91.5005 51.6104 91.2537 51.3644C91.0073 51.1184 90.8169 50.822 90.6965 50.4952L76.2965 11.4032C76.1853 11.1035 76.0501 10.8133 75.8925 10.5352Z" fill="url(#paint6_linear_116_2)"/>
<path d="M75.8925 10.5352L51.6885 32.1712L63.8765 51.9192H92.1245C91.7973 51.7996 91.5005 51.6104 91.2537 51.3644C91.0073 51.1184 90.8169 50.822 90.6965 50.4952L76.2965 11.4032C76.1853 11.1035 76.0501 10.8133 75.8925 10.5352Z" fill="url(#paint7_linear_116_2)"/>
<path d="M75.8925 10.5352L51.6885 32.1712L63.8765 51.9192H92.1245C91.7973 51.7996 91.5005 51.6104 91.2537 51.3644C91.0073 51.1184 90.8169 50.822 90.6965 50.4952L76.2965 11.4032C76.1853 11.1035 76.0501 10.8133 75.8925 10.5352Z" fill="url(#paint8_linear_116_2)"/>
</g>
<path fill-rule="evenodd" clip-rule="evenodd" d="M92.6437 51.9551C92.5113 51.9919 92.3885 52.0559 92.2817 52.1423C92.1753 52.2291 92.0877 52.3367 92.0249 52.4587C91.9617 52.5807 91.9245 52.7143 91.9153 52.8515C91.9061 52.9883 91.9253 53.1259 91.9717 53.2551L99.9997 75.9191L106.684 77.7311L110.768 65.8111C111.363 64.0731 111.251 62.1711 110.456 60.5155C109.661 58.8595 108.248 57.5819 106.52 56.9591L92.6437 51.9551Z" fill="url(#paint9_radial_116_2)"/>
<path fill-rule="evenodd" clip-rule="evenodd" d="M92.6437 51.9551C92.5113 51.9919 92.3885 52.0559 92.2817 52.1423C92.1753 52.2291 92.0877 52.3367 92.0249 52.4587C91.9617 52.5807 91.9245 52.7143 91.9153 52.8515C91.9061 52.9883 91.9253 53.1259 91.9717 53.2551L99.9997 75.9191L106.684 77.7311L110.768 65.8111C111.363 64.0731 111.251 62.1711 110.456 60.5155C109.661 58.8595 108.248 57.5819 106.52 56.9591L92.6437 51.9551Z" fill="url(#paint10_linear_116_2)"/>
<path d="M99.9801 75.8591L91.4121 99.9431L94.6641 109.943C95.5681 109.155 96.2761 108.127 96.6841 106.939L106.684 77.7311L100 75.9191L99.9801 75.8591Z" fill="url(#paint11_linear_116_2)"/>
<g filter="url(#filter3_f_116_2)">
<path d="M94.6796 109.571L91.7596 100.047H32.4997L28.2637 110.835C28.8957 111.103 29.5837 111.247 30.2877 111.247H90.0596C91.8036 111.247 93.4316 110.631 94.6796 109.571Z" fill="url(#paint12_linear_116_2)"/>
</g>
<g filter="url(#filter4_f_116_2)">
<path d="M51.624 31.919L74 11.043" stroke="url(#paint13_linear_116_2)" stroke-width="0.2" stroke-linecap="round"/>
</g>
<g filter="url(#filter5_f_116_2)">
<path d="M32.564 100.046L27.752 76.23L63.752 51.918H91.376L100 75.794L91.376 100.046H32.564Z" fill="url(#paint14_linear_116_2)"/>
</g>
<defs>
<filter id="filter0_i_116_2" x="0" y="0" width="111.245" height="111.772" filterUnits="userSpaceOnUse" color-interpolation-filters="sRGB">
<feFlood flood-opacity="0" result="BackgroundImageFix"/>
<feBlend mode="normal" in="SourceGraphic" in2="BackgroundImageFix" result="shape"/>
<feColorMatrix in="SourceAlpha" type="matrix" values="0 0 0 0 0 0 0 0 0 0 0 0 0 0 0 0 0 0 127 0" result="hardAlpha"/>
<feOffset dx="0.1" dy="0.1"/>
<feGaussianBlur stdDeviation="0.2"/>
<feComposite in2="hardAlpha" operator="arithmetic" k2="-1" k3="1"/>
<feColorMatrix type="matrix" values="0 0 0 0 0.615686 0 0 0 0 0.615686 0 0 0 0 0.619608 0 0 0 1 0"/>
<feBlend mode="normal" in2="shape" result="effect1_innerShadow_116_2"/>
</filter>
<filter id="filter1_f_116_2" x="23.374" y="31.2852" width="40.752" height="45.1365" filterUnits="userSpaceOnUse" color-interpolation-filters="sRGB">
<feFlood flood-opacity="0" result="BackgroundImageFix"/>
<feBlend mode="normal" in="SourceGraphic" in2="BackgroundImageFix" result="shape"/>
<feGaussianBlur stdDeviation="0.125" result="effect1_foregroundBlur_116_2"/>
</filter>
<filter id="filter2_f_116_2" x="51.4385" y="10.2852" width="40.936" height="41.884" filterUnits="userSpaceOnUse" color-interpolation-filters="sRGB">
<feFlood flood-opacity="0" result="BackgroundImageFix"/>
<feBlend mode="normal" in="SourceGraphic" in2="BackgroundImageFix" result="shape"/>
<feGaussianBlur stdDeviation="0.125" result="effect1_foregroundBlur_116_2"/>
</filter>
<filter id="filter3_f_116_2" x="28.0137" y="99.7969" width="66.916" height="11.7" filterUnits="userSpaceOnUse" color-interpolation-filters="sRGB">
<feFlood flood-opacity="0" result="BackgroundImageFix"/>
<feBlend mode="normal" in="SourceGraphic" in2="BackgroundImageFix" result="shape"/>
<feGaussianBlur stdDeviation="0.125" result="effect1_foregroundBlur_116_2"/>
</filter>
<filter id="filter4_f_116_2" x="51.3239" y="10.7429" width="22.9762" height="21.4762" filterUnits="userSpaceOnUse" color-interpolation-filters="sRGB">
<feFlood flood-opacity="0" result="BackgroundImageFix"/>
<feBlend mode="normal" in="SourceGraphic" in2="BackgroundImageFix" result="shape"/>
<feGaussianBlur stdDeviation="0.1" result="effect1_foregroundBlur_116_2"/>
</filter>
<filter id="filter5_f_116_2" x="27.502" y="51.668" width="72.748" height="48.6279" filterUnits="userSpaceOnUse" color-interpolation-filters="sRGB">
<feFlood flood-opacity="0" result="BackgroundImageFix"/>
<feBlend mode="normal" in="SourceGraphic" in2="BackgroundImageFix" result="shape"/>
<feGaussianBlur stdDeviation="0.125" result="effect1_foregroundBlur_116_2"/>
</filter>
<linearGradient id="paint0_linear_116_2" x1="20.752" y1="23.0476" x2="73.252" y2="23.0476" gradientUnits="userSpaceOnUse">
<stop stop-color="#C1C1C2"/>
<stop offset="1" stop-color="#DDDDDE"/>
</linearGradient>
<linearGradient id="paint1_linear_116_2" x1="-9.06095e-07" y1="74.0796" x2="22.956" y2="65.0596" gradientUnits="userSpaceOnUse">
<stop stop-color="#B7B4BB"/>
<stop offset="1" stop-color="#B7B4BB" stop-opacity="0"/>
</linearGradient>
<linearGradient id="paint2_linear_116_2" x1="62.856" y1="111.672" x2="62.856" y2="105.124" gradientUnits="userSpaceOnUse">
<stop stop-color="#988EA1"/>
<stop offset="1" stop-color="#988EA1" stop-opacity="0"/>
</linearGradient>
<radialGradient id="paint3_radial_116_2" cx="0" cy="0" r="1" gradientUnits="userSpaceOnUse" gradientTransform="translate(23.6284 63.2533) rotate(91.332) scale(45.7772 28.7557)">
<stop stop-color="#D9D5DE"/>
<stop offset="1" stop-color="#C2BEC8"/>
</radialGradient>
<linearGradient id="paint4_linear_116_2" x1="14.8478" y1="102.366" x2="22.8318" y2="90.1265" gradientUnits="userSpaceOnUse">
<stop stop-color="#C2BDC9"/>
<stop offset="1" stop-color="#C2BDC9" stop-opacity="0"/>
</linearGradient>
<linearGradient id="paint5_linear_116_2" x1="53.752" y1="31.5154" x2="26.5" y2="74.2956" gradientUnits="userSpaceOnUse">
<stop stop-color="#EEEAF3"/>
<stop offset="1" stop-color="#E0DCE5"/>
</linearGradient>
<linearGradient id="paint6_linear_116_2" x1="82.2525" y1="33.2952" x2="60.7525" y2="41.2952" gradientUnits="userSpaceOnUse">
<stop stop-color="#E4E3E5"/>
<stop offset="1" stop-color="#D1D0D3"/>
</linearGradient>
<linearGradient id="paint7_linear_116_2" x1="62.1805" y1="21.9872" x2="63.8445" y2="23.8512" gradientUnits="userSpaceOnUse">
<stop offset="0.235" stop-color="#D0CFD2"/>
<stop offset="1" stop-color="#D0CFD2" stop-opacity="0"/>
</linearGradient>
<linearGradient id="paint8_linear_116_2" x1="51.0205" y1="33.2312" x2="63.3005" y2="36.3632" gradientUnits="userSpaceOnUse">
<stop stop-color="#CDCBCE"/>
<stop offset="1" stop-color="#CDCBCE" stop-opacity="0"/>
</linearGradient>
<radialGradient id="paint9_radial_116_2" cx="0" cy="0" r="1" gradientUnits="userSpaceOnUse" gradientTransform="translate(109.033 60.1131) rotate(120.775) scale(18.1542 13.6903)">
<stop stop-color="#D8D6DB"/>
<stop offset="1" stop-color="#C5C4C6"/>
</radialGradient>
<linearGradient id="paint10_linear_116_2" x1="100.552" y1="54.4391" x2="100.216" y2="55.6311" gradientUnits="userSpaceOnUse">
<stop stop-color="#B6B6B6"/>
<stop offset="1" stop-color="#C3C3C4" stop-opacity="0"/>
</linearGradient>
<linearGradient id="paint11_linear_116_2" x1="94.8241" y1="99.9391" x2="105.336" y2="75.8591" gradientUnits="userSpaceOnUse">
<stop stop-color="#B4B1B7"/>
<stop offset="1" stop-color="#B8B5BB"/>
</linearGradient>
<linearGradient id="paint12_linear_116_2" x1="86.6036" y1="108.591" x2="34.9837" y2="108.591" gradientUnits="userSpaceOnUse">
<stop stop-color="#A9A1B3"/>
<stop offset="1" stop-color="#A59DAD"/>
</linearGradient>
<linearGradient id="paint13_linear_116_2" x1="55.252" y1="29.795" x2="79.752" y2="6.67097" gradientUnits="userSpaceOnUse">
<stop stop-color="#DAD9DB"/>
<stop offset="1" stop-color="#DAD9DB" stop-opacity="0"/>
</linearGradient>
<linearGradient id="paint14_linear_116_2" x1="90.864" y1="74.578" x2="45.26" y2="67.31" gradientUnits="userSpaceOnUse">
<stop stop-color="#F9F5FD"/>
<stop offset="1" stop-color="#C2BDC9"/>
</linearGradient>
</defs>
</svg>
