<svg width="116" height="111" viewBox="0 0 116 111" fill="none" xmlns="http://www.w3.org/2000/svg">
<g filter="url(#filter0_i_116_3)">
<path d="M18.3931 110.64L81.4479 47.4768L68.7291 34.7363L15.4931 88.0228C12.8851 90.6376 11.4199 94.1828 11.4199 97.8792C11.4199 101.576 12.8851 105.121 15.4931 107.736L18.3931 110.64Z" fill="url(#paint0_linear_116_3)"/>
<path d="M18.3931 110.64L81.4479 47.4768L68.7291 34.7363L15.4931 88.0228C12.8851 90.6376 11.4199 94.1828 11.4199 97.8792C11.4199 101.576 12.8851 105.121 15.4931 107.736L18.3931 110.64Z" fill="url(#paint1_linear_116_3)"/>
</g>
<g filter="url(#filter1_i_116_3)">
<path d="M58.8779 44.04C58.7223 44.194 58.5984 44.3772 58.5136 44.5792C58.4288 44.7812 58.3843 44.998 58.3835 45.2172C58.3831 45.4364 58.4255 45.6532 58.5091 45.856C58.5923 46.0584 58.7151 46.2424 58.8699 46.3976L70.5071 58.0548C70.6619 58.2096 70.8459 58.332 71.0483 58.4152C71.2507 58.4984 71.4675 58.5408 71.6863 58.5396C71.9051 58.5384 72.1216 58.494 72.3228 58.4088C72.5244 58.3232 72.7072 58.1988 72.8604 58.0424L77.5623 53.2408C77.8107 52.9944 78.1271 52.8288 78.4707 52.7648C78.8143 52.7012 79.1691 52.7428 79.4887 52.884C96.2135 59.9972 116 44.6088 116 27.0582C116 12.1181 103.986 0 89.0715 0C74.1571 0 62.0599 12.1181 62.0599 27.0582C62.0599 30.7808 62.7311 34.1424 64.0939 37.3088C64.2351 37.6278 64.2772 37.9819 64.2152 38.3252C64.1532 38.6685 63.9895 38.9852 63.7459 39.2344L58.8779 44.04ZM76.4771 27.0582C76.4771 20.1277 82.1111 14.4836 89.0299 14.4836C95.9487 14.4836 101.583 20.1277 101.583 27.0582C101.583 33.9888 95.9487 39.6328 89.0299 39.6328C82.1111 39.6328 76.4771 34.0303 76.4771 27.0582Z" fill="url(#paint2_linear_116_3)"/>
</g>
<g filter="url(#filter2_ii_116_3)">
<path d="M97.6883 110.64L34.6335 47.476L47.0623 34.4863L100.257 87.7728C105.726 93.2508 105.767 102.588 100.34 108.025L97.6883 110.64Z" fill="url(#paint3_linear_116_3)"/>
</g>
<g filter="url(#filter3_d_116_3)">
<path d="M57.9172 62.6664C59.0928 62.6664 60.2204 62.1984 61.0516 61.3656C61.8832 60.5328 62.35 59.4032 62.35 58.2256C62.35 57.048 61.8832 55.9184 61.0516 55.0856C60.2204 54.2532 59.0928 53.7852 57.9172 53.7852C56.7416 53.7852 55.614 54.2532 54.7828 55.0856C53.9516 55.9184 53.4844 57.048 53.4844 58.2256C53.4844 59.4032 53.9516 60.5328 54.7828 61.3656C55.614 62.1984 56.7416 62.6664 57.9172 62.6664Z" fill="#A79AAC"/>
<path d="M57.9172 62.6664C59.0928 62.6664 60.2204 62.1984 61.0516 61.3656C61.8832 60.5328 62.35 59.4032 62.35 58.2256C62.35 57.048 61.8832 55.9184 61.0516 55.0856C60.2204 54.2532 59.0928 53.7852 57.9172 53.7852C56.7416 53.7852 55.614 54.2532 54.7828 55.0856C53.9516 55.9184 53.4844 57.048 53.4844 58.2256C53.4844 59.4032 53.9516 60.5328 54.7828 61.3656C55.614 62.1984 56.7416 62.6664 57.9172 62.6664Z" fill="url(#paint4_radial_116_3)"/>
<path d="M57.9172 62.6664C59.0928 62.6664 60.2204 62.1984 61.0516 61.3656C61.8832 60.5328 62.35 59.4032 62.35 58.2256C62.35 57.048 61.8832 55.9184 61.0516 55.0856C60.2204 54.2532 59.0928 53.7852 57.9172 53.7852C56.7416 53.7852 55.614 54.2532 54.7828 55.0856C53.9516 55.9184 53.4844 57.048 53.4844 58.2256C53.4844 59.4032 53.9516 60.5328 54.7828 61.3656C55.614 62.1984 56.7416 62.6664 57.9172 62.6664Z" fill="url(#paint5_radial_116_3)"/>
<path d="M57.9172 62.6664C59.0928 62.6664 60.2204 62.1984 61.0516 61.3656C61.8832 60.5328 62.35 59.4032 62.35 58.2256C62.35 57.048 61.8832 55.9184 61.0516 55.0856C60.2204 54.2532 59.0928 53.7852 57.9172 53.7852C56.7416 53.7852 55.614 54.2532 54.7828 55.0856C53.9516 55.9184 53.4844 57.048 53.4844 58.2256C53.4844 59.4032 53.9516 60.5328 54.7828 61.3656C55.614 62.1984 56.7416 62.6664 57.9172 62.6664Z" fill="url(#paint6_radial_116_3)"/>
<path d="M57.9172 62.6664C59.0928 62.6664 60.2204 62.1984 61.0516 61.3656C61.8832 60.5328 62.35 59.4032 62.35 58.2256C62.35 57.048 61.8832 55.9184 61.0516 55.0856C60.2204 54.2532 59.0928 53.7852 57.9172 53.7852C56.7416 53.7852 55.614 54.2532 54.7828 55.0856C53.9516 55.9184 53.4844 57.048 53.4844 58.2256C53.4844 59.4032 53.9516 60.5328 54.7828 61.3656C55.614 62.1984 56.7416 62.6664 57.9172 62.6664Z" fill="url(#paint7_radial_116_3)"/>
</g>
<g filter="url(#filter4_i_116_3)">
<path d="M53.058 38.7198C52.8276 38.4796 52.6712 38.1785 52.6064 37.852C52.542 37.5254 52.572 37.1872 52.6932 36.8772C60.4196 17.0318 44.5524 0 26.9288 0C12.0144 0 0 12.1181 0 27.0582C0 41.9984 12.0144 54.1164 26.9288 54.1164C30.6408 54.1164 33.3212 54.1 36.3372 52.8716C36.6552 52.7384 37.0048 52.7004 37.3436 52.7624C37.6828 52.824 37.9964 52.9832 38.2472 53.22L43.1688 58.084C43.4796 58.3912 43.8992 58.5632 44.336 58.5624C44.7728 58.5616 45.1916 58.3884 45.5012 58.0796L57.8016 45.8248C57.956 45.6704 58.0788 45.4872 58.1628 45.2852C58.2464 45.0832 58.2896 44.8668 58.2896 44.648C58.2896 44.4296 58.2464 44.2132 58.1628 44.0112C58.0788 43.8092 57.956 43.626 57.8016 43.4716L53.058 38.7198ZM26.97 39.6328C20.0516 39.6328 14.4172 33.9888 14.4172 27.0582C14.4172 20.1277 20.0516 14.4836 26.97 14.4836C33.8888 14.4836 39.5232 20.1277 39.5232 27.0582C39.5232 34.0303 33.8888 39.6328 26.97 39.6328Z" fill="url(#paint8_linear_116_3)"/>
</g>
<g filter="url(#filter5_f_116_3)">
<path d="M30.7727 46.3172C42.0595 46.3172 51.2095 37.1516 51.2095 25.8452C51.2095 14.5387 42.0595 5.37305 30.7727 5.37305C19.4859 5.37305 10.3359 14.5387 10.3359 25.8452C10.3359 37.1516 19.4859 46.3172 30.7727 46.3172Z" stroke="url(#paint9_linear_116_3)" stroke-width="0.75"/>
<path d="M30.7727 46.3172C42.0595 46.3172 51.2095 37.1516 51.2095 25.8452C51.2095 14.5387 42.0595 5.37305 30.7727 5.37305C19.4859 5.37305 10.3359 14.5387 10.3359 25.8452C10.3359 37.1516 19.4859 46.3172 30.7727 46.3172Z" stroke="url(#paint10_linear_116_3)" stroke-width="0.75"/>
</g>
<g filter="url(#filter6_f_116_3)">
<path d="M93.2145 46.6804C104.579 45.7936 113.075 35.8459 112.189 24.4616C111.303 13.0774 101.373 4.56765 90.0081 5.45461C78.6437 6.34157 70.1485 16.2894 71.0341 27.6736C71.9193 39.0578 81.8501 47.5676 93.2145 46.6804Z" stroke="url(#paint11_linear_116_3)" stroke-width="0.75"/>
<path d="M93.2145 46.6804C104.579 45.7936 113.075 35.8459 112.189 24.4616C111.303 13.0774 101.373 4.56765 90.0081 5.45461C78.6437 6.34157 70.1485 16.2894 71.0341 27.6736C71.9193 39.0578 81.8501 47.5676 93.2145 46.6804Z" stroke="url(#paint12_linear_116_3)" stroke-width="0.75"/>
</g>
<g filter="url(#filter7_f_116_3)">
<path d="M38.6152 49.102C40.6784 47.7448 45.716 43.8936 49.3536 39.3535" stroke="#FF683C" stroke-width="0.75"/>
</g>
<g filter="url(#filter8_f_116_3)">
<path d="M77.4887 50.2228C75.5043 48.7496 70.6983 44.6164 67.3259 39.877" stroke="url(#paint13_linear_116_3)" stroke-width="0.75"/>
</g>
<defs>
<filter id="filter0_i_116_3" x="11.4199" y="34.6863" width="70.0781" height="75.9541" filterUnits="userSpaceOnUse" color-interpolation-filters="sRGB">
<feFlood flood-opacity="0" result="BackgroundImageFix"/>
<feBlend mode="normal" in="SourceGraphic" in2="BackgroundImageFix" result="shape"/>
<feColorMatrix in="SourceAlpha" type="matrix" values="0 0 0 0 0 0 0 0 0 0 0 0 0 0 0 0 0 0 127 0" result="hardAlpha"/>
<feOffset dx="0.05" dy="-0.05"/>
<feGaussianBlur stdDeviation="0.05"/>
<feComposite in2="hardAlpha" operator="arithmetic" k2="-1" k3="1"/>
<feColorMatrix type="matrix" values="0 0 0 0 0.631373 0 0 0 0 0.521569 0 0 0 0 0.733333 0 0 0 1 0"/>
<feBlend mode="normal" in2="shape" result="effect1_innerShadow_116_3"/>
</filter>
<filter id="filter1_i_116_3" x="58.3835" y="0" width="58.0165" height="58.5396" filterUnits="userSpaceOnUse" color-interpolation-filters="sRGB">
<feFlood flood-opacity="0" result="BackgroundImageFix"/>
<feBlend mode="normal" in="SourceGraphic" in2="BackgroundImageFix" result="shape"/>
<feColorMatrix in="SourceAlpha" type="matrix" values="0 0 0 0 0 0 0 0 0 0 0 0 0 0 0 0 0 0 127 0" result="hardAlpha"/>
<feOffset dx="0.4"/>
<feGaussianBlur stdDeviation="0.4"/>
<feComposite in2="hardAlpha" operator="arithmetic" k2="-1" k3="1"/>
<feColorMatrix type="matrix" values="0 0 0 0 0.690196 0 0 0 0 0.211765 0 0 0 0 0.341176 0 0 0 1 0"/>
<feBlend mode="normal" in2="shape" result="effect1_innerShadow_116_3"/>
</filter>
<filter id="filter2_ii_116_3" x="34.5835" y="34.4363" width="69.851" height="76.2533" filterUnits="userSpaceOnUse" color-interpolation-filters="sRGB">
<feFlood flood-opacity="0" result="BackgroundImageFix"/>
<feBlend mode="normal" in="SourceGraphic" in2="BackgroundImageFix" result="shape"/>
<feColorMatrix in="SourceAlpha" type="matrix" values="0 0 0 0 0 0 0 0 0 0 0 0 0 0 0 0 0 0 127 0" result="hardAlpha"/>
<feOffset dx="-0.05" dy="0.05"/>
<feGaussianBlur stdDeviation="0.05"/>
<feComposite in2="hardAlpha" operator="arithmetic" k2="-1" k3="1"/>
<feColorMatrix type="matrix" values="0 0 0 0 0.627451 0 0 0 0 0.592157 0 0 0 0 0.658824 0 0 0 1 0"/>
<feBlend mode="normal" in2="shape" result="effect1_innerShadow_116_3"/>
<feColorMatrix in="SourceAlpha" type="matrix" values="0 0 0 0 0 0 0 0 0 0 0 0 0 0 0 0 0 0 127 0" result="hardAlpha"/>
<feOffset dx="0.05" dy="-0.05"/>
<feGaussianBlur stdDeviation="0.05"/>
<feComposite in2="hardAlpha" operator="arithmetic" k2="-1" k3="1"/>
<feColorMatrix type="matrix" values="0 0 0 0 0.643137 0 0 0 0 0.52549 0 0 0 0 0.74902 0 0 0 1 0"/>
<feBlend mode="normal" in2="effect1_innerShadow_116_3" result="effect2_innerShadow_116_3"/>
</filter>
<filter id="filter3_d_116_3" x="53.1844" y="53.6852" width="9.26572" height="9.2811" filterUnits="userSpaceOnUse" color-interpolation-filters="sRGB">
<feFlood flood-opacity="0" result="BackgroundImageFix"/>
<feColorMatrix in="SourceAlpha" type="matrix" values="0 0 0 0 0 0 0 0 0 0 0 0 0 0 0 0 0 0 127 0" result="hardAlpha"/>
<feOffset dx="-0.1" dy="0.1"/>
<feGaussianBlur stdDeviation="0.1"/>
<feComposite in2="hardAlpha" operator="out"/>
<feColorMatrix type="matrix" values="0 0 0 0 0.54902 0 0 0 0 0.419608 0 0 0 0 0.658824 0 0 0 1 0"/>
<feBlend mode="normal" in2="BackgroundImageFix" result="effect1_dropShadow_116_3"/>
<feBlend mode="normal" in="SourceGraphic" in2="effect1_dropShadow_116_3" result="shape"/>
</filter>
<filter id="filter4_i_116_3" x="0" y="0" width="58.6896" height="58.5625" filterUnits="userSpaceOnUse" color-interpolation-filters="sRGB">
<feFlood flood-opacity="0" result="BackgroundImageFix"/>
<feBlend mode="normal" in="SourceGraphic" in2="BackgroundImageFix" result="shape"/>
<feColorMatrix in="SourceAlpha" type="matrix" values="0 0 0 0 0 0 0 0 0 0 0 0 0 0 0 0 0 0 127 0" result="hardAlpha"/>
<feOffset dx="0.4"/>
<feGaussianBlur stdDeviation="0.4"/>
<feComposite in2="hardAlpha" operator="arithmetic" k2="-1" k3="1"/>
<feColorMatrix type="matrix" values="0 0 0 0 0.690196 0 0 0 0 0.211765 0 0 0 0 0.341176 0 0 0 1 0"/>
<feBlend mode="normal" in2="shape" result="effect1_innerShadow_116_3"/>
</filter>
<filter id="filter5_f_116_3" x="9.46094" y="4.49805" width="42.6235" height="42.6941" filterUnits="userSpaceOnUse" color-interpolation-filters="sRGB">
<feFlood flood-opacity="0" result="BackgroundImageFix"/>
<feBlend mode="normal" in="SourceGraphic" in2="BackgroundImageFix" result="shape"/>
<feGaussianBlur stdDeviation="0.25" result="effect1_foregroundBlur_116_3"/>
</filter>
<filter id="filter6_f_116_3" x="70.0957" y="4.51611" width="43.0317" height="43.1028" filterUnits="userSpaceOnUse" color-interpolation-filters="sRGB">
<feFlood flood-opacity="0" result="BackgroundImageFix"/>
<feBlend mode="normal" in="SourceGraphic" in2="BackgroundImageFix" result="shape"/>
<feGaussianBlur stdDeviation="0.25" result="effect1_foregroundBlur_116_3"/>
</filter>
<filter id="filter7_f_116_3" x="37.9092" y="38.6191" width="12.2371" height="11.2961" filterUnits="userSpaceOnUse" color-interpolation-filters="sRGB">
<feFlood flood-opacity="0" result="BackgroundImageFix"/>
<feBlend mode="normal" in="SourceGraphic" in2="BackgroundImageFix" result="shape"/>
<feGaussianBlur stdDeviation="0.25" result="effect1_foregroundBlur_116_3"/>
</filter>
<filter id="filter8_f_116_3" x="66.5203" y="39.1594" width="11.6919" height="11.8645" filterUnits="userSpaceOnUse" color-interpolation-filters="sRGB">
<feFlood flood-opacity="0" result="BackgroundImageFix"/>
<feBlend mode="normal" in="SourceGraphic" in2="BackgroundImageFix" result="shape"/>
<feGaussianBlur stdDeviation="0.25" result="effect1_foregroundBlur_116_3"/>
</filter>
<linearGradient id="paint0_linear_116_3" x1="29.2599" y1="74.5724" x2="42.8751" y2="87.518" gradientUnits="userSpaceOnUse">
<stop stop-color="#877697"/>
<stop offset="1" stop-color="#BDA7D4"/>
</linearGradient>
<linearGradient id="paint1_linear_116_3" x1="55.2151" y1="66.596" x2="52.7547" y2="68.862" gradientUnits="userSpaceOnUse">
<stop offset="0.607" stop-color="#7C549C"/>
<stop offset="1" stop-color="#7C549C" stop-opacity="0"/>
</linearGradient>
<linearGradient id="paint2_linear_116_3" x1="116" y1="29.6188" x2="71.7707" y2="29.6188" gradientUnits="userSpaceOnUse">
<stop stop-color="#FF7415"/>
<stop offset="1" stop-color="#F63178"/>
</linearGradient>
<linearGradient id="paint3_linear_116_3" x1="68.3899" y1="80.278" x2="80.1571" y2="67.3996" gradientUnits="userSpaceOnUse">
<stop stop-color="#B59FCA"/>
<stop offset="1" stop-color="#887799"/>
</linearGradient>
<radialGradient id="paint4_radial_116_3" cx="0" cy="0" r="1" gradientUnits="userSpaceOnUse" gradientTransform="translate(58.2612 57.7112) rotate(134.52) scale(6.09332 5.59096)">
<stop offset="0.518" stop-color="#988098" stop-opacity="0"/>
<stop offset="0.86" stop-color="#988098"/>
</radialGradient>
<radialGradient id="paint5_radial_116_3" cx="0" cy="0" r="1" gradientUnits="userSpaceOnUse" gradientTransform="translate(55.8636 63.356) rotate(-68.1762) scale(5.5238 4.92096)">
<stop stop-color="#926BB4"/>
<stop offset="1" stop-color="#926BB4" stop-opacity="0"/>
</radialGradient>
<radialGradient id="paint6_radial_116_3" cx="0" cy="0" r="1" gradientUnits="userSpaceOnUse" gradientTransform="translate(59.5536 57.582) rotate(139.568) scale(2.14964 2.15023)">
<stop offset="0.259" stop-color="#B9AEC4"/>
<stop offset="1" stop-color="#B9AEC4" stop-opacity="0"/>
</radialGradient>
<radialGradient id="paint7_radial_116_3" cx="0" cy="0" r="1" gradientUnits="userSpaceOnUse" gradientTransform="translate(57.4844 61.0212) rotate(-65.8959) scale(7.92508 7.91596)">
<stop offset="0.7" stop-color="#A49EA6" stop-opacity="0"/>
<stop offset="1" stop-color="#A49EA6"/>
</radialGradient>
<linearGradient id="paint8_linear_116_3" x1="58.974" y1="29.6188" x2="14.2432" y2="29.6188" gradientUnits="userSpaceOnUse">
<stop stop-color="#FF7415"/>
<stop offset="1" stop-color="#F63178"/>
</linearGradient>
<linearGradient id="paint9_linear_116_3" x1="52.4315" y1="11.6852" x2="34.6463" y2="24.2848" gradientUnits="userSpaceOnUse">
<stop stop-color="#FF8C72"/>
<stop offset="1" stop-color="#FF8C72" stop-opacity="0"/>
</linearGradient>
<linearGradient id="paint10_linear_116_3" x1="10.3359" y1="34.0747" x2="19.9639" y2="30.4502" gradientUnits="userSpaceOnUse">
<stop stop-color="#FF638F"/>
<stop offset="1" stop-color="#FF638F" stop-opacity="0"/>
</linearGradient>
<linearGradient id="paint11_linear_116_3" x1="112.311" y1="10.1078" x2="95.3873" y2="24.1897" gradientUnits="userSpaceOnUse">
<stop stop-color="#FF8C72"/>
<stop offset="1" stop-color="#FF8C72" stop-opacity="0"/>
</linearGradient>
<linearGradient id="paint12_linear_116_3" x1="71.6781" y1="35.9569" x2="81.0893" y2="31.5514" gradientUnits="userSpaceOnUse">
<stop stop-color="#FF638F"/>
<stop offset="1" stop-color="#FF638F" stop-opacity="0"/>
</linearGradient>
<linearGradient id="paint13_linear_116_3" x1="68.2251" y1="39.9268" x2="77.6967" y2="58.236" gradientUnits="userSpaceOnUse">
<stop stop-color="#DB236E"/>
<stop offset="1" stop-color="#DB236E" stop-opacity="0"/>
</linearGradient>
</defs>
</svg>
